<svg width="32" height="24" viewBox="0 0 32 24" fill="none" xmlns="http://www.w3.org/2000/svg">
<mask id="mask0_270_67481" style="mask-type:luminance" maskUnits="userSpaceOnUse" x="0" y="0" width="32" height="24">
<rect width="32" height="24" fill="white"/>
</mask>
<g mask="url(#mask0_270_67481)">
<path fill-rule="evenodd" clip-rule="evenodd" d="M0 0V24H32V0H0Z" fill="#F7FCFF"/>
<mask id="mask1_270_67481" style="mask-type:luminance" maskUnits="userSpaceOnUse" x="0" y="0" width="32" height="24">
<path fill-rule="evenodd" clip-rule="evenodd" d="M0 0V24H32V0H0Z" fill="white"/>
</mask>
<g mask="url(#mask1_270_67481)">
<path fill-rule="evenodd" clip-rule="evenodd" d="M0 0V8H32V0H0Z" fill="#E31D1C"/>
<path fill-rule="evenodd" clip-rule="evenodd" d="M0 16V24H32V16H0Z" fill="#3D58DB"/>
<rect x="10.0766" y="6.39732" width="11.4" height="4" fill="#E31D1C"/>
<path d="M20.7802 8.95982C20.7973 9.72872 20.8028 11.0699 20.8027 12.3612C20.8026 13.1951 20.801 13.9982 20.7988 14.5926C20.7977 14.8897 20.7967 15.1348 20.7959 15.3055C20.7954 15.3906 20.7951 15.4574 20.7949 15.5028C20.7948 15.5136 20.7939 15.5237 20.7939 15.5321V15.535C20.7895 15.5616 20.7819 15.6033 20.7705 15.6581C20.7475 15.7681 20.709 15.9301 20.6474 16.1258C20.5236 16.5191 20.3099 17.0404 19.955 17.5585C19.2606 18.5723 17.9995 19.6151 15.6494 19.6151C13.303 19.615 12.1035 18.5742 11.4648 17.5702C11.1368 17.0545 10.9495 16.5345 10.8447 16.1415C10.7925 15.946 10.7608 15.7846 10.7431 15.6747C10.7343 15.6199 10.7287 15.5782 10.7255 15.5516C10.7251 15.5482 10.7249 15.5448 10.7246 15.5419C10.7244 15.5302 10.7239 15.5127 10.7236 15.4901C10.723 15.445 10.7217 15.3786 10.7207 15.2938C10.7186 15.1242 10.7164 14.8802 10.7128 14.5848C10.7058 13.9941 10.6958 13.1958 10.6865 12.3651C10.6722 11.0953 10.6602 9.75336 10.6543 8.95982H20.7802Z" fill="#F7FCFF" stroke="#E31D1C" stroke-width="1.125"/>
<mask id="mask2_270_67481" style="mask-type:luminance" maskUnits="userSpaceOnUse" x="10" y="8" width="12" height="13">
<path d="M20.7802 8.95982C20.7973 9.72872 20.8028 11.0699 20.8027 12.3612C20.8026 13.1951 20.801 13.9982 20.7988 14.5926C20.7977 14.8897 20.7967 15.1348 20.7959 15.3055C20.7954 15.3906 20.7951 15.4574 20.7949 15.5028C20.7948 15.5136 20.7939 15.5237 20.7939 15.5321V15.535C20.7895 15.5616 20.7819 15.6033 20.7705 15.6581C20.7475 15.7681 20.709 15.9301 20.6474 16.1258C20.5236 16.5191 20.3099 17.0404 19.955 17.5585C19.2606 18.5723 17.9995 19.6151 15.6494 19.6151C13.303 19.615 12.1035 18.5742 11.4648 17.5702C11.1368 17.0545 10.9495 16.5345 10.8447 16.1415C10.7925 15.946 10.7608 15.7846 10.7431 15.6747C10.7343 15.6199 10.7287 15.5782 10.7255 15.5516C10.7251 15.5482 10.7249 15.5448 10.7246 15.5419C10.7244 15.5302 10.7239 15.5127 10.7236 15.4901C10.723 15.445 10.7217 15.3786 10.7207 15.2938C10.7186 15.1242 10.7164 14.8802 10.7128 14.5848C10.7058 13.9941 10.6958 13.1958 10.6865 12.3651C10.6722 11.0953 10.6602 9.75336 10.6543 8.95982H20.7802Z" fill="white" stroke="white" stroke-width="1.125"/>
</mask>
<g mask="url(#mask2_270_67481)">
<path fill-rule="evenodd" clip-rule="evenodd" d="M10.4984 9.03989H12.6078V11.1818H10.4984V9.03989ZM14.7172 11.1818H12.6078V13.3237H10.4984V15.4656H12.6078V17.6075H10.4984V19.7494H12.6078V17.6075H14.7172V19.7494H16.8266V17.6075H18.9359V19.7494H21.0453V17.6075H18.9359V15.4656H21.0453V13.3237H18.9359V11.1818H21.0453V9.03989H18.9359V11.1818H16.8266V9.03989H14.7172V11.1818ZM14.7172 13.3237V11.1818H16.8266V13.3237H14.7172ZM14.7172 15.4656V13.3237H12.6078V15.4656H14.7172ZM16.8266 15.4656V17.6075H14.7172V15.4656H16.8266ZM16.8266 15.4656V13.3237H18.9359V15.4656H16.8266Z" fill="#F50100"/>
</g>
<path fill-rule="evenodd" clip-rule="evenodd" d="M10.4531 8.16263C10.4531 8.16263 11.1055 7.81414 11.662 7.63454C12.2185 7.45494 12.6583 7.35681 12.6583 7.35681L11.8304 4.30472L10.172 3.68514L9.23282 5.23324L10.4531 8.16263Z" fill="#56C6F5" stroke="white" stroke-width="0.5"/>
<path d="M10.1811 6.49078L10.3716 6.39893C10.5684 6.81984 10.8278 6.94985 11.1833 6.81717C11.5465 6.68164 11.6946 6.42534 11.6423 6.01903L11.8515 5.99129C11.9163 6.49566 11.713 6.84772 11.2561 7.01821C10.7916 7.19155 10.4221 7.00634 10.1811 6.49078Z" fill="white"/>
<path fill-rule="evenodd" clip-rule="evenodd" d="M10.6323 5.54185L10.4502 5.65221C10.4099 5.67663 10.3597 5.64153 10.3689 5.5953L10.4103 5.38637L10.2236 5.28377C10.1823 5.26107 10.1876 5.20012 10.2323 5.18493L10.4339 5.11631L10.4294 4.90336C10.4284 4.85624 10.4839 4.83038 10.5193 4.86143L10.6796 5.00175L10.8618 4.89139C10.9021 4.86697 10.9522 4.90207 10.943 4.9483L10.9017 5.15723L11.0883 5.25983C11.1296 5.28253 11.1243 5.34348 11.0797 5.35867L10.878 5.42729L10.8825 5.64024C10.8835 5.68736 10.828 5.71322 10.7926 5.68217L10.6323 5.54185Z" fill="#FECA00"/>
<path fill-rule="evenodd" clip-rule="evenodd" d="M14.5408 7.0758C14.5408 7.0758 15.0972 7.02614 15.6818 7.0375C16.2665 7.04886 16.7611 7.05301 16.7611 7.05301L17.0466 4.04353L15.7943 2.91214L14.4022 4.07012L14.5408 7.0758Z" fill="#56C6F5" stroke="white" stroke-width="0.5"/>
<path fill-rule="evenodd" clip-rule="evenodd" d="M15.7502 6.58482C16.2326 6.58482 16.2788 6.06386 16.2788 5.70898C16.1554 5.51214 16.1803 5.37129 15.7849 5.37129C15.3896 5.37129 15.3445 5.49075 15.2291 5.70898C15.2291 6.06386 15.2679 6.58482 15.7502 6.58482Z" fill="#FECA00"/>
<path fill-rule="evenodd" clip-rule="evenodd" d="M16.293 5.11286C16.7753 5.11286 16.8215 4.5919 16.8215 4.23702C16.6982 4.04019 16.723 3.89933 16.3277 3.89933C15.9324 3.89933 15.8872 4.01879 15.7719 4.23702C15.7719 4.5919 15.8106 5.11286 16.293 5.11286Z" fill="#FECA00"/>
<path fill-rule="evenodd" clip-rule="evenodd" d="M15.2383 5.11286C15.7206 5.11286 15.7668 4.5919 15.7668 4.23702C15.6435 4.04019 15.6684 3.89933 15.273 3.89933C14.8777 3.89933 14.8325 4.01879 14.7172 4.23702C14.7172 4.5919 14.756 5.11286 15.2383 5.11286Z" fill="#FECA00"/>
<path d="M13.1286 2.85781L14.4919 3.82558L14.5857 3.89297L14.5964 4.0082L14.8484 6.93301L14.8708 7.19277L14.6091 7.20351H14.6081C14.6072 7.20356 14.6052 7.2044 14.6033 7.20449C14.5992 7.20467 14.5933 7.20414 14.5857 7.20449C14.57 7.20521 14.5471 7.20693 14.5183 7.2084C14.4603 7.21136 14.3782 7.2159 14.2849 7.22207C14.0971 7.2345 13.8664 7.25301 13.6814 7.27871C13.5046 7.30328 13.2594 7.36379 13.0505 7.42129C12.9478 7.44957 12.856 7.4769 12.7908 7.49648C12.7584 7.5062 12.7323 7.51444 12.7146 7.51992C12.7058 7.52264 12.6986 7.52437 12.6941 7.52578C12.6919 7.52645 12.6903 7.5274 12.6892 7.52773H12.6882L12.4451 7.60488L12.3728 7.35976L11.5056 4.4164L11.4646 4.27676L11.5661 4.17226L12.8044 2.88808L12.9538 2.73379L13.1286 2.85781Z" fill="#2E42A5" stroke="white" stroke-width="0.5"/>
<mask id="mask3_270_67481" style="mask-type:luminance" maskUnits="userSpaceOnUse" x="11" y="2" width="5" height="6">
<path d="M13.1286 2.85781L14.4919 3.82558L14.5857 3.89297L14.5964 4.0082L14.8484 6.93301L14.8708 7.19277L14.6091 7.20351H14.6081C14.6072 7.20356 14.6052 7.2044 14.6033 7.20449C14.5992 7.20467 14.5933 7.20414 14.5857 7.20449C14.57 7.20521 14.5471 7.20693 14.5183 7.2084C14.4603 7.21136 14.3782 7.2159 14.2849 7.22207C14.0971 7.2345 13.8664 7.25301 13.6814 7.27871C13.5046 7.30328 13.2594 7.36379 13.0505 7.42129C12.9478 7.44957 12.856 7.4769 12.7908 7.49648C12.7584 7.5062 12.7323 7.51444 12.7146 7.51992C12.7058 7.52264 12.6986 7.52437 12.6941 7.52578C12.6919 7.52645 12.6903 7.5274 12.6892 7.52773H12.6882L12.4451 7.60488L12.3728 7.35976L11.5056 4.4164L11.4646 4.27676L11.5661 4.17226L12.8044 2.88808L12.9538 2.73379L13.1286 2.85781Z" fill="white" stroke="white" stroke-width="0.5"/>
</mask>
<g mask="url(#mask3_270_67481)">
<path d="M12.4364 6.63783L12.1859 6.04775C12.724 5.81226 13.6328 5.66776 14.5892 5.61126L14.6259 6.25274C13.7368 6.30527 12.8958 6.43675 12.4364 6.63783Z" fill="#C51918"/>
<path d="M12.0137 5.21047L11.7632 4.62039C12.3012 4.3849 13.4576 4.19425 14.414 4.13775L14.4507 4.77923C13.5617 4.83176 12.4731 5.00939 12.0137 5.21047Z" fill="#C51918"/>
</g>
<path d="M18.2785 2.85781L16.9162 3.82558L16.8215 3.89297L16.8117 4.0082L16.5588 6.93301L16.5363 7.19277L16.7981 7.20351H16.799C16.8 7.20356 16.8019 7.2044 16.8039 7.20449C16.8079 7.20466 16.8138 7.20414 16.8215 7.20449C16.8373 7.20521 16.8609 7.20691 16.8899 7.2084C16.9478 7.21136 17.0291 7.2159 17.1223 7.22207C17.3103 7.23451 17.5415 7.25297 17.7268 7.27871C17.9037 7.30331 18.1487 7.36378 18.3576 7.42129C18.4604 7.44957 18.5512 7.4769 18.6164 7.49648C18.6489 7.50622 18.6748 7.51441 18.6926 7.51992C18.7014 7.52264 18.7085 7.52435 18.7131 7.52578C18.7152 7.52644 18.7169 7.52738 18.718 7.52773H18.7199L18.969 7.60683L19.0363 7.35488L19.8322 4.40566L19.8684 4.27383L19.7756 4.17226L18.6076 2.89297L18.4592 2.72988L18.2785 2.85781Z" fill="#2E42A5" stroke="white" stroke-width="0.5"/>
<mask id="mask4_270_67481" style="mask-type:luminance" maskUnits="userSpaceOnUse" x="16" y="2" width="5" height="6">
<path d="M18.2785 2.85781L16.9162 3.82558L16.8215 3.89297L16.8117 4.0082L16.5588 6.93301L16.5363 7.19277L16.7981 7.20351H16.799C16.8 7.20356 16.8019 7.2044 16.8039 7.20449C16.8079 7.20466 16.8138 7.20414 16.8215 7.20449C16.8373 7.20521 16.8609 7.20691 16.8899 7.2084C16.9478 7.21136 17.0291 7.2159 17.1223 7.22207C17.3103 7.23451 17.5415 7.25297 17.7268 7.27871C17.9037 7.30331 18.1487 7.36378 18.3576 7.42129C18.4604 7.44957 18.5512 7.4769 18.6164 7.49648C18.6489 7.50622 18.6748 7.51441 18.6926 7.51992C18.7014 7.52264 18.7085 7.52435 18.7131 7.52578C18.7152 7.52644 18.7169 7.52738 18.718 7.52773H18.7199L18.969 7.60683L19.0363 7.35488L19.8322 4.40566L19.8684 4.27383L19.7756 4.17226L18.6076 2.89297L18.4592 2.72988L18.2785 2.85781Z" fill="white" stroke="white" stroke-width="0.5"/>
</mask>
<g mask="url(#mask4_270_67481)">
<path fill-rule="evenodd" clip-rule="evenodd" d="M18.3978 6.46649C18.3978 6.46649 18.6918 6.30286 18.7342 6.02698C18.7765 5.7511 19.2313 5.4113 19.0039 5.45174C18.7765 5.49218 18.9065 5.52377 18.5773 5.45174C18.2481 5.37971 17.822 5.33207 17.822 5.12968C17.822 4.92729 18.0338 4.76666 17.8607 4.76666C17.6875 4.76666 17.3181 4.57511 17.3923 4.72152C17.4665 4.86793 17.2216 4.70238 17.3441 5.00634C17.4665 5.31031 17.3181 5.61653 17.3923 5.6971C17.4665 5.77768 17.3441 6.17287 17.3441 6.17287C17.3441 6.17287 17.389 6.31965 17.4677 6.0998C17.5464 5.87996 17.7185 5.72585 17.6324 5.91283C17.5464 6.0998 17.4366 6.54453 17.5345 6.46649C17.6324 6.38844 17.7298 6.17263 17.7298 6.0998C17.7298 6.02698 17.9769 5.74111 17.9769 5.95699C17.9769 6.17287 17.7444 6.34287 17.8607 6.34287C17.9769 6.34287 18.042 6.38875 18.1151 6.17287C18.1882 5.95699 18.3657 5.81418 18.4385 5.95699C18.5113 6.0998 18.4952 6.09217 18.3978 6.27933C18.3005 6.46649 18.3978 6.46649 18.3978 6.46649Z" fill="#FECA00"/>
<path fill-rule="evenodd" clip-rule="evenodd" d="M17.7072 4.86651L17.5978 4.68341C17.7942 4.56239 17.9745 4.53014 18.1329 4.59761C18.2049 4.62829 18.2591 4.66324 18.4005 4.76269L18.419 4.77567C18.5662 4.87892 18.6442 4.92098 18.6921 4.92098V5.13517C18.5823 5.13517 18.4873 5.08391 18.2991 4.95191L18.2804 4.93876C18.1531 4.84925 18.104 4.81759 18.0513 4.79512C17.9637 4.7578 17.851 4.77795 17.7072 4.86651ZM17.3609 6.26345C17.4231 6.26345 17.4734 6.21371 17.4734 6.15234C17.4734 6.09098 17.4231 6.04123 17.3609 6.04123C17.2988 6.04123 17.2484 6.09098 17.2484 6.15234C17.2484 6.21371 17.2988 6.26345 17.3609 6.26345ZM17.6844 6.36653C17.6844 6.4279 17.634 6.47764 17.5719 6.47764C17.5097 6.47764 17.4594 6.4279 17.4594 6.36653C17.4594 6.30517 17.5097 6.25542 17.5719 6.25542C17.634 6.25542 17.6844 6.30517 17.6844 6.36653ZM17.9508 6.46938C18.0129 6.46938 18.0633 6.41964 18.0633 6.35827C18.0633 6.29691 18.0129 6.24716 17.9508 6.24716C17.8887 6.24716 17.8383 6.29691 17.8383 6.35827C17.8383 6.41964 17.8887 6.46938 17.9508 6.46938ZM18.4158 6.53609C18.4158 6.59745 18.3654 6.6472 18.3033 6.6472C18.2411 6.6472 18.1908 6.59745 18.1908 6.53609C18.1908 6.47472 18.2411 6.42498 18.3033 6.42498C18.3654 6.42498 18.4158 6.47472 18.4158 6.53609Z" fill="#C51918"/>
</g>
<path d="M21.3351 3.45077L19.6768 4.07088L19.5577 4.11483L19.5235 4.23592L18.6778 7.21249L18.6046 7.46737L18.8634 7.52499H18.8643C18.865 7.52514 18.8659 7.52566 18.8673 7.52596C18.8703 7.52665 18.8757 7.52745 18.8819 7.52889C18.8943 7.53176 18.9128 7.53586 18.9366 7.54159C18.985 7.55323 19.0558 7.57134 19.1436 7.59432C19.3197 7.6404 19.5643 7.70848 19.837 7.79647C20.1003 7.88143 20.3921 8.00792 20.6212 8.11581C20.7347 8.16929 20.8314 8.21796 20.8995 8.25253C20.9334 8.26972 20.9605 8.28311 20.9786 8.29256C20.9876 8.29726 20.9946 8.30091 20.9991 8.30331C21.0013 8.30449 21.0029 8.30567 21.004 8.30624L21.005 8.30721L21.2442 8.43514L21.3526 8.18612L22.5909 5.3326L22.6427 5.21444L22.5753 5.10311L21.6358 3.55526L21.5284 3.3785L21.3351 3.45077Z" fill="#56C6F5" stroke="white" stroke-width="0.5"/>
<mask id="mask5_270_67481" style="mask-type:luminance" maskUnits="userSpaceOnUse" x="18" y="3" width="5" height="6">
<path d="M21.3351 3.45077L19.6768 4.07088L19.5577 4.11483L19.5235 4.23592L18.6778 7.21249L18.6046 7.46737L18.8634 7.52499H18.8643C18.865 7.52514 18.8659 7.52566 18.8673 7.52596C18.8703 7.52665 18.8757 7.52745 18.8819 7.52889C18.8943 7.53176 18.9128 7.53586 18.9366 7.54159C18.985 7.55323 19.0558 7.57134 19.1436 7.59432C19.3197 7.6404 19.5643 7.70848 19.837 7.79647C20.1003 7.88143 20.3921 8.00792 20.6212 8.11581C20.7347 8.16929 20.8314 8.21796 20.8995 8.25253C20.9334 8.26972 20.9605 8.28311 20.9786 8.29256C20.9876 8.29726 20.9946 8.30091 20.9991 8.30331C21.0013 8.30449 21.0029 8.30567 21.004 8.30624L21.005 8.30721L21.2442 8.43514L21.3526 8.18612L22.5909 5.3326L22.6427 5.21444L22.5753 5.10311L21.6358 3.55526L21.5284 3.3785L21.3351 3.45077Z" fill="white" stroke="white" stroke-width="0.5"/>
</mask>
<g mask="url(#mask5_270_67481)">
<path fill-rule="evenodd" clip-rule="evenodd" d="M21.1274 5.08913L20.9855 5.24793C20.9541 5.28306 20.8959 5.26415 20.8911 5.21727L20.8696 5.00536L20.6611 4.96182C20.615 4.95219 20.6023 4.89234 20.6405 4.86477L20.8133 4.7402L20.7467 4.53786C20.732 4.49309 20.7775 4.45215 20.8205 4.47147L21.0147 4.5588L21.1567 4.40001C21.1881 4.36487 21.2463 4.38378 21.251 4.43067L21.2725 4.64257L21.481 4.68611C21.5272 4.69574 21.5399 4.75559 21.5017 4.78316L21.3289 4.90774L21.3955 5.11007C21.4102 5.15484 21.3647 5.19578 21.3217 5.17646L21.1274 5.08913Z" fill="#FECA00"/>
<path d="M18.9951 6.48762L19.2076 5.65846C20.1483 5.90696 21.129 6.22544 21.8485 6.53342L21.5207 7.32289C20.841 7.03195 19.8985 6.72625 18.9951 6.48762Z" fill="#E31D1C"/>
<path d="M19.2831 5.72197L19.3332 5.5139C20.2351 5.73772 21.1937 6.09484 21.8903 6.42747L21.8006 6.62129C21.1174 6.29506 20.172 5.94254 19.2831 5.72197Z" fill="white"/>
<path d="M19.0158 6.57652L19.0659 6.36845C19.9678 6.59227 20.8014 6.89597 21.498 7.22859L21.4083 7.42242C20.7251 7.09619 19.9047 6.79709 19.0158 6.57652Z" fill="white"/>
<path d="M19.4229 6.17499L19.6161 6.08778C19.6974 6.27809 19.7978 6.32002 19.9657 6.23845C20.3622 6.04579 21.3458 6.31503 21.3458 6.67806C21.3458 6.81969 21.2637 6.90555 21.1384 6.90058C21.0676 6.89777 20.9921 6.86982 20.8814 6.81506C20.8679 6.80842 20.8591 6.80397 20.8373 6.7929C20.7148 6.73043 20.7056 6.72587 20.673 6.71413L20.7428 6.50948C20.7879 6.52575 20.795 6.52924 20.9311 6.59862C20.952 6.60928 20.9602 6.61341 20.9728 6.61961C21.0577 6.66159 21.1144 6.6826 21.1465 6.68387C21.1495 6.68399 21.1349 6.69929 21.1349 6.67806C21.1349 6.51833 20.3343 6.2992 20.0558 6.43452C19.778 6.56948 19.551 6.47467 19.4229 6.17499Z" fill="#272727"/>
</g>
</g>
</g>
</svg>
