<svg width="32" height="24" viewBox="0 0 32 24" fill="none" xmlns="http://www.w3.org/2000/svg">
<mask id="mask0_270_67442" style="mask-type:luminance" maskUnits="userSpaceOnUse" x="0" y="0" width="32" height="24">
<rect width="32" height="24" fill="white"/>
</mask>
<g mask="url(#mask0_270_67442)">
<path fill-rule="evenodd" clip-rule="evenodd" d="M0 0V24H32V0H0Z" fill="#4857A1"/>
<mask id="mask1_270_67442" style="mask-type:luminance" maskUnits="userSpaceOnUse" x="0" y="0" width="32" height="24">
<path fill-rule="evenodd" clip-rule="evenodd" d="M0 0V24H32V0H0Z" fill="white"/>
</mask>
<g mask="url(#mask1_270_67442)">
<path fill-rule="evenodd" clip-rule="evenodd" d="M0 0V8H32V0H0Z" fill="#C51918"/>
<path fill-rule="evenodd" clip-rule="evenodd" d="M0 16V24H32V16H0Z" fill="#F7FCFF"/>
<path fill-rule="evenodd" clip-rule="evenodd" d="M11.4558 3.8032L11.3427 3.34974C11.4391 3.37936 11.5439 3.40976 11.6545 3.44103L11.6534 3.43523C12.9734 3.55497 15.014 4.23826 15.3938 4.964C15.5406 5.2445 15.3946 5.48363 15.2033 5.797C15.1747 5.84383 15.1451 5.89232 15.1153 5.94284C15.0191 6.10602 14.9319 6.26201 14.8497 6.40901C14.5532 6.93939 14.322 7.35288 13.9701 7.56528L13.9771 8.76627L8.08159 8.71557L8.07395 7.50246C7.77257 7.27677 7.557 6.8912 7.2874 6.40901C7.20521 6.26201 7.118 6.10602 7.0218 5.94284C6.99201 5.89232 6.96241 5.84383 6.93382 5.797C6.7425 5.48363 6.5965 5.2445 6.74332 4.964C7.02891 4.41835 8.32278 3.88768 9.50836 3.60702C9.74164 3.52406 9.98544 3.44655 10.2271 3.37232L10.335 3.45041C10.4288 3.43761 10.5196 3.42718 10.6067 3.41928L10.7426 3.72217H11.2226C11.2226 3.72217 11.5124 4.58271 11.5124 5.06062C11.5124 5.53853 11.2226 5.93374 11.2226 5.93374V6.26363C11.2729 6.26783 11.3257 6.27294 11.3806 6.27886C11.381 6.25024 11.3838 6.22011 11.3892 6.18926C11.417 6.03161 11.5035 5.91508 11.5823 5.92898C11.6611 5.94288 11.7025 6.08194 11.6747 6.23959C11.6702 6.26523 11.6641 6.28977 11.6568 6.31285C11.9678 6.35514 12.3163 6.41419 12.6465 6.47494C12.7722 6.23125 12.9255 5.99048 13.0718 5.7606C13.4501 5.16639 13.7821 4.6449 13.4723 4.33359C13.4135 4.27455 13.3072 4.21963 13.17 4.16877C12.7167 4.05597 12.2231 3.96897 11.7435 3.92546L11.729 3.84664C11.6333 3.83109 11.5414 3.81661 11.4558 3.8032ZM13.696 6.68268C13.8636 6.71799 13.9653 6.74045 13.9653 6.74045L13.9663 6.91232C14.5504 6.46213 14.9636 5.46464 15.0009 5.13787C15.0234 4.94087 14.711 4.71375 14.2211 4.50797C14.453 4.94762 14.1425 5.38392 13.7528 5.93147C13.6064 6.13725 13.4488 6.35875 13.3046 6.60203L13.4476 6.63109C13.4464 6.58591 13.4523 6.5351 13.4663 6.48288C13.5078 6.32825 13.604 6.21969 13.6813 6.24041C13.7586 6.26113 13.7877 6.40327 13.7463 6.5579C13.7338 6.60442 13.7164 6.64677 13.696 6.68268ZM10.6835 6.26586V5.89846C10.6835 5.89846 10.4326 5.61798 10.3937 5.03383C10.3659 4.61597 10.452 4.12475 10.5033 3.87894C10.1289 3.92642 9.73411 4.00017 9.35188 4.09074C9.09827 4.16215 8.89617 4.24302 8.80602 4.33359C8.49617 4.6449 8.82818 5.16639 9.20648 5.7606L9.20648 5.7606L9.20649 5.7606L9.20649 5.76062C9.34786 5.98266 9.49568 6.21485 9.6189 6.45003C9.83199 6.40389 10.0461 6.36118 10.2461 6.3272C10.2374 6.2963 10.2313 6.26257 10.2282 6.22706C10.2142 6.06759 10.2675 5.93265 10.3473 5.92568C10.427 5.9187 10.503 6.04232 10.5169 6.2018C10.5194 6.2307 10.5198 6.2588 10.5181 6.28548C10.5755 6.27778 10.6308 6.27119 10.6835 6.26586ZM8.52546 5.93148L8.52546 5.93148L8.52545 5.93147C8.127 5.37154 7.81134 4.92795 8.07371 4.47814C7.50021 4.70021 7.11383 4.94139 7.13623 5.13787C7.17143 5.44661 7.54229 6.3541 8.07576 6.83301C8.11292 6.82264 8.3192 6.76541 8.61035 6.69056C8.588 6.65567 8.56828 6.61414 8.55333 6.56814C8.50386 6.41589 8.52547 6.27242 8.6016 6.24769C8.67772 6.22295 8.77953 6.32632 8.829 6.47857C8.84607 6.53111 8.85468 6.58261 8.8555 6.62855L8.97234 6.59972C8.82851 6.35735 8.67143 6.13661 8.52547 5.93149L8.52547 5.93149L8.52546 5.93148Z" fill="#F6C540"/>
<path fill-rule="evenodd" clip-rule="evenodd" d="M11.6521 3.50597C11.6521 3.85745 11.3601 4.14238 10.9999 4.14238C10.6398 4.14238 10.3478 3.85745 10.3478 3.50597C10.3478 3.15449 10.6398 2.86956 10.9999 2.86956C11.3601 2.86956 11.6521 3.15449 11.6521 3.50597ZM10.9999 8.23188C11.2801 8.23188 11.5072 8.10211 11.5072 7.94203C11.5072 7.78195 11.2801 7.65217 10.9999 7.65217C10.7198 7.65217 10.4927 7.78195 10.4927 7.94203C10.4927 8.10211 10.7198 8.23188 10.9999 8.23188ZM8.46371 8.15942C8.46371 8.27948 8.36638 8.37681 8.24632 8.37681C8.12626 8.37681 8.02893 8.27948 8.02893 8.15942C8.02893 8.03936 8.12626 7.94203 8.24632 7.94203C8.36638 7.94203 8.46371 8.03936 8.46371 8.15942ZM14.2608 8.15942C14.2608 8.27948 14.1635 8.37681 14.0434 8.37681C13.9234 8.37681 13.826 8.27948 13.826 8.15942C13.826 8.03936 13.9234 7.94203 14.0434 7.94203C14.1635 7.94203 14.2608 8.03936 14.2608 8.15942Z" fill="#2E42A5"/>
<path fill-rule="evenodd" clip-rule="evenodd" d="M9.91299 8.01449C9.91299 8.13455 9.75078 8.23188 9.55067 8.23188C9.35057 8.23188 9.18835 8.13455 9.18835 8.01449C9.18835 7.89443 9.35057 7.7971 9.55067 7.7971C9.75078 7.7971 9.91299 7.89443 9.91299 8.01449ZM12.9565 8.01449C12.9565 8.13455 12.7943 8.23188 12.5942 8.23188C12.394 8.23188 12.2318 8.13455 12.2318 8.01449C12.2318 7.89443 12.394 7.7971 12.5942 7.7971C12.7943 7.7971 12.9565 7.89443 12.9565 8.01449Z" fill="#C5363C"/>
<path fill-rule="evenodd" clip-rule="evenodd" d="M12.2319 6.2029C12.2319 6.36298 12.167 6.49275 12.0869 6.49275C12.0069 6.49275 11.942 6.36298 11.942 6.2029C11.942 6.04282 12.0069 5.91304 12.0869 5.91304C12.167 5.91304 12.2319 6.04282 12.2319 6.2029ZM10.0509 6.15811C10.1003 6.31036 10.0787 6.45383 10.0026 6.47857C9.92648 6.5033 9.82467 6.39993 9.7752 6.24768C9.72573 6.09544 9.74734 5.95196 9.82346 5.92723C9.89959 5.9025 10.0014 6.00587 10.0509 6.15811ZM8.34595 6.94395C8.42207 6.91921 8.44368 6.77574 8.39421 6.6235C8.34475 6.47125 8.24293 6.36788 8.16681 6.39261C8.09069 6.41735 8.06908 6.56082 8.11855 6.71307C8.16801 6.86531 8.26983 6.96868 8.34595 6.94395ZM14.0806 6.74724C13.9957 6.883 13.8719 6.95866 13.8041 6.91625C13.7362 6.87383 13.7499 6.7294 13.8347 6.59364C13.9196 6.45788 14.0434 6.38221 14.1113 6.42463C14.1791 6.46704 14.1654 6.61148 14.0806 6.74724Z" fill="#F7FCFF"/>
<path fill-rule="evenodd" clip-rule="evenodd" d="M9.76901 3.79235C9.80942 3.82177 9.85919 3.83913 9.91301 3.83913C10.0483 3.83913 10.1579 3.72947 10.1579 3.5942C10.1579 3.45893 10.0483 3.34927 9.91301 3.34927C9.81708 3.34927 9.73403 3.40442 9.69384 3.48475C9.65342 3.45532 9.60366 3.43796 9.54984 3.43796C9.46354 3.43796 9.38767 3.48259 9.34404 3.55003C9.30172 3.51515 9.24749 3.4942 9.18837 3.4942C9.0531 3.4942 8.94344 3.60386 8.94344 3.73913C8.94344 3.74667 8.94378 3.75413 8.94445 3.7615C8.89956 3.70575 8.83074 3.67008 8.75359 3.67008C8.63099 3.67008 8.52942 3.76016 8.51148 3.87775C8.46663 3.8207 8.397 3.78406 8.31881 3.78406C8.20126 3.78406 8.10306 3.86686 8.07934 3.97732C8.03912 3.94837 7.98976 3.93132 7.93642 3.93132C7.82788 3.93132 7.73583 4.00192 7.70369 4.0997C7.67073 4.0832 7.63354 4.07391 7.59417 4.07391C7.47332 4.07391 7.37291 4.16144 7.35288 4.27656C7.33718 4.2734 7.32094 4.27175 7.30431 4.27175C7.17033 4.27175 7.06148 4.37932 7.05942 4.51281C7.04484 4.51011 7.02981 4.50869 7.01446 4.50869C6.87919 4.50869 6.76953 4.61835 6.76953 4.75362C6.76953 4.77077 6.77129 4.78751 6.77465 4.80367C6.75849 4.80031 6.74175 4.79855 6.7246 4.79855C6.58933 4.79855 6.47968 4.90821 6.47968 5.04348C6.47968 5.14625 6.54298 5.23424 6.63271 5.27058C6.62742 5.29061 6.6246 5.31164 6.6246 5.33333C6.6246 5.43611 6.6879 5.52409 6.77764 5.56044C6.77235 5.58047 6.76953 5.6015 6.76953 5.62319C6.76953 5.75524 6.87404 5.86289 7.00486 5.86793C6.94969 5.91284 6.91446 5.98129 6.91446 6.05797C6.91446 6.19324 7.02412 6.3029 7.15939 6.3029C7.29466 6.3029 7.40431 6.19324 7.40431 6.05797C7.40431 5.92591 7.2998 5.81827 7.16898 5.81323C7.22415 5.76832 7.25939 5.69987 7.25939 5.62319C7.25939 5.52041 7.19609 5.43242 7.10635 5.39608C7.11164 5.37605 7.11446 5.35502 7.11446 5.33333C7.11446 5.23056 7.05116 5.14257 6.96142 5.10622C6.96671 5.0862 6.96953 5.06517 6.96953 5.04348C6.96953 5.02633 6.96777 5.00959 6.96441 4.99343C6.98057 4.99679 6.99731 4.99855 7.01446 4.99855C7.14844 4.99855 7.25729 4.89097 7.25936 4.75749C7.27393 4.76019 7.28896 4.7616 7.30431 4.7616C7.42517 4.7616 7.52557 4.67407 7.54561 4.55895C7.5613 4.56211 7.57754 4.56377 7.59417 4.56377C7.70271 4.56377 7.79476 4.49317 7.8269 4.39538C7.85986 4.41189 7.89705 4.42117 7.93642 4.42117C7.99016 4.42117 8.03985 4.40387 8.08024 4.37453C8.08785 4.40728 8.10204 4.43752 8.12134 4.46377C8.0915 4.50435 8.07388 4.55446 8.07388 4.60869C8.07388 4.74075 8.17839 4.8484 8.30921 4.85344C8.25404 4.89835 8.21881 4.9668 8.21881 5.04348C8.21881 5.14625 8.28211 5.23424 8.37184 5.27058C8.36655 5.29061 8.36373 5.31164 8.36373 5.33333C8.36373 5.43611 8.42703 5.52409 8.51677 5.56044C8.51148 5.58047 8.50866 5.6015 8.50866 5.62319C8.50866 5.75846 8.61832 5.86811 8.75359 5.86811C8.88886 5.86811 8.99852 5.75846 8.99852 5.62319C8.99852 5.52041 8.93522 5.43242 8.84548 5.39608C8.85077 5.37605 8.85359 5.35502 8.85359 5.33333C8.85359 5.23056 8.79029 5.14257 8.70055 5.10622C8.70584 5.0862 8.70866 5.06517 8.70866 5.04348C8.70866 4.91142 8.60415 4.80377 8.47333 4.79873C8.5285 4.75382 8.56373 4.68537 8.56373 4.60869C8.56373 4.55446 8.54611 4.50435 8.51627 4.46377C8.54611 4.42318 8.56373 4.37307 8.56373 4.31884C8.56373 4.26461 8.54611 4.21449 8.51627 4.17391C8.53914 4.14281 8.55483 4.10611 8.56092 4.06624C8.60576 4.12329 8.6754 4.15993 8.75359 4.15993C8.88886 4.15993 8.99852 4.05028 8.99852 3.91501C8.99852 3.90747 8.99817 3.9 8.99751 3.89264C9.0424 3.94839 9.11122 3.98406 9.18837 3.98406C9.27467 3.98406 9.35054 3.93943 9.39417 3.87199C9.43649 3.90687 9.49071 3.92782 9.54984 3.92782C9.64577 3.92782 9.72881 3.87267 9.76901 3.79235ZM8.31881 4.27391C8.39984 4.27391 8.47169 4.23455 8.51627 4.17391C8.47169 4.11327 8.39984 4.07391 8.31881 4.07391C8.34362 4.07391 8.36373 4.0538 8.36373 4.02898C8.36373 4.00417 8.34362 3.98406 8.31881 3.98406C8.29399 3.98406 8.27388 4.00417 8.27388 4.02898C8.27388 4.0538 8.29399 4.07391 8.31881 4.07391C8.26507 4.07391 8.21537 4.09122 8.17499 4.12056C8.16136 4.06193 8.12668 4.01138 8.07934 3.97732C8.07576 3.99397 8.07388 4.01126 8.07388 4.02898C8.07388 4.08321 8.0915 4.13333 8.12134 4.17391C8.0915 4.21449 8.07388 4.26461 8.07388 4.31884C8.07388 4.338 8.07608 4.35664 8.08024 4.37453C8.12819 4.33969 8.16301 4.28788 8.17589 4.22791C8.21611 4.25686 8.26547 4.27391 8.31881 4.27391ZM8.31881 4.36377C8.23777 4.36377 8.16592 4.40312 8.12134 4.46377C8.16592 4.52441 8.23777 4.56377 8.31881 4.56377C8.29399 4.56377 8.27388 4.58388 8.27388 4.60869C8.27388 4.63351 8.29399 4.65362 8.31881 4.65362C8.34362 4.65362 8.36373 4.63351 8.36373 4.60869C8.36373 4.58388 8.34362 4.56377 8.31881 4.56377C8.39984 4.56377 8.47169 4.52441 8.51627 4.46377C8.47169 4.40312 8.39984 4.36377 8.31881 4.36377ZM8.31881 4.36377C8.34362 4.36377 8.36373 4.34365 8.36373 4.31884C8.36373 4.29403 8.34362 4.27391 8.31881 4.27391C8.29399 4.27391 8.27388 4.29403 8.27388 4.31884C8.27388 4.34365 8.29399 4.36377 8.31881 4.36377ZM8.17589 4.22791C8.155 4.21288 8.13658 4.19464 8.12134 4.17391C8.13636 4.15348 8.15447 4.13547 8.17499 4.12056C8.17915 4.13845 8.18135 4.15709 8.18135 4.17625C8.18135 4.19397 8.17947 4.21126 8.17589 4.22791ZM8.84548 5.39608C8.8171 5.38459 8.78608 5.37826 8.75359 5.37826C8.64001 5.37826 8.54449 5.45557 8.51677 5.56044C8.54515 5.57193 8.57616 5.57826 8.60866 5.57826C8.72224 5.57826 8.81776 5.50095 8.84548 5.39608ZM8.70055 5.10622C8.67217 5.09473 8.64116 5.0884 8.60866 5.0884C8.49508 5.0884 8.39956 5.16571 8.37184 5.27058C8.40022 5.28208 8.43124 5.2884 8.46373 5.2884C8.57731 5.2884 8.67284 5.21109 8.70055 5.10622ZM8.47333 4.79873L8.46373 4.79855C8.40514 4.79855 8.35136 4.81912 8.30921 4.85344L8.31881 4.85362C8.3774 4.85362 8.43118 4.83305 8.47333 4.79873ZM7.16898 5.81323L7.15939 5.81304C7.1008 5.81304 7.04701 5.83361 7.00486 5.86793L7.01446 5.86811C7.07305 5.86811 7.12683 5.84754 7.16898 5.81323ZM7.10635 5.39608C7.07863 5.50095 6.98311 5.57826 6.86953 5.57826C6.83703 5.57826 6.80602 5.57193 6.77764 5.56044C6.80536 5.45557 6.90088 5.37826 7.01446 5.37826C7.04695 5.37826 7.07797 5.38459 7.10635 5.39608ZM6.96142 5.10622C6.93371 5.21109 6.83818 5.2884 6.7246 5.2884C6.69211 5.2884 6.66109 5.28208 6.63271 5.27058C6.66043 5.16571 6.75595 5.0884 6.86953 5.0884C6.90203 5.0884 6.93304 5.09473 6.96142 5.10622ZM6.77465 4.80367C6.79439 4.89878 6.8693 4.97369 6.96441 4.99343C6.94467 4.89832 6.86976 4.82341 6.77465 4.80367ZM7.25936 4.75749C7.14556 4.73637 7.05939 4.63659 7.05939 4.51668L7.05942 4.51281C7.17321 4.53392 7.25939 4.63371 7.25939 4.75362L7.25936 4.75749ZM7.54561 4.55895C7.4336 4.53642 7.34924 4.43748 7.34924 4.31884C7.34924 4.30442 7.35049 4.2903 7.35288 4.27656C7.46488 4.29909 7.54924 4.39803 7.54924 4.51668C7.54924 4.53109 7.54799 4.54522 7.54561 4.55895ZM7.8269 4.39538C7.74661 4.35518 7.69149 4.27215 7.69149 4.17625C7.69149 4.14952 7.69578 4.12379 7.70369 4.0997C7.78398 4.13991 7.8391 4.22294 7.8391 4.31884C7.8391 4.34557 7.83481 4.3713 7.8269 4.39538ZM8.56092 4.06624C8.52818 4.0246 8.50866 3.97208 8.50866 3.91501C8.50866 3.90234 8.50962 3.8899 8.51148 3.87775C8.54421 3.91939 8.56373 3.97191 8.56373 4.02898C8.56373 4.04165 8.56277 4.05409 8.56092 4.06624ZM8.94445 3.7615C8.94892 3.81091 8.96807 3.85609 8.99751 3.89264C8.99303 3.84322 8.97388 3.79805 8.94445 3.7615ZM9.39417 3.87199C9.33966 3.82707 9.30491 3.75904 9.30491 3.68289C9.30491 3.63392 9.31928 3.5883 9.34404 3.55003C9.39855 3.59495 9.4333 3.66298 9.4333 3.73913C9.4333 3.7881 9.41892 3.83372 9.39417 3.87199ZM9.76901 3.79235C9.70784 3.74782 9.66808 3.67565 9.66808 3.5942C9.66808 3.55486 9.67736 3.51769 9.69384 3.48475C9.75501 3.52928 9.79476 3.60144 9.79476 3.68289C9.79476 3.72223 9.78549 3.75941 9.76901 3.79235ZM7.30431 4.5616C7.32913 4.5616 7.34924 4.54149 7.34924 4.51668C7.34924 4.49186 7.32913 4.47175 7.30431 4.47175C7.2795 4.47175 7.25939 4.49186 7.25939 4.51668C7.25939 4.54149 7.2795 4.5616 7.30431 4.5616ZM7.01446 4.79855C7.03927 4.79855 7.05939 4.77843 7.05939 4.75362C7.05939 4.72881 7.03927 4.70869 7.01446 4.70869C6.98965 4.70869 6.96953 4.72881 6.96953 4.75362C6.96953 4.77843 6.98965 4.79855 7.01446 4.79855ZM6.7246 5.0884C6.74942 5.0884 6.76953 5.06829 6.76953 5.04348C6.76953 5.01866 6.74942 4.99855 6.7246 4.99855C6.69979 4.99855 6.67968 5.01866 6.67968 5.04348C6.67968 5.06829 6.69979 5.0884 6.7246 5.0884ZM6.86953 5.37826C6.89434 5.37826 6.91446 5.35814 6.91446 5.33333C6.91446 5.30852 6.89434 5.2884 6.86953 5.2884C6.84472 5.2884 6.8246 5.30852 6.8246 5.33333C6.8246 5.35814 6.84472 5.37826 6.86953 5.37826ZM7.01446 5.66811C7.03927 5.66811 7.05939 5.648 7.05939 5.62319C7.05939 5.59837 7.03927 5.57826 7.01446 5.57826C6.98965 5.57826 6.96953 5.59837 6.96953 5.62319C6.96953 5.648 6.98965 5.66811 7.01446 5.66811ZM7.20431 6.05797C7.20431 6.08278 7.1842 6.1029 7.15939 6.1029C7.13457 6.1029 7.11446 6.08278 7.11446 6.05797C7.11446 6.03316 7.13457 6.01304 7.15939 6.01304C7.1842 6.01304 7.20431 6.03316 7.20431 6.05797ZM7.59417 4.36377C7.61898 4.36377 7.6391 4.34365 7.6391 4.31884C7.6391 4.29403 7.61898 4.27391 7.59417 4.27391C7.56936 4.27391 7.54924 4.29403 7.54924 4.31884C7.54924 4.34365 7.56936 4.36377 7.59417 4.36377ZM7.93642 4.22117C7.96123 4.22117 7.98135 4.20106 7.98135 4.17625C7.98135 4.15143 7.96123 4.13132 7.93642 4.13132C7.91161 4.13132 7.89149 4.15143 7.89149 4.17625C7.89149 4.20106 7.91161 4.22117 7.93642 4.22117ZM8.75359 3.95993C8.7784 3.95993 8.79852 3.93982 8.79852 3.91501C8.79852 3.89019 8.7784 3.87008 8.75359 3.87008C8.72878 3.87008 8.70866 3.89019 8.70866 3.91501C8.70866 3.93982 8.72878 3.95993 8.75359 3.95993ZM9.18837 3.78406C9.21318 3.78406 9.2333 3.76394 9.2333 3.73913C9.2333 3.71432 9.21318 3.6942 9.18837 3.6942C9.16356 3.6942 9.14344 3.71432 9.14344 3.73913C9.14344 3.76394 9.16356 3.78406 9.18837 3.78406ZM9.54984 3.72782C9.57465 3.72782 9.59476 3.7077 9.59476 3.68289C9.59476 3.65808 9.57465 3.63796 9.54984 3.63796C9.52502 3.63796 9.50491 3.65808 9.50491 3.68289C9.50491 3.7077 9.52502 3.72782 9.54984 3.72782ZM9.91301 3.63913C9.93782 3.63913 9.95794 3.61901 9.95794 3.5942C9.95794 3.56939 9.93782 3.54927 9.91301 3.54927C9.8882 3.54927 9.86808 3.56939 9.86808 3.5942C9.86808 3.61901 9.8882 3.63913 9.91301 3.63913ZM8.46373 5.0884C8.48855 5.0884 8.50866 5.06829 8.50866 5.04348C8.50866 5.01866 8.48855 4.99855 8.46373 4.99855C8.43892 4.99855 8.41881 5.01866 8.41881 5.04348C8.41881 5.06829 8.43892 5.0884 8.46373 5.0884ZM8.60866 5.37826C8.63347 5.37826 8.65359 5.35814 8.65359 5.33333C8.65359 5.30852 8.63347 5.2884 8.60866 5.2884C8.58385 5.2884 8.56373 5.30852 8.56373 5.33333C8.56373 5.35814 8.58385 5.37826 8.60866 5.37826ZM8.75359 5.66811C8.7784 5.66811 8.79852 5.648 8.79852 5.62319C8.79852 5.59837 8.7784 5.57826 8.75359 5.57826C8.72878 5.57826 8.70866 5.59837 8.70866 5.62319C8.70866 5.648 8.72878 5.66811 8.75359 5.66811ZM15.1304 6.1029C15.1552 6.1029 15.1753 6.08278 15.1753 6.05797C15.1753 6.03316 15.1552 6.01304 15.1304 6.01304C15.1056 6.01304 15.0855 6.03316 15.0855 6.05797C15.0855 6.08278 15.1056 6.1029 15.1304 6.1029ZM14.8855 6.05797C14.8855 6.19324 14.9951 6.3029 15.1304 6.3029C15.2657 6.3029 15.3753 6.19324 15.3753 6.05797C15.3753 5.98129 15.3401 5.91284 15.2849 5.86793C15.4157 5.86289 15.5203 5.75524 15.5203 5.62319C15.5203 5.6015 15.5174 5.58046 15.5121 5.56044C15.6019 5.52409 15.6652 5.43611 15.6652 5.33333C15.6652 5.31164 15.6624 5.29061 15.6571 5.27058C15.7468 5.23424 15.8101 5.14625 15.8101 5.04348C15.8101 4.90821 15.7005 4.79855 15.5652 4.79855C15.548 4.79855 15.5313 4.80031 15.5151 4.80367C15.5185 4.78751 15.5203 4.77077 15.5203 4.75362C15.5203 4.61835 15.4106 4.50869 15.2753 4.50869C15.26 4.50869 15.2449 4.51011 15.2304 4.51281C15.2283 4.37932 15.1195 4.27175 14.9855 4.27175C14.9688 4.27175 14.9526 4.2734 14.9369 4.27656C14.9169 4.16144 14.8165 4.07391 14.6956 4.07391C14.6562 4.07391 14.619 4.0832 14.5861 4.09971C14.5539 4.00192 14.4619 3.93132 14.3534 3.93132C14.3 3.93132 14.2507 3.94837 14.2104 3.97732C14.1867 3.86686 14.0885 3.78406 13.971 3.78406C13.8928 3.78406 13.8232 3.8207 13.7783 3.87775C13.7604 3.76016 13.6588 3.67008 13.5362 3.67008C13.459 3.67008 13.3902 3.70575 13.3453 3.7615C13.346 3.75413 13.3463 3.74667 13.3463 3.73913C13.3463 3.60386 13.2367 3.4942 13.1014 3.4942C13.0423 3.4942 12.9881 3.51515 12.9457 3.55003C12.9021 3.48259 12.8262 3.43796 12.7399 3.43796C12.6861 3.43796 12.6364 3.45532 12.5959 3.48475C12.5558 3.40442 12.4727 3.34927 12.3768 3.34927C12.2415 3.34927 12.1318 3.45893 12.1318 3.5942C12.1318 3.72947 12.2415 3.83913 12.3768 3.83913C12.4306 3.83913 12.4804 3.82177 12.5208 3.79234C12.561 3.87267 12.644 3.92782 12.7399 3.92782C12.7991 3.92782 12.8533 3.90687 12.8956 3.87199C12.9392 3.93943 13.0151 3.98406 13.1014 3.98406C13.1786 3.98406 13.2474 3.94839 13.2923 3.89264C13.2916 3.9 13.2913 3.90747 13.2913 3.91501C13.2913 4.05028 13.4009 4.15993 13.5362 4.15993C13.6144 4.15993 13.684 4.12329 13.7289 4.06624C13.735 4.10611 13.7506 4.14281 13.7735 4.17391C13.7437 4.21449 13.7261 4.26461 13.7261 4.31884C13.7261 4.37307 13.7437 4.42318 13.7735 4.46377C13.7437 4.50435 13.7261 4.55446 13.7261 4.60869C13.7261 4.68537 13.7613 4.75382 13.8165 4.79873C13.6856 4.80377 13.5811 4.91142 13.5811 5.04348C13.5811 5.06517 13.5839 5.0862 13.5892 5.10622C13.4995 5.14257 13.4362 5.23056 13.4362 5.33333C13.4362 5.35502 13.439 5.37605 13.4443 5.39608C13.3546 5.43242 13.2913 5.52041 13.2913 5.62319C13.2913 5.75846 13.4009 5.86811 13.5362 5.86811C13.6715 5.86811 13.7811 5.75846 13.7811 5.62319C13.7811 5.6015 13.7783 5.58047 13.773 5.56044C13.8628 5.52409 13.9261 5.43611 13.9261 5.33333C13.9261 5.31164 13.9232 5.29061 13.9179 5.27058C14.0077 5.23424 14.071 5.14625 14.071 5.04348C14.071 4.9668 14.0357 4.89835 13.9806 4.85344C14.1114 4.8484 14.2159 4.74075 14.2159 4.60869C14.2159 4.55446 14.1983 4.50435 14.1684 4.46377C14.1877 4.43752 14.2019 4.40728 14.2095 4.37453C14.2499 4.40387 14.2996 4.42117 14.3534 4.42117C14.3927 4.42117 14.4299 4.41189 14.4629 4.39538C14.495 4.49317 14.5871 4.56377 14.6956 4.56377C14.7122 4.56377 14.7285 4.56211 14.7442 4.55895C14.7642 4.67407 14.8646 4.7616 14.9855 4.7616C15.0008 4.7616 15.0159 4.76019 15.0304 4.75748C15.0325 4.89097 15.1413 4.99855 15.2753 4.99855C15.2925 4.99855 15.3092 4.99678 15.3254 4.99343C15.322 5.00959 15.3203 5.02632 15.3203 5.04348C15.3203 5.06517 15.3231 5.08619 15.3284 5.10622C15.2386 5.14257 15.1753 5.23056 15.1753 5.33333C15.1753 5.35502 15.1782 5.37605 15.1834 5.39608C15.0937 5.43242 15.0304 5.52041 15.0304 5.62319C15.0304 5.69987 15.0656 5.76832 15.1208 5.81323C14.99 5.81826 14.8855 5.92591 14.8855 6.05797ZM14.1139 4.22791C14.1268 4.28788 14.1616 4.33969 14.2095 4.37453C14.2137 4.35664 14.2159 4.338 14.2159 4.31884C14.2159 4.26461 14.1983 4.21449 14.1684 4.17391C14.1983 4.13333 14.2159 4.08321 14.2159 4.02898C14.2159 4.01126 14.214 3.99397 14.2104 3.97732C14.1631 4.01138 14.1284 4.06193 14.1148 4.12056C14.0744 4.09122 14.0247 4.07391 13.971 4.07391C13.9958 4.07391 14.0159 4.0538 14.0159 4.02898C14.0159 4.00417 13.9958 3.98406 13.971 3.98406C13.9462 3.98406 13.9261 4.00417 13.9261 4.02898C13.9261 4.0538 13.9462 4.07391 13.971 4.07391C13.8899 4.07391 13.8181 4.11327 13.7735 4.17391C13.8181 4.23455 13.8899 4.27391 13.971 4.27391C13.9462 4.27391 13.9261 4.29403 13.9261 4.31884C13.9261 4.34365 13.9462 4.36377 13.971 4.36377C13.8899 4.36377 13.8181 4.40312 13.7735 4.46377C13.8181 4.52441 13.8899 4.56377 13.971 4.56377C13.9462 4.56377 13.9261 4.58388 13.9261 4.60869C13.9261 4.63351 13.9462 4.65362 13.971 4.65362C13.9958 4.65362 14.0159 4.63351 14.0159 4.60869C14.0159 4.58388 13.9958 4.56377 13.971 4.56377C14.052 4.56377 14.1239 4.52441 14.1684 4.46377C14.1239 4.40312 14.052 4.36377 13.971 4.36377C13.9958 4.36377 14.0159 4.34365 14.0159 4.31884C14.0159 4.29403 13.9958 4.27391 13.971 4.27391C14.0243 4.27391 14.0737 4.25686 14.1139 4.22791ZM14.1139 4.22791C14.1348 4.21288 14.1532 4.19464 14.1684 4.17391C14.1534 4.15348 14.1353 4.13547 14.1148 4.12056C14.1106 4.13845 14.1084 4.15709 14.1084 4.17625C14.1084 4.19397 14.1103 4.21126 14.1139 4.22791ZM13.773 5.56044C13.7453 5.45557 13.6498 5.37826 13.5362 5.37826C13.5037 5.37826 13.4727 5.38459 13.4443 5.39608C13.472 5.50095 13.5675 5.57826 13.6811 5.57826C13.7136 5.57826 13.7446 5.57193 13.773 5.56044ZM13.9179 5.27058C13.8902 5.16571 13.7947 5.0884 13.6811 5.0884C13.6486 5.0884 13.6176 5.09473 13.5892 5.10622C13.6169 5.21109 13.7125 5.2884 13.8261 5.2884C13.8585 5.2884 13.8896 5.28208 13.9179 5.27058ZM13.9806 4.85344C13.9384 4.81912 13.8846 4.79855 13.8261 4.79855L13.8165 4.79873C13.8586 4.83305 13.9124 4.85362 13.971 4.85362L13.9806 4.85344ZM12.5208 3.79234C12.5819 3.74781 12.6217 3.67565 12.6217 3.5942C12.6217 3.55486 12.6124 3.51769 12.5959 3.48475C12.5348 3.52928 12.495 3.60144 12.495 3.68289C12.495 3.72223 12.5043 3.7594 12.5208 3.79234ZM12.8956 3.87199C12.9501 3.82707 12.9849 3.75904 12.9849 3.68289C12.9849 3.63392 12.9705 3.5883 12.9457 3.55003C12.8912 3.59495 12.8565 3.66298 12.8565 3.73913C12.8565 3.7881 12.8709 3.83372 12.8956 3.87199ZM13.3453 3.7615C13.3409 3.81091 13.3217 3.85609 13.2923 3.89264C13.2968 3.84322 13.3159 3.79805 13.3453 3.7615ZM13.7289 4.06624C13.7616 4.0246 13.7811 3.97208 13.7811 3.91501C13.7811 3.90234 13.7802 3.8899 13.7783 3.87775C13.7456 3.91939 13.7261 3.97191 13.7261 4.02898C13.7261 4.04165 13.727 4.05409 13.7289 4.06624ZM14.4629 4.39538C14.5432 4.35518 14.5983 4.27215 14.5983 4.17625C14.5983 4.14952 14.594 4.12379 14.5861 4.09971C14.5058 4.13991 14.4507 4.22294 14.4507 4.31884C14.4507 4.34557 14.455 4.3713 14.4629 4.39538ZM14.7442 4.55895C14.8562 4.53642 14.9405 4.43748 14.9405 4.31884C14.9405 4.30442 14.9393 4.2903 14.9369 4.27656C14.8249 4.29909 14.7405 4.39803 14.7405 4.51668C14.7405 4.53109 14.7418 4.54522 14.7442 4.55895ZM15.3254 4.99343C15.4205 4.97368 15.4954 4.89878 15.5151 4.80367C15.42 4.82341 15.3451 4.89832 15.3254 4.99343ZM15.2304 4.51281L15.2304 4.51668C15.2304 4.63659 15.1442 4.73637 15.0304 4.75748L15.0304 4.75362C15.0304 4.63371 15.1166 4.53392 15.2304 4.51281ZM15.3284 5.10622C15.3567 5.09473 15.3878 5.0884 15.4203 5.0884C15.5338 5.0884 15.6294 5.16571 15.6571 5.27058C15.6287 5.28207 15.5977 5.2884 15.5652 5.2884C15.4516 5.2884 15.3561 5.21109 15.3284 5.10622ZM15.1834 5.39608C15.2118 5.38459 15.2428 5.37826 15.2753 5.37826C15.3889 5.37826 15.4844 5.45557 15.5121 5.56044C15.4838 5.57193 15.4527 5.57826 15.4203 5.57826C15.3067 5.57826 15.2112 5.50094 15.1834 5.39608ZM15.2753 5.86811C15.2167 5.86811 15.163 5.84754 15.1208 5.81323L15.1304 5.81304C15.189 5.81304 15.2428 5.83361 15.2849 5.86793L15.2753 5.86811ZM15.2753 5.66811C15.3001 5.66811 15.3203 5.648 15.3203 5.62319C15.3203 5.59837 15.3001 5.57826 15.2753 5.57826C15.2505 5.57826 15.2304 5.59837 15.2304 5.62319C15.2304 5.648 15.2505 5.66811 15.2753 5.66811ZM15.4203 5.37826C15.4451 5.37826 15.4652 5.35814 15.4652 5.33333C15.4652 5.30852 15.4451 5.2884 15.4203 5.2884C15.3954 5.2884 15.3753 5.30852 15.3753 5.33333C15.3753 5.35814 15.3954 5.37826 15.4203 5.37826ZM15.5652 5.0884C15.59 5.0884 15.6101 5.06829 15.6101 5.04348C15.6101 5.01866 15.59 4.99855 15.5652 4.99855C15.5404 4.99855 15.5203 5.01866 15.5203 5.04348C15.5203 5.06829 15.5404 5.0884 15.5652 5.0884ZM15.2753 4.79855C15.3001 4.79855 15.3203 4.77843 15.3203 4.75362C15.3203 4.72881 15.3001 4.70869 15.2753 4.70869C15.2505 4.70869 15.2304 4.72881 15.2304 4.75362C15.2304 4.77843 15.2505 4.79855 15.2753 4.79855ZM14.9855 4.5616C15.0103 4.5616 15.0304 4.54149 15.0304 4.51668C15.0304 4.49186 15.0103 4.47175 14.9855 4.47175C14.9607 4.47175 14.9405 4.49186 14.9405 4.51668C14.9405 4.54149 14.9607 4.5616 14.9855 4.5616ZM14.6956 4.36377C14.7204 4.36377 14.7405 4.34365 14.7405 4.31884C14.7405 4.29403 14.7204 4.27391 14.6956 4.27391C14.6708 4.27391 14.6507 4.29403 14.6507 4.31884C14.6507 4.34365 14.6708 4.36377 14.6956 4.36377ZM14.3534 4.22117C14.3782 4.22117 14.3983 4.20106 14.3983 4.17625C14.3983 4.15143 14.3782 4.13132 14.3534 4.13132C14.3286 4.13132 14.3084 4.15143 14.3084 4.17625C14.3084 4.20106 14.3286 4.22117 14.3534 4.22117ZM13.5362 3.95993C13.561 3.95993 13.5811 3.93982 13.5811 3.91501C13.5811 3.89019 13.561 3.87008 13.5362 3.87008C13.5114 3.87008 13.4913 3.89019 13.4913 3.91501C13.4913 3.93982 13.5114 3.95993 13.5362 3.95993ZM13.1014 3.78406C13.1262 3.78406 13.1463 3.76394 13.1463 3.73913C13.1463 3.71432 13.1262 3.6942 13.1014 3.6942C13.0766 3.6942 13.0565 3.71432 13.0565 3.73913C13.0565 3.76394 13.0766 3.78406 13.1014 3.78406ZM12.7399 3.72782C12.7648 3.72782 12.7849 3.7077 12.7849 3.68289C12.7849 3.65808 12.7648 3.63796 12.7399 3.63796C12.7151 3.63796 12.695 3.65808 12.695 3.68289C12.695 3.7077 12.7151 3.72782 12.7399 3.72782ZM12.3768 3.63913C12.4016 3.63913 12.4217 3.61901 12.4217 3.5942C12.4217 3.56939 12.4016 3.54927 12.3768 3.54927C12.352 3.54927 12.3318 3.56939 12.3318 3.5942C12.3318 3.61901 12.352 3.63913 12.3768 3.63913ZM13.8261 5.0884C13.8509 5.0884 13.871 5.06829 13.871 5.04348C13.871 5.01866 13.8509 4.99855 13.8261 4.99855C13.8012 4.99855 13.7811 5.01866 13.7811 5.04348C13.7811 5.06829 13.8012 5.0884 13.8261 5.0884ZM13.6811 5.37826C13.7059 5.37826 13.7261 5.35814 13.7261 5.33333C13.7261 5.30852 13.7059 5.2884 13.6811 5.2884C13.6563 5.2884 13.6362 5.30852 13.6362 5.33333C13.6362 5.35814 13.6563 5.37826 13.6811 5.37826ZM13.5362 5.66811C13.561 5.66811 13.5811 5.648 13.5811 5.62319C13.5811 5.59837 13.561 5.57826 13.5362 5.57826C13.5114 5.57826 13.4913 5.59837 13.4913 5.62319C13.4913 5.648 13.5114 5.66811 13.5362 5.66811Z" fill="white"/>
<path fill-rule="evenodd" clip-rule="evenodd" d="M11.1016 2.15411L10.8868 2.15762L10.8871 2.51074L10.4906 2.51052L10.4953 2.7249L10.8873 2.72512L10.8878 3.1276L11.1026 3.12408L11.1022 2.72524L11.4923 2.72546L11.4876 2.51108L11.102 2.51086L11.1016 2.15411Z" fill="#F6C540"/>
<path fill-rule="evenodd" clip-rule="evenodd" d="M5.78473 8.73414H16.1847V17.5676C16.1847 17.5676 15.8702 21.9677 10.9847 21.9677C6.09923 21.9677 5.78473 17.5676 5.78473 17.5676V8.73414Z" fill="#C51918"/>
<path fill-rule="evenodd" clip-rule="evenodd" d="M8.92354 9.03982C8.82817 9.03982 8.68137 9.10831 8.48678 9.18587C8.29219 9.26343 8.08784 9.43088 8.28731 9.5986C8.48678 9.76632 8.77234 10.1344 8.77234 9.99679C8.77234 9.85916 9.11346 9.72572 9.11346 9.79244C9.11346 9.85916 9.00785 9.99679 9.28488 9.99679C9.56191 9.99679 9.70464 10.0786 9.40905 10.0786C9.11346 10.0786 9.08134 10.2139 8.88924 10.2139C8.69714 10.2139 8.28731 10.0776 8.28731 9.99679C8.28731 9.91596 8.52465 10.3942 8.77234 10.3942C9.02003 10.3942 9.16072 10.6269 9.28488 10.5105C9.40905 10.3942 9.39435 10.3942 9.59495 10.3942C9.79555 10.3942 9.72234 9.92433 9.72234 9.92433C9.72234 9.92433 9.0189 9.03982 8.92354 9.03982Z" fill="#E8AA00"/>
<path fill-rule="evenodd" clip-rule="evenodd" d="M12.937 9.03982C13.0324 9.03982 13.1792 9.10831 13.3738 9.18587C13.5683 9.26343 13.7727 9.43088 13.5732 9.5986C13.3738 9.76632 13.0882 10.1344 13.0882 9.99679C13.0882 9.85916 12.7471 9.72572 12.7471 9.79244C12.7471 9.85916 12.8527 9.99679 12.5757 9.99679C12.2986 9.99679 12.1559 10.0786 12.4515 10.0786C12.7471 10.0786 12.7792 10.2139 12.9713 10.2139C13.1634 10.2139 13.5732 10.0776 13.5732 9.99679C13.5732 9.91596 13.3359 10.3942 13.0882 10.3942C12.8405 10.3942 12.6998 10.6269 12.5757 10.5105C12.4515 10.3942 12.4662 10.3942 12.2656 10.3942C12.065 10.3942 12.1382 9.92433 12.1382 9.92433C12.1382 9.92433 12.8416 9.03982 12.937 9.03982Z" fill="#E8AA00"/>
<path fill-rule="evenodd" clip-rule="evenodd" d="M7.50055 10.0002C7.30119 10.4651 8.82911 12.1922 8.82911 12.1922H9.00019C9.07208 12.1922 9.2058 12.0153 9.36726 11.8017C9.47791 11.6553 9.60159 11.4917 9.72733 11.3559C9.96388 11.1006 9.83851 10.8861 9.72165 10.6861C9.68575 10.6247 9.65065 10.5647 9.62709 10.5052C9.57606 10.3764 9.5688 10.3251 9.5605 10.2664C9.5525 10.2098 9.54354 10.1464 9.49343 10.0002C9.41979 9.78531 9.16306 9.5081 8.98504 9.31589C8.9163 9.24167 8.8593 9.18012 8.82911 9.13973C8.7338 9.01222 8.80611 9.01296 9.00506 9.015C9.03236 9.01527 9.06204 9.01558 9.094 9.01558C9.35889 9.01558 9.86491 9.13973 10.0162 9.28472C10.1674 9.42972 10.326 9.46065 10.5591 9.46065C10.7921 9.46065 10.6484 9.61759 10.4361 9.72357C10.6647 9.76726 10.7682 10.1482 10.8152 10.4864C10.9013 10.1482 11.0478 9.76726 11.2763 9.72357C11.064 9.61759 10.9203 9.46065 11.1534 9.46065C11.3864 9.46065 11.545 9.42972 11.6963 9.28472C11.8475 9.13973 12.3535 9.01558 12.6184 9.01558C12.6504 9.01558 12.6801 9.01527 12.7074 9.015C12.9063 9.01296 12.9786 9.01222 12.8833 9.13973C12.8531 9.18012 12.7961 9.24167 12.7274 9.31589C12.5494 9.5081 12.2926 9.78531 12.219 10.0002C12.1689 10.1464 12.1599 10.2098 12.1519 10.2664C12.1436 10.3251 12.1364 10.3764 12.0853 10.5052C12.0618 10.5647 12.0267 10.6247 11.9908 10.6861C11.8739 10.8861 11.7485 11.1006 11.9851 11.3559C12.1108 11.4917 12.2345 11.6553 12.3452 11.8017C12.5066 12.0153 12.6403 12.1922 12.7122 12.1922H12.8833C12.8833 12.1922 14.4112 10.4651 14.2119 10.0002C14.1348 9.82046 14.0105 9.65112 13.9077 9.51099C13.7444 9.28858 13.6352 9.13973 13.8544 9.13973C14.2119 9.13973 15.6367 10.0432 15.6367 12.0804C15.6367 14.1177 15.5051 15.2763 15.1996 16.088C14.9911 16.642 15.1821 17.1799 15.3244 17.5809C15.3906 17.7674 15.4463 17.9243 15.4463 18.0394C15.4463 18.4016 14.8853 18.0842 14.8853 17.8574C14.8853 17.7495 14.8085 17.9102 14.728 18.0786C14.6391 18.2644 14.5457 18.4597 14.5457 18.3151C14.5457 18.1608 14.4563 17.9979 14.3775 17.8543C14.3155 17.7413 14.26 17.6403 14.26 17.565C14.26 17.4898 14.1813 17.4926 14.0933 17.4957C13.9814 17.4996 13.8544 17.5041 13.8544 17.3499C13.8544 17.2458 13.814 17.225 13.7637 17.1991C13.6808 17.1564 13.5709 17.0999 13.5709 16.6331C13.5709 16.2871 13.5017 16.4097 13.4222 16.5503C13.3491 16.6797 13.2674 16.8244 13.223 16.6331C13.2187 16.6145 13.1728 16.5343 13.1161 16.4351C13.0335 16.2908 12.928 16.1063 12.8942 16.0132C12.8904 15.9982 12.8867 15.9832 12.8833 15.9682C12.8833 15.9785 12.8872 15.9939 12.8942 16.0132C12.9983 16.4206 13.248 16.8452 13.4065 17.0475C13.5709 17.2572 13.8544 17.7125 13.8544 17.7125C13.8544 17.7125 13.5901 17.8599 13.4065 17.7125C13.304 17.6301 13.2971 17.7076 13.2896 17.7921C13.2836 17.8588 13.2773 17.9299 13.223 17.9299C13.189 17.9299 13.1569 17.9355 13.1284 17.9404C13.1072 17.9441 13.088 17.9474 13.0713 17.9479C13.0382 17.8636 13.0033 17.8065 13.0033 17.8574C13.0033 17.9324 13.0292 17.9492 13.0713 17.9479C13.1326 18.104 13.1876 18.3535 13.0033 18.1868C12.8716 18.0677 12.7793 18.0194 12.7182 17.9874C12.6475 17.9503 12.6184 17.9351 12.6184 17.8574C12.6184 17.7798 12.5897 17.8061 12.5446 17.8473C12.5055 17.883 12.4542 17.9299 12.3987 17.9299C12.3272 17.9299 12.3124 17.8304 12.2907 17.6856C12.2762 17.5886 12.2587 17.4712 12.219 17.3499C12.2097 17.3216 12.2011 17.2944 12.1928 17.2687C12.113 17.0189 12.0758 16.9024 11.9851 17.2175C11.9427 17.3647 11.8678 17.469 11.8026 17.5598C11.7138 17.6833 11.643 17.7819 11.6963 17.9299C11.7171 17.9879 11.7432 18.0534 11.7712 18.1235C11.8673 18.3641 11.9851 18.6592 11.9851 18.8916C11.9851 19.0298 12.1108 19.2181 12.229 19.395C12.3676 19.6025 12.4957 19.7943 12.3987 19.8716C12.219 20.0148 12.4365 20.4971 12.6184 20.7445C12.8004 20.9919 12.7703 21.294 12.4946 21.294C12.3438 21.294 12.2619 21.3487 12.1878 21.3983C12.1265 21.4393 12.0705 21.4768 11.9851 21.4768C11.7964 21.4768 11.6963 21.3837 11.6963 21.3837C11.6963 21.3837 11.5798 21.5598 11.3864 21.5598C11.193 21.5598 11.1534 21.3837 11.1534 21.3837L10.7134 21.5598V20.789L10.7023 21.5598L10.5591 21.3837C10.5591 21.3837 10.5194 21.5598 10.326 21.5598C10.1326 21.5598 10.0162 21.3837 10.0162 21.3837C10.0162 21.3837 9.91597 21.4768 9.72733 21.4768C9.64193 21.4768 9.58592 21.4393 9.5246 21.3983C9.45049 21.3487 9.36864 21.294 9.21779 21.294C8.94216 21.294 8.91207 20.9919 9.094 20.7445C9.27593 20.4971 9.49343 20.0148 9.31369 19.8716C9.21671 19.7943 9.34484 19.6025 9.48338 19.395C9.60157 19.2181 9.72733 19.0298 9.72733 18.8916C9.72733 18.6592 9.84514 18.3641 9.94119 18.1235C9.96918 18.0534 9.99532 17.9879 10.0162 17.9299C10.0694 17.7819 9.99857 17.6833 9.90984 17.5598C9.84462 17.469 9.76974 17.3647 9.72733 17.2175C9.63661 16.9024 9.59939 17.0189 9.51958 17.2687C9.51135 17.2944 9.50267 17.3216 9.49343 17.3499C9.45376 17.4712 9.43621 17.5886 9.4217 17.6856C9.40006 17.8304 9.38517 17.9299 9.31369 17.9299C9.25822 17.9299 9.20687 17.883 9.16779 17.8473C9.12275 17.8061 9.094 17.7798 9.094 17.8574C9.094 17.9351 9.06497 17.9503 8.99421 17.9874C8.93307 18.0194 8.84078 18.0677 8.70916 18.1868C8.52486 18.3535 8.57981 18.104 8.64108 17.9479C8.68318 17.9492 8.70916 17.9324 8.70916 17.8574C8.70916 17.8065 8.6742 17.8636 8.64108 17.9479C8.6244 17.9474 8.60519 17.9441 8.58406 17.9404C8.55551 17.9355 8.52344 17.9299 8.48939 17.9299C8.43515 17.9299 8.4288 17.8588 8.42284 17.7921C8.4153 17.7076 8.40838 17.6301 8.30588 17.7125C8.12237 17.8599 7.85798 17.7125 7.85798 17.7125C7.85798 17.7125 8.14147 17.2572 8.30588 17.0475C8.46444 16.8452 8.71414 16.4206 8.81822 16.0132C8.8252 15.9939 8.82911 15.9785 8.82911 15.9682C8.82568 15.9832 8.82205 15.9982 8.81822 16.0132C8.78446 16.1063 8.67892 16.2908 8.59634 16.4351C8.5396 16.5343 8.4937 16.6145 8.48939 16.6331C8.44506 16.8244 8.36331 16.6797 8.29019 16.5503C8.21074 16.4097 8.14147 16.2871 8.14147 16.6331C8.14147 17.0999 8.03162 17.1564 7.94868 17.1991C7.89838 17.225 7.85798 17.2458 7.85798 17.3499C7.85798 17.5041 7.73102 17.4996 7.61916 17.4957C7.53109 17.4926 7.4524 17.4898 7.4524 17.565C7.4524 17.6403 7.39696 17.7413 7.33493 17.8543C7.25613 17.9979 7.16669 18.1608 7.16669 18.3151C7.16669 18.4597 7.0733 18.2644 6.98447 18.0786C6.9039 17.9102 6.82708 17.7495 6.82708 17.8574C6.82708 18.0842 6.26608 18.4016 6.26608 18.0394C6.26608 17.9243 6.32178 17.7674 6.38801 17.5809C6.53034 17.1799 6.72131 16.642 6.51282 16.088C6.2073 15.2763 6.07568 14.1177 6.07568 12.0804C6.07568 10.0432 7.50055 9.13973 7.85798 9.13973C8.07726 9.13973 7.968 9.28858 7.80475 9.51099C7.7019 9.65112 7.57761 9.82046 7.50055 10.0002Z" fill="#F7FCFF"/>
<path fill-rule="evenodd" clip-rule="evenodd" d="M8.18865 19.2019C8.18865 19.0614 8.54818 18.7354 8.54818 18.7354V18.7631C8.59862 18.8039 8.91994 19.0688 8.91994 19.1983C8.91994 19.2787 8.87833 19.3952 8.84272 19.4949C8.81607 19.5696 8.79277 19.6348 8.79277 19.6685C8.79277 19.6911 8.80218 19.6749 8.82009 19.6439C8.86446 19.5674 8.96101 19.4007 9.09587 19.5121C9.2745 19.6597 9.27342 19.8773 9.27273 20.0152C9.27269 20.0234 9.27265 20.0314 9.27265 20.039C9.27265 20.082 9.27256 20.0817 9.26684 20.0612C9.25451 20.0171 9.21602 19.8795 9.09587 19.8795C8.91994 19.8795 8.79277 20.039 8.79277 20.039V20.311C8.79277 20.311 8.81508 20.5357 8.91994 20.4233C9.0248 20.311 9.04711 20.5619 8.91994 20.5619C8.85502 20.5619 8.78825 20.6308 8.72287 20.6983C8.66019 20.763 8.59879 20.8263 8.54156 20.8263V20.8037C8.48733 20.7995 8.44266 20.7437 8.39709 20.6868C8.34764 20.625 8.29713 20.5619 8.23221 20.5619C8.10504 20.5619 8.12736 20.311 8.23221 20.4233C8.33707 20.5357 8.35938 20.311 8.35938 20.311V20.039C8.35938 20.039 8.23221 19.8795 8.05629 19.8795C7.93614 19.8795 7.89764 20.0171 7.88531 20.0612C7.87959 20.0817 7.8795 20.082 7.8795 20.039C7.8795 20.0314 7.87946 20.0234 7.87942 20.0152C7.87874 19.8773 7.87765 19.6597 8.05629 19.5121C8.19114 19.4007 8.28769 19.5674 8.33206 19.6439C8.34997 19.6749 8.35938 19.6911 8.35938 19.6685C8.35938 19.6348 8.32811 19.5702 8.29233 19.4963C8.24451 19.3976 8.18865 19.2823 8.18865 19.2019Z" fill="#E8AA00"/>
<path fill-rule="evenodd" clip-rule="evenodd" d="M12.9713 19.2019C12.9713 19.0614 13.3308 18.7354 13.3308 18.7354V18.7631C13.3813 18.8039 13.7026 19.0688 13.7026 19.1983C13.7026 19.2787 13.661 19.3952 13.6254 19.4949C13.5987 19.5696 13.5754 19.6348 13.5754 19.6685C13.5754 19.6911 13.5848 19.6749 13.6027 19.6439C13.6471 19.5674 13.7437 19.4007 13.8785 19.5121C14.0572 19.6597 14.0561 19.8773 14.0554 20.0152C14.0553 20.0234 14.0553 20.0314 14.0553 20.039C14.0553 20.082 14.0552 20.0817 14.0495 20.0612C14.0372 20.0171 13.9987 19.8795 13.8785 19.8795C13.7026 19.8795 13.5754 20.039 13.5754 20.039V20.311C13.5754 20.311 13.5977 20.5357 13.7026 20.4233C13.8075 20.311 13.8298 20.5619 13.7026 20.5619C13.6377 20.5619 13.5709 20.6308 13.5055 20.6983C13.4428 20.763 13.3814 20.8263 13.3242 20.8263V20.8037C13.27 20.7995 13.2253 20.7437 13.1797 20.6868C13.1303 20.625 13.0798 20.5619 13.0149 20.5619C12.8877 20.5619 12.91 20.311 13.0149 20.4233C13.1197 20.5357 13.142 20.311 13.142 20.311V20.039C13.142 20.039 13.0149 19.8795 12.8389 19.8795C12.7188 19.8795 12.6803 20.0171 12.668 20.0612C12.6622 20.0817 12.6622 20.082 12.6622 20.039C12.6622 20.0314 12.6621 20.0234 12.6621 20.0152C12.6614 19.8773 12.6603 19.6597 12.8389 19.5121C12.9738 19.4007 13.0703 19.5674 13.1147 19.6439C13.1326 19.6749 13.142 19.6911 13.142 19.6685C13.142 19.6348 13.1108 19.5702 13.075 19.4963C13.0272 19.3976 12.9713 19.2823 12.9713 19.2019Z" fill="#E8AA00"/>
<path fill-rule="evenodd" clip-rule="evenodd" d="M7.83062 18.3593C8.15109 18.3593 8.21589 17.7498 8.21589 17.7498C8.21589 17.7498 8.48476 17.4711 8.48476 17.6766C8.48476 17.7862 8.40831 17.9243 8.35017 18.0293C8.29927 18.1212 8.26239 18.1878 8.3031 18.1878H8.74688C9.11278 18.1878 8.68263 18.3593 8.48476 18.4357C8.395 18.4704 8.33135 18.4885 8.27028 18.5059C8.19674 18.5268 8.12695 18.5467 8.01985 18.5931C7.82381 18.6781 7.73971 19.2373 7.83062 19.4169C7.92153 19.5965 7.73971 19.5207 7.66456 19.4169C7.62281 19.3593 7.59234 19.4386 7.54984 19.5494C7.51584 19.6379 7.47414 19.7466 7.41281 19.8211C7.29436 19.9651 7.29563 19.8379 7.29836 19.5639C7.29881 19.5187 7.2993 19.4695 7.2993 19.4169C7.2993 19.1741 7.34776 19.1719 7.41985 19.1687C7.45809 19.167 7.50297 19.165 7.5508 19.1266C7.65409 19.0437 7.66649 19.001 7.69771 18.8936C7.7082 18.8575 7.72081 18.8141 7.73971 18.7594C7.81485 18.5419 7.41281 18.8857 7.2993 19.0485C7.23018 19.1477 7.18204 19.1585 7.11003 19.1747C7.06378 19.1851 7.00768 19.1977 6.92986 19.2373C6.80336 19.3018 6.83769 19.1752 6.87949 19.0209C6.90345 18.9326 6.92986 18.8351 6.92986 18.7594C6.92986 18.6288 7.00842 18.6623 7.1091 18.7053C7.16865 18.7307 7.23595 18.7594 7.2993 18.7594C7.4612 18.7594 7.54481 18.691 7.64801 18.6066C7.65347 18.6022 7.65898 18.5977 7.66456 18.5931C7.74737 18.5257 7.56699 18.546 7.35218 18.5703C7.27871 18.5786 7.20122 18.5873 7.12885 18.5931C6.96366 18.6064 6.95263 18.5965 6.91139 18.5594C6.88173 18.5327 6.83645 18.492 6.707 18.4357C6.39752 18.3012 6.90594 18.3593 7.12885 18.4357C7.2528 18.4782 7.3568 18.4498 7.47982 18.4162C7.57802 18.3894 7.68835 18.3593 7.83062 18.3593ZM14.0455 18.3593C13.725 18.3593 13.6602 17.7498 13.6602 17.7498C13.6602 17.7498 13.3914 17.4711 13.3914 17.6766C13.3914 17.7862 13.4678 17.9243 13.526 18.0293C13.5769 18.1212 13.6137 18.1878 13.573 18.1878H13.1293C12.7633 18.1878 13.1935 18.3593 13.3914 18.4357C13.4811 18.4704 13.5448 18.4885 13.6059 18.5059C13.6794 18.5268 13.7492 18.5467 13.8563 18.5931C14.0523 18.6781 14.1364 19.2373 14.0455 19.4169C13.9546 19.5965 14.1364 19.5207 14.2116 19.4169C14.2533 19.3593 14.2838 19.4386 14.3263 19.5494C14.3603 19.6379 14.402 19.7466 14.4633 19.8211C14.5818 19.9651 14.5805 19.8379 14.5778 19.5639C14.5773 19.5187 14.5768 19.4695 14.5768 19.4169C14.5768 19.1741 14.5284 19.1719 14.4563 19.1687C14.418 19.167 14.3732 19.165 14.3253 19.1266C14.222 19.0437 14.2096 19.001 14.1784 18.8936C14.1679 18.8575 14.1553 18.8141 14.1364 18.7594C14.0613 18.5419 14.4633 18.8857 14.5768 19.0485C14.646 19.1477 14.6941 19.1585 14.7661 19.1747C14.8124 19.1851 14.8685 19.1977 14.9463 19.2373C15.0728 19.3018 15.0384 19.1752 14.9966 19.0209C14.9727 18.9326 14.9463 18.8351 14.9463 18.7594C14.9463 18.6288 14.8677 18.6623 14.767 18.7053C14.7075 18.7307 14.6402 18.7594 14.5768 18.7594C14.4149 18.7594 14.3313 18.691 14.2281 18.6066C14.2227 18.6022 14.2172 18.5977 14.2116 18.5931C14.1288 18.5257 14.3091 18.546 14.524 18.5703C14.5974 18.5786 14.6749 18.5873 14.7473 18.5931C14.9125 18.6064 14.9235 18.5965 14.9647 18.5594C14.9944 18.5327 15.0397 18.492 15.1691 18.4357C15.4786 18.3012 14.9702 18.3593 14.7473 18.4357C14.6233 18.4782 14.5193 18.4498 14.3963 18.4162C14.2981 18.3894 14.1878 18.3593 14.0455 18.3593Z" fill="#E8AA00"/>
<path fill-rule="evenodd" clip-rule="evenodd" d="M9.047 12.3412H12.9225V15.8755C12.9225 15.8755 12.5065 17.636 10.9848 17.636C9.46304 17.636 9.047 15.8755 9.047 15.8755V12.3412Z" fill="#C51918"/>
<path fill-rule="evenodd" clip-rule="evenodd" d="M11.5072 12.2899H10.4927V14.3188H9.04346V15.0435H10.4927V17.6522H11.5072V15.0435H12.9565V14.3188H11.5072V12.2899Z" fill="#F7FCFF"/>
<path fill-rule="evenodd" clip-rule="evenodd" d="M9.70081 13.3088C9.79809 13.3088 9.8445 13.2268 9.79305 13.1545C9.766 13.1166 9.70996 13.1056 9.66787 13.13C9.6641 13.1322 9.66056 13.1346 9.65727 13.1372C9.64178 13.1333 9.62284 13.128 9.60101 13.1213C9.58142 13.1153 9.56015 13.1156 9.54073 13.122C9.5172 13.1298 9.50385 13.1057 9.51519 12.9558C9.52602 12.914 9.58333 12.8881 9.71685 12.8881C9.96082 12.8881 10.0611 12.9142 10.0611 12.9372V13.2957L9.94265 13.4025C9.88559 13.454 9.92601 13.5421 10.0067 13.5421H10.0611V13.8166C9.98661 13.8746 9.92007 13.9017 9.86178 13.9017C9.64353 13.9017 9.52091 13.8204 9.51753 13.7243C9.51846 13.6962 9.51973 13.6754 9.52066 13.6613C9.52628 13.663 9.53255 13.665 9.53946 13.6674C9.55943 13.6743 9.58147 13.6747 9.60168 13.6683L9.60998 13.6656C9.61779 13.6629 9.62232 13.6614 9.62486 13.663C9.62836 13.6653 9.62802 13.6735 9.62721 13.6933L9.62721 13.6933L9.62721 13.6933C9.62691 13.7006 9.62655 13.7094 9.62629 13.7201C9.6252 13.7653 9.66486 13.8026 9.71487 13.8036C9.76489 13.8046 9.80632 13.7688 9.80741 13.7237C9.81123 13.5653 9.72242 13.4743 9.575 13.5053C9.48801 13.4792 9.42716 13.4822 9.37969 13.5359C9.34482 13.5753 9.34015 13.6076 9.33645 13.7244C9.34317 13.925 9.55466 14.0652 9.86178 14.0652C9.98017 14.0652 10.0975 14.0123 10.2142 13.9118C10.2321 13.8964 10.2422 13.875 10.2422 13.8527V13.4603C10.2422 13.4339 10.2283 13.4104 10.2067 13.3954L10.2157 13.3873C10.2327 13.372 10.2422 13.3512 10.2422 13.3295V12.9372C10.2422 12.7696 10.0694 12.7246 9.71685 12.7246C9.50907 12.7246 9.37314 12.786 9.33667 12.9311C9.31611 13.1789 9.38956 13.3268 9.57111 13.2846C9.62728 13.3007 9.66886 13.3088 9.70081 13.3088ZM12.2462 13.1545C12.1948 13.2268 12.2412 13.3088 12.3385 13.3088C12.3704 13.3088 12.412 13.3007 12.4682 13.2846C12.6497 13.3268 12.7232 13.1789 12.7026 12.9311C12.6661 12.786 12.5302 12.7246 12.3224 12.7246C11.9699 12.7246 11.7971 12.7696 11.7971 12.9372V13.3295C11.7971 13.3512 11.8066 13.372 11.8236 13.3873L11.8326 13.3954C11.811 13.4104 11.7971 13.4339 11.7971 13.4603V13.8527C11.7971 13.875 11.8072 13.8964 11.8251 13.9118C11.9418 14.0123 12.0591 14.0652 12.1775 14.0652C12.4846 14.0652 12.6961 13.925 12.7028 13.7244C12.6991 13.6076 12.6945 13.5753 12.6596 13.5359C12.6121 13.4822 12.5513 13.4792 12.4643 13.5053C12.3169 13.4743 12.2281 13.5653 12.2319 13.7237C12.233 13.7688 12.2744 13.8046 12.3244 13.8036C12.3744 13.8026 12.4141 13.7653 12.413 13.7201C12.4127 13.7094 12.4124 13.7006 12.4121 13.6933C12.4113 13.6735 12.4109 13.6653 12.4144 13.663C12.417 13.6614 12.4215 13.6629 12.4293 13.6656L12.4376 13.6683C12.4578 13.6747 12.4799 13.6743 12.4998 13.6674C12.5067 13.665 12.513 13.663 12.5186 13.6613C12.5196 13.6754 12.5208 13.6962 12.5218 13.7243C12.5184 13.8204 12.3958 13.9017 12.1775 13.9017C12.1192 13.9017 12.0527 13.8746 11.9782 13.8166V13.5421H12.0326C12.1133 13.5421 12.1537 13.454 12.0966 13.4025L11.9782 13.2957V12.9372C11.9782 12.9142 12.0785 12.8881 12.3224 12.8881C12.456 12.8881 12.5133 12.914 12.5241 12.9558C12.5354 13.1057 12.5221 13.1298 12.4986 13.122C12.4791 13.1156 12.4579 13.1153 12.4383 13.1213C12.4165 13.128 12.3975 13.1333 12.382 13.1372C12.3787 13.1346 12.3752 13.1322 12.3714 13.13C12.3293 13.1056 12.2733 13.1166 12.2462 13.1545ZM12.5515 13.654L12.5476 13.6538L12.5502 13.6541L12.5515 13.654ZM12.3385 15.9175C12.2412 15.9175 12.1948 15.8355 12.2462 15.7632C12.2733 15.7253 12.3293 15.7143 12.3714 15.7387C12.3752 15.7409 12.3787 15.7433 12.382 15.7459C12.3975 15.742 12.4165 15.7367 12.4383 15.73C12.4579 15.724 12.4791 15.7243 12.4986 15.7307C12.5221 15.7385 12.5354 15.7144 12.5241 15.5645C12.5133 15.5227 12.456 15.4968 12.3224 15.4968C12.0785 15.4968 11.9782 15.5229 11.9782 15.5459V15.9044L12.0966 16.0112C12.1537 16.0627 12.1133 16.1508 12.0326 16.1508H11.9782V16.4253C12.0527 16.4833 12.1192 16.5104 12.1775 16.5104C12.3958 16.5104 12.5184 16.4291 12.5218 16.333C12.5208 16.3049 12.5196 16.2841 12.5186 16.27C12.513 16.2717 12.5067 16.2737 12.4998 16.2761C12.4799 16.283 12.4578 16.2834 12.4376 16.277L12.4293 16.2743C12.4215 16.2716 12.417 16.2701 12.4144 16.2717C12.4109 16.274 12.4113 16.2822 12.4121 16.302C12.4124 16.3093 12.4127 16.3181 12.413 16.3288C12.4141 16.3739 12.3744 16.4113 12.3244 16.4123C12.2744 16.4133 12.233 16.3775 12.2319 16.3324C12.2281 16.174 12.3169 16.083 12.4643 16.114C12.5513 16.0879 12.6121 16.0909 12.6596 16.1446C12.6945 16.184 12.6991 16.2163 12.7028 16.3331C12.6961 16.5337 12.4846 16.6739 12.1775 16.6739C12.0591 16.6739 11.9418 16.621 11.8251 16.5205C11.8072 16.5051 11.7971 16.4837 11.7971 16.4614V16.069C11.7971 16.0426 11.811 16.0191 11.8326 16.0041L11.8236 15.996C11.8066 15.9807 11.7971 15.9599 11.7971 15.9382V15.5459C11.7971 15.3783 11.9699 15.3333 12.3224 15.3333C12.5302 15.3333 12.6661 15.3947 12.7026 15.5398C12.7232 15.7876 12.6497 15.9355 12.4682 15.8933C12.412 15.9094 12.3704 15.9175 12.3385 15.9175ZM9.70081 15.9175C9.79809 15.9175 9.8445 15.8355 9.79305 15.7632C9.766 15.7253 9.70996 15.7143 9.66787 15.7387C9.6641 15.7409 9.66056 15.7433 9.65727 15.7459C9.64178 15.742 9.62284 15.7367 9.60101 15.73C9.58142 15.724 9.56015 15.7243 9.54073 15.7307C9.5172 15.7385 9.50385 15.7144 9.51519 15.5645C9.52602 15.5227 9.58333 15.4968 9.71685 15.4968C9.96082 15.4968 10.0611 15.5229 10.0611 15.5459V15.9044L9.94265 16.0112C9.88559 16.0627 9.92601 16.1508 10.0067 16.1508H10.0611V16.4253C9.98661 16.4833 9.92007 16.5104 9.86178 16.5104C9.64353 16.5104 9.52091 16.4291 9.51753 16.333C9.51846 16.3049 9.51973 16.2841 9.52066 16.27C9.52628 16.2717 9.53255 16.2737 9.53946 16.2761C9.55943 16.283 9.58147 16.2834 9.60168 16.277C9.60479 16.276 9.60755 16.2751 9.60998 16.2743C9.61779 16.2716 9.62232 16.2701 9.62486 16.2717C9.62836 16.274 9.62802 16.2822 9.62721 16.302C9.62691 16.3093 9.62655 16.3181 9.62629 16.3288C9.6252 16.3739 9.66486 16.4113 9.71487 16.4123C9.76489 16.4133 9.80632 16.3775 9.80741 16.3324C9.81123 16.174 9.72242 16.083 9.575 16.114C9.48801 16.0879 9.42716 16.0909 9.37969 16.1446C9.34482 16.184 9.34015 16.2163 9.33645 16.3331C9.34317 16.5337 9.55466 16.6739 9.86178 16.6739C9.98017 16.6739 10.0975 16.621 10.2142 16.5205C10.2321 16.5051 10.2422 16.4837 10.2422 16.4614V16.069C10.2422 16.0426 10.2283 16.0191 10.2067 16.0041L10.2157 15.996C10.2327 15.9807 10.2422 15.9599 10.2422 15.9382V15.5459C10.2422 15.3783 10.0694 15.3333 9.71685 15.3333C9.50907 15.3333 9.37314 15.3947 9.33667 15.5398C9.31611 15.7876 9.38956 15.9355 9.57111 15.8933C9.62728 15.9094 9.66886 15.9175 9.70081 15.9175Z" fill="#F7FCFF"/>
</g>
</g>
</svg>
