<svg width="32" height="24" viewBox="0 0 32 24" fill="none" xmlns="http://www.w3.org/2000/svg">
<mask id="mask0_270_67411" style="mask-type:luminance" maskUnits="userSpaceOnUse" x="0" y="0" width="32" height="24">
<rect width="32" height="24" fill="white"/>
</mask>
<g mask="url(#mask0_270_67411)">
<path fill-rule="evenodd" clip-rule="evenodd" d="M0 0V24H32V0H0Z" fill="#F7FCFF"/>
<mask id="mask1_270_67411" style="mask-type:luminance" maskUnits="userSpaceOnUse" x="0" y="0" width="32" height="24">
<path fill-rule="evenodd" clip-rule="evenodd" d="M0 0V24H32V0H0Z" fill="white"/>
</mask>
<g mask="url(#mask1_270_67411)">
<rect y="2" width="32" height="3" fill="#2E42A5"/>
<rect y="8" width="32" height="3" fill="#2E42A5"/>
<rect y="14" width="32" height="3" fill="#2E42A5"/>
<rect y="19" width="32" height="3" fill="#2E42A5"/>
<rect width="14" height="14" fill="#F7FCFF"/>
<path fill-rule="evenodd" clip-rule="evenodd" d="M4.78251 2.58223C4.70922 2.57731 4.64524 2.63221 4.6396 2.70485C4.61218 3.05799 4.92303 3.37903 5.09512 3.55677L5.11209 3.57431C5.13927 3.60245 5.16711 3.63025 5.20199 3.66431C5.20197 3.66429 5.28337 3.74331 5.30565 3.76534C5.4551 3.91314 5.4875 4.05157 5.52386 4.207L5.53287 4.24523C5.5486 4.31109 5.56477 4.39071 5.58253 4.47814L5.58254 4.47815C5.66125 4.86562 5.77112 5.40643 6.01112 5.58273C6.0699 5.6259 6.48171 5.3694 6.52584 5.31078C6.54141 5.2901 6.58744 5.25588 6.63792 5.21834L6.63793 5.21834C6.73055 5.14948 6.83816 5.06947 6.80012 5.04152C6.54881 4.85692 6.3579 4.40952 6.10986 3.76534C5.97743 3.46204 5.63065 3.26924 5.34288 3.10925C5.09708 2.97259 4.89434 2.85987 4.90499 2.72266C4.91063 2.65002 4.85579 2.58715 4.78251 2.58223ZM8.8298 2.68166C8.79402 2.61752 8.71313 2.59376 8.64913 2.62859C8.33803 2.79793 8.23808 3.23348 8.18275 3.47461L8.17728 3.4984C8.16848 3.53652 8.16033 3.57501 8.15076 3.62281C8.15077 3.62279 8.12883 3.73409 8.12249 3.76477C8.07993 3.97061 7.98148 4.07317 7.87093 4.18833L7.84377 4.2167C7.79711 4.26575 7.73915 4.32268 7.67551 4.38518L7.67549 4.3852L7.67548 4.38521C7.3934 4.66226 6.99967 5.04895 6.98253 5.34625C6.97833 5.41906 7.41774 5.62473 7.49094 5.62982C7.51676 5.63161 7.57054 5.65157 7.62951 5.67347C7.73771 5.71365 7.86342 5.76032 7.86614 5.7132C7.88409 5.40189 8.15533 4.99811 8.56049 4.43923C8.74274 4.16298 8.71556 3.76714 8.69301 3.43866C8.67375 3.15809 8.65787 2.92666 8.77874 2.86087C8.84273 2.82603 8.86559 2.7458 8.8298 2.68166ZM11.4161 5.03056C11.4866 5.04873 11.5296 5.12127 11.512 5.19259C11.4945 5.26391 11.423 5.30699 11.3525 5.28882C11.2192 5.25451 11.073 5.4346 10.8957 5.65293C10.6882 5.90855 10.4381 6.21658 10.1164 6.29433C9.43892 6.42674 8.96518 6.53706 8.73974 6.7525C8.70561 6.78511 8.64551 6.66524 8.59377 6.56207L8.59377 6.56206L8.59377 6.56206C8.56557 6.50582 8.53986 6.45455 8.5222 6.43563C8.47213 6.38199 8.29103 5.93189 8.34376 5.88151C8.55905 5.67577 9.11073 5.66148 9.50599 5.65124L9.506 5.65124C9.59518 5.64893 9.6764 5.64683 9.74399 5.64278L9.7832 5.64054C9.94258 5.63172 10.0845 5.62386 10.256 5.50234C10.2812 5.48452 10.3705 5.41996 10.3735 5.41785L10.3735 5.4178C10.4131 5.38936 10.4453 5.36677 10.4778 5.34489L10.498 5.33123C10.7029 5.19261 11.0731 4.94223 11.4161 5.03056ZM2.3228 5.47382C2.2675 5.52217 2.26108 5.60623 2.30846 5.66158C2.53878 5.93068 2.98559 5.93788 3.23296 5.94187C3.24133 5.94201 3.24947 5.94214 3.25736 5.94228C3.29648 5.94296 3.33583 5.94293 3.38457 5.94235C3.38454 5.94235 3.49798 5.94066 3.5293 5.94049C3.7395 5.93932 3.86029 6.0143 3.99591 6.09849C4.00693 6.10533 4.01804 6.11223 4.02931 6.11915C4.087 6.15461 4.15474 6.19947 4.22912 6.24873C4.55877 6.46705 5.01887 6.77178 5.31324 6.72673C5.38533 6.7157 5.49515 6.24313 5.4849 6.17047C5.48129 6.14484 5.48964 6.08809 5.49879 6.02586C5.51559 5.91166 5.53511 5.779 5.48845 5.78614C5.18021 5.8333 4.72886 5.65194 4.09797 5.37183C3.78986 5.251 3.40832 5.35988 3.0917 5.45023C2.82127 5.52741 2.5982 5.59107 2.50871 5.48651C2.46134 5.43116 2.3781 5.42548 2.3228 5.47382Z" fill="#FFC125"/>
<path d="M4.6396 2.70485L4.56482 2.69904V2.69904L4.6396 2.70485ZM4.78251 2.58223L4.77748 2.65706V2.65706L4.78251 2.58223ZM5.09512 3.55677L5.14903 3.50462L5.149 3.5046L5.09512 3.55677ZM5.11209 3.57431L5.16604 3.52221L5.166 3.52216L5.11209 3.57431ZM5.20199 3.66431L5.14959 3.71797L5.25468 3.61094L5.20199 3.66431ZM5.30565 3.76534L5.25291 3.81867L5.25291 3.81867L5.30565 3.76534ZM5.52386 4.207L5.45084 4.22409L5.45086 4.2242L5.52386 4.207ZM5.53287 4.24523L5.45987 4.26243L5.45992 4.26265L5.53287 4.24523ZM5.58253 4.47814L5.5089 4.4931L5.51007 4.49747L5.58253 4.47814ZM5.58254 4.47815L5.65617 4.46319L5.655 4.45882L5.58254 4.47815ZM6.01112 5.58273L5.96672 5.64317H5.96672L6.01112 5.58273ZM6.52584 5.31078L6.58576 5.35589V5.35589L6.52584 5.31078ZM6.63792 5.21834L6.59626 5.15586L6.59317 5.15816L6.63792 5.21834ZM6.63793 5.21834L6.67958 5.28083L6.68267 5.27853L6.63793 5.21834ZM6.80012 5.04152L6.75572 5.10197V5.10197L6.80012 5.04152ZM6.10986 3.76534L6.17992 3.73836L6.17859 3.73533L6.10986 3.76534ZM5.34288 3.10925L5.30644 3.1748V3.1748L5.34288 3.10925ZM4.90499 2.72266L4.83021 2.71686V2.71686L4.90499 2.72266ZM8.64913 2.62859L8.61328 2.56271V2.56271L8.64913 2.62859ZM8.8298 2.68166L8.8953 2.64511V2.64511L8.8298 2.68166ZM8.18275 3.47461L8.25584 3.49142L8.25585 3.49139L8.18275 3.47461ZM8.17728 3.4984L8.25036 3.51527L8.25037 3.5152L8.17728 3.4984ZM8.15076 3.62281L8.07722 3.60809L8.22424 3.63785L8.15076 3.62281ZM8.12249 3.76477L8.19594 3.77995L8.19594 3.77995L8.12249 3.76477ZM7.87093 4.18833L7.81682 4.13639L7.81675 4.13647L7.87093 4.18833ZM7.84377 4.2167L7.78959 4.16484L7.78943 4.16501L7.84377 4.2167ZM7.67551 4.38518L7.62296 4.33167L7.62293 4.3317L7.67551 4.38518ZM7.67549 4.3852L7.72756 4.43919L7.72808 4.43868L7.67549 4.3852ZM7.67548 4.38521L7.62342 4.33122L7.62293 4.3317L7.67548 4.38521ZM6.98253 5.34625L7.0574 5.35056V5.35056L6.98253 5.34625ZM7.49094 5.62982L7.48574 5.70463V5.70463L7.49094 5.62982ZM7.62951 5.67347L7.65562 5.60316V5.60316L7.62951 5.67347ZM7.86614 5.7132L7.79127 5.70888V5.70888L7.86614 5.7132ZM8.56049 4.43923L8.62127 4.4833L8.6231 4.48053L8.56049 4.43923ZM8.69301 3.43866L8.76784 3.43352V3.43352L8.69301 3.43866ZM8.77874 2.86087L8.74288 2.79499V2.79499L8.77874 2.86087ZM11.4161 5.03056L11.4348 4.95793V4.95793L11.4161 5.03056ZM11.3525 5.28882L11.3338 5.36145V5.36145L11.3525 5.28882ZM10.8957 5.65293L10.8375 5.60566V5.60566L10.8957 5.65293ZM10.1164 6.29433L10.1308 6.36801L10.134 6.36723L10.1164 6.29433ZM8.73974 6.7525L8.68792 6.69827H8.68792L8.73974 6.7525ZM8.59377 6.56207L8.52389 6.59002L8.52673 6.59568L8.59377 6.56207ZM8.59377 6.56206L8.66365 6.53411L8.66085 6.52852L8.59377 6.56206ZM8.59377 6.56206L8.66085 6.52852L8.66081 6.52844L8.59377 6.56206ZM8.5222 6.43563L8.46737 6.4868V6.4868L8.5222 6.43563ZM8.34376 5.88151L8.39558 5.93573V5.93573L8.34376 5.88151ZM9.50599 5.65124L9.50793 5.72622L9.50887 5.72618L9.50599 5.65124ZM9.506 5.65124L9.50406 5.57626L9.50312 5.57629L9.506 5.65124ZM9.74399 5.64278L9.73973 5.5679L9.7395 5.56791L9.74399 5.64278ZM9.7832 5.64054L9.77905 5.56566L9.77894 5.56567L9.7832 5.64054ZM10.256 5.50234L10.2127 5.44114V5.44114L10.256 5.50234ZM10.3735 5.41785L10.3296 5.35701L10.3295 5.35706L10.3735 5.41785ZM10.3735 5.4178L10.3298 5.35688L10.3297 5.35696L10.3735 5.4178ZM10.4778 5.34489L10.5197 5.40707L10.5198 5.40703L10.4778 5.34489ZM10.498 5.33123L10.54 5.39337L10.54 5.39335L10.498 5.33123ZM2.30846 5.66158L2.36544 5.61281H2.36544L2.30846 5.66158ZM2.3228 5.47382L2.37217 5.53029L2.37217 5.53029L2.3228 5.47382ZM3.23296 5.94187L3.23175 6.01686H3.23175L3.23296 5.94187ZM3.25736 5.94228L3.25867 5.86729H3.25867L3.25736 5.94228ZM3.38457 5.94235L3.38546 6.01734L3.38389 5.86735L3.38457 5.94235ZM3.5293 5.94049L3.52972 6.01549H3.52972L3.5293 5.94049ZM3.99591 6.09849L3.95635 6.16221L3.95636 6.16221L3.99591 6.09849ZM4.02931 6.11915L4.06858 6.05525L4.06858 6.05525L4.02931 6.11915ZM4.22912 6.24873L4.18771 6.31126V6.31126L4.22912 6.24873ZM5.31324 6.72673L5.32458 6.80087H5.32458L5.31324 6.72673ZM5.4849 6.17047L5.55917 6.16V6.16L5.4849 6.17047ZM5.49879 6.02586L5.42459 6.01494V6.01494L5.49879 6.02586ZM5.48845 5.78614L5.4998 5.86027V5.86027L5.48845 5.78614ZM4.09797 5.37183L4.12843 5.30322L4.12535 5.30201L4.09797 5.37183ZM3.0917 5.45023L3.11228 5.52235H3.11228L3.0917 5.45023ZM2.50871 5.48651L2.56569 5.43774H2.56569L2.50871 5.48651ZM4.71437 2.71066C4.71679 2.67957 4.74466 2.65486 4.77748 2.65706L4.78753 2.5074C4.67378 2.49977 4.57369 2.58485 4.56482 2.69904L4.71437 2.71066ZM5.149 3.5046C5.06252 3.41528 4.94667 3.29536 4.85533 3.15557C4.7637 3.01532 4.7025 2.86361 4.71437 2.71066L4.56482 2.69904C4.54928 2.89924 4.62979 3.08461 4.72975 3.23761C4.83001 3.39106 4.95563 3.52052 5.04124 3.60894L5.149 3.5046ZM5.166 3.52216L5.14903 3.50462L5.04122 3.60892L5.05819 3.62646L5.166 3.52216ZM5.25439 3.61065C5.21984 3.57691 5.19255 3.54966 5.16604 3.52221L5.05814 3.62641C5.08599 3.65525 5.11439 3.68359 5.14959 3.71797L5.25439 3.61065ZM5.35838 3.71201C5.34698 3.70073 5.32081 3.67523 5.29776 3.6528C5.28618 3.64153 5.27529 3.63096 5.26731 3.6232C5.26332 3.61932 5.26005 3.61614 5.25778 3.61394C5.25664 3.61284 5.25575 3.61198 5.25515 3.61139C5.25485 3.6111 5.25462 3.61087 5.25446 3.61072C5.25439 3.61065 5.25433 3.61059 5.25429 3.61055C5.25427 3.61053 5.25425 3.61052 5.25424 3.61051C5.25423 3.6105 5.25423 3.61049 5.25422 3.61049C5.25422 3.61048 5.25421 3.61048 5.2542 3.61047C5.25419 3.61046 5.14837 3.61188 5.1493 3.71769L5.25468 3.61094C5.25562 3.71675 5.1498 3.71817 5.14978 3.71815C5.14978 3.71815 5.14977 3.71814 5.14977 3.71814C5.14977 3.71814 5.14977 3.71814 5.14977 3.71815C5.14978 3.71815 5.14979 3.71817 5.14981 3.71819C5.14985 3.71822 5.14991 3.71828 5.14998 3.71835C5.15014 3.7185 5.15037 3.71872 5.15066 3.71901C5.15126 3.71959 5.15215 3.72045 5.15328 3.72155C5.15554 3.72375 5.1588 3.72692 5.16279 3.73079C5.17075 3.73853 5.18161 3.74908 5.19316 3.76031C5.21638 3.7829 5.24204 3.80792 5.25291 3.81867L5.35838 3.71201ZM5.59689 4.18992C5.56017 4.03296 5.52411 3.8759 5.35838 3.71201L5.25291 3.81867C5.3861 3.95038 5.41482 4.07018 5.45084 4.22409L5.59689 4.18992ZM5.60587 4.22803L5.59687 4.1898L5.45086 4.2242L5.45987 4.26243L5.60587 4.22803ZM5.65603 4.46321C5.63835 4.37618 5.62191 4.29518 5.60582 4.22781L5.45992 4.26265C5.47529 4.32701 5.49119 4.40524 5.50904 4.49307L5.65603 4.46321ZM5.655 4.45882L5.655 4.45882L5.51007 4.49747L5.51007 4.49747L5.655 4.45882ZM6.05552 5.52228C5.95637 5.44944 5.87471 5.29127 5.80763 5.0863C5.74191 4.88548 5.69556 4.65777 5.65603 4.46321L5.50904 4.49308C5.54823 4.68599 5.59617 4.92242 5.66507 5.13295C5.73261 5.33933 5.82588 5.53971 5.96672 5.64317L6.05552 5.52228ZM6.46592 5.26567C6.46659 5.26478 6.46201 5.27012 6.44647 5.28261C6.43274 5.29365 6.41437 5.3072 6.39241 5.32238C6.34858 5.35269 6.29297 5.38775 6.23682 5.41978C6.18026 5.45203 6.12534 5.47995 6.08245 5.49699C6.06068 5.50564 6.04499 5.51027 6.03526 5.51198C6.03042 5.51284 6.02967 5.51249 6.03183 5.51265C6.0335 5.51278 6.04384 5.5137 6.05552 5.52228L5.96672 5.64317C5.98574 5.65715 6.00619 5.66113 6.02038 5.66221C6.03505 5.66334 6.04922 5.66184 6.06134 5.6597C6.08556 5.65542 6.11204 5.64664 6.13782 5.6364C6.19006 5.61565 6.25187 5.58388 6.31113 5.55008C6.37079 5.51605 6.43008 5.47869 6.47771 5.44577C6.50149 5.42933 6.52299 5.41356 6.54045 5.39952C6.55612 5.38693 6.57406 5.37143 6.58576 5.35589L6.46592 5.26567ZM6.59317 5.15816C6.56826 5.17668 6.54294 5.19549 6.5219 5.21235C6.50277 5.22767 6.48015 5.24677 6.46592 5.26567L6.58576 5.35589C6.58561 5.35608 6.58755 5.35364 6.59357 5.34811C6.59914 5.343 6.60649 5.33678 6.61568 5.32942C6.63417 5.31461 6.6571 5.29754 6.68267 5.27853L6.59317 5.15816ZM6.59632 5.15594L6.59632 5.15594L6.67952 5.28075L6.67953 5.28075L6.59632 5.15594ZM6.75572 5.10197C6.74512 5.09418 6.73514 5.08011 6.73327 5.06204C6.73176 5.04748 6.73644 5.03838 6.73663 5.038C6.73664 5.03798 6.73216 5.04518 6.71631 5.06026C6.68663 5.08852 6.64081 5.12274 6.59318 5.15815L6.68267 5.27853C6.72767 5.24508 6.78197 5.20486 6.81973 5.16891C6.83761 5.15189 6.85869 5.12954 6.87108 5.10451C6.87745 5.09162 6.88502 5.07115 6.88247 5.04659C6.87957 5.01854 6.86463 4.99585 6.84452 4.98108L6.75572 5.10197ZM6.03987 3.79229C6.16379 4.11415 6.27481 4.3905 6.38698 4.60991C6.49852 4.82808 6.61557 4.99902 6.75572 5.10197L6.84452 4.98108C6.73336 4.89942 6.6293 4.75436 6.52054 4.54163C6.41242 4.33015 6.30396 4.06072 6.17985 3.73839L6.03987 3.79229ZM5.30644 3.1748C5.45114 3.25525 5.60496 3.34091 5.73916 3.4432C5.87331 3.54545 5.98208 3.66012 6.04112 3.79535L6.17859 3.73533C6.1052 3.56725 5.97436 3.43387 5.83008 3.3239C5.68585 3.21396 5.52239 3.12324 5.37933 3.0437L5.30644 3.1748ZM4.83021 2.71686C4.82167 2.82687 4.8996 2.91136 4.98166 2.97531C5.06735 3.0421 5.18537 3.10749 5.30644 3.1748L5.37933 3.0437C5.25459 2.97435 5.14835 2.91505 5.07387 2.857C4.99577 2.79613 4.97765 2.75566 4.97976 2.72847L4.83021 2.71686ZM4.77748 2.65706C4.80972 2.65923 4.83258 2.6864 4.83021 2.71686L4.97976 2.72847C4.98868 2.61365 4.90187 2.51507 4.78753 2.5074L4.77748 2.65706ZM8.68499 2.69446C8.71238 2.67955 8.74828 2.68947 8.76431 2.7182L8.8953 2.64511C8.83975 2.54556 8.71388 2.50796 8.61328 2.56271L8.68499 2.69446ZM8.25585 3.49139C8.28366 3.37021 8.32113 3.20773 8.38863 3.05499C8.45634 2.90176 8.55025 2.7678 8.68499 2.69446L8.61328 2.56271C8.43691 2.65871 8.3253 2.8272 8.25143 2.99436C8.17734 3.16202 8.13718 3.33788 8.10965 3.45784L8.25585 3.49139ZM8.25037 3.5152L8.25584 3.49142L8.10966 3.4578L8.10419 3.48159L8.25037 3.5152ZM8.2243 3.63753C8.23378 3.59018 8.24178 3.55245 8.25036 3.51527L8.1042 3.48153C8.09519 3.52059 8.08688 3.55984 8.07722 3.60809L8.2243 3.63753ZM8.19594 3.77995C8.19918 3.76424 8.20632 3.7284 8.21257 3.69686C8.21572 3.68101 8.21866 3.66612 8.22082 3.6552C8.2219 3.64974 8.22278 3.64527 8.22339 3.64216C8.2237 3.64061 8.22394 3.6394 8.2241 3.63857C8.22418 3.63816 8.22424 3.63785 8.22428 3.63763C8.22431 3.63753 8.22432 3.63745 8.22433 3.63739C8.22434 3.63736 8.22434 3.63734 8.22435 3.63733C8.22435 3.63732 8.22435 3.63731 8.22435 3.6373C8.22435 3.6373 8.22435 3.63729 8.22435 3.63728C8.22436 3.63726 8.1655 3.54927 8.07729 3.60777L8.22424 3.63785C8.13603 3.69635 8.07717 3.60836 8.07717 3.60834C8.07717 3.60834 8.07717 3.60833 8.07717 3.60833C8.07717 3.60833 8.07717 3.60833 8.07717 3.60834C8.07717 3.60835 8.07717 3.60836 8.07716 3.60839C8.07715 3.60844 8.07714 3.60852 8.07712 3.60863C8.07708 3.60883 8.07701 3.60915 8.07693 3.60956C8.07677 3.61038 8.07653 3.61158 8.07623 3.61313C8.07562 3.61623 8.07474 3.62069 8.07366 3.62613C8.07151 3.63703 8.06857 3.65188 8.06544 3.66769C8.05914 3.69947 8.05214 3.73461 8.04904 3.74959L8.19594 3.77995ZM7.92503 4.24027C8.03666 4.12398 8.14875 4.0082 8.19594 3.77995L8.04904 3.74958C8.01112 3.93302 7.92629 4.02236 7.81682 4.13639L7.92503 4.24027ZM7.89796 4.26856L7.92511 4.24018L7.81675 4.13647L7.78959 4.16484L7.89796 4.26856ZM7.72807 4.43869C7.79141 4.37647 7.85038 4.31857 7.89811 4.26839L7.78943 4.16501C7.74383 4.21294 7.68689 4.26888 7.62296 4.33167L7.72807 4.43869ZM7.72808 4.43868L7.7281 4.43865L7.62293 4.3317L7.62291 4.33172L7.72808 4.43868ZM7.72754 4.4392L7.72755 4.43919L7.62343 4.33121L7.62342 4.33122L7.72754 4.4392ZM7.0574 5.35056C7.06449 5.22774 7.15267 5.0731 7.28804 4.90521C7.42066 4.74072 7.58639 4.57783 7.72804 4.43872L7.62293 4.3317C7.48249 4.46964 7.31031 4.63862 7.17127 4.81106C7.03497 4.9801 6.91771 5.16746 6.90765 5.34193L7.0574 5.35056ZM7.49614 5.555C7.49725 5.55507 7.49027 5.55414 7.47134 5.54791C7.4546 5.54241 7.43323 5.53438 7.40854 5.52423C7.35925 5.50397 7.29956 5.47644 7.24211 5.44678C7.18426 5.41692 7.13093 5.38607 7.09328 5.35937C7.07417 5.34582 7.06174 5.33519 7.05501 5.32797C7.05165 5.32437 7.05154 5.32355 7.05258 5.32545C7.05338 5.32692 7.05824 5.3361 7.0574 5.35056L6.90765 5.34193C6.90629 5.3655 6.91409 5.38481 6.92091 5.3973C6.92796 5.41022 6.93693 5.42129 6.94533 5.43029C6.9621 5.44827 6.98389 5.46569 7.00652 5.48174C7.05237 5.51425 7.11268 5.54878 7.17331 5.58007C7.23434 5.61158 7.29796 5.64096 7.35152 5.66297C7.37825 5.67396 7.40319 5.6834 7.42447 5.6904C7.44356 5.69668 7.46633 5.70329 7.48574 5.70463L7.49614 5.555ZM7.65562 5.60316C7.62651 5.59236 7.59694 5.58137 7.57135 5.5729C7.54807 5.5652 7.51973 5.55663 7.49614 5.555L7.48574 5.70463C7.4855 5.70462 7.4886 5.70492 7.49652 5.70695C7.50384 5.70884 7.51307 5.71161 7.52424 5.71531C7.54673 5.72275 7.57353 5.73269 7.6034 5.74378L7.65562 5.60316ZM7.79127 5.70888C7.79202 5.69576 7.79839 5.67972 7.81252 5.66831C7.82391 5.65911 7.83409 5.65808 7.83451 5.65803C7.83454 5.65803 7.82606 5.65819 7.80478 5.65312C7.76491 5.64361 7.71126 5.62382 7.65562 5.60316L7.6034 5.74378C7.65596 5.7633 7.71927 5.78693 7.76999 5.79903C7.794 5.80475 7.82422 5.81026 7.85196 5.80701C7.86624 5.80534 7.88753 5.80053 7.90674 5.78503C7.92869 5.76731 7.93958 5.74242 7.94102 5.71751L7.79127 5.70888ZM8.49977 4.39521C8.29734 4.67444 8.12603 4.91806 8.00311 5.13164C7.88088 5.34401 7.80128 5.53527 7.79127 5.70888L7.94102 5.71751C7.94896 5.57981 8.01394 5.41353 8.13311 5.20646C8.25159 5.00061 8.41848 4.7629 8.62121 4.48326L8.49977 4.39521ZM8.61819 3.4438C8.62953 3.60897 8.64146 3.78463 8.62876 3.95289C8.61607 4.12109 8.57914 4.27476 8.49789 4.39793L8.6231 4.48053C8.72409 4.32745 8.76469 4.14507 8.77834 3.96417C8.79198 3.78333 8.77905 3.59683 8.76784 3.43352L8.61819 3.4438ZM8.74288 2.79499C8.64596 2.84775 8.61755 2.95912 8.6086 3.06277C8.59926 3.171 8.6087 3.3056 8.61819 3.4438L8.76784 3.43352C8.75806 3.29114 8.74993 3.16974 8.75805 3.07567C8.76656 2.97701 8.79064 2.93978 8.81459 2.92674L8.74288 2.79499ZM8.76431 2.7182C8.78005 2.74641 8.76971 2.78039 8.74288 2.79499L8.81459 2.92674C8.91575 2.87168 8.95114 2.74519 8.8953 2.64511L8.76431 2.7182ZM11.5848 5.21053C11.6121 5.09984 11.5457 4.98649 11.4348 4.95793L11.3974 5.10319C11.4276 5.11096 11.4471 5.1427 11.4392 5.17465L11.5848 5.21053ZM11.3338 5.36145C11.4453 5.39017 11.5574 5.3218 11.5848 5.21053L11.4392 5.17465C11.4315 5.20601 11.4007 5.22381 11.3712 5.21619L11.3338 5.36145ZM10.9539 5.70021C11.0439 5.58941 11.1207 5.49508 11.1908 5.43181C11.2643 5.36547 11.3073 5.35466 11.3338 5.36145L11.3712 5.21619C11.2643 5.18868 11.1676 5.25075 11.0903 5.32046C11.0097 5.39324 10.9248 5.49812 10.8375 5.60566L10.9539 5.70021ZM10.134 6.36723C10.3123 6.32414 10.4664 6.21845 10.5997 6.09546C10.733 5.9725 10.8508 5.82729 10.9539 5.70021L10.8375 5.60566C10.7331 5.73419 10.622 5.8708 10.498 5.9852C10.374 6.09956 10.2422 6.18676 10.0988 6.22143L10.134 6.36723ZM8.79155 6.80672C8.89127 6.71143 9.0522 6.63413 9.28058 6.56397C9.50762 6.49422 9.7918 6.43419 10.1308 6.36793L10.102 6.22072C9.76352 6.28688 9.47209 6.34822 9.23653 6.42059C9.00231 6.49254 8.81364 6.57813 8.68792 6.69827L8.79155 6.80672ZM8.52673 6.59568C8.55186 6.6458 8.58204 6.70626 8.61088 6.74969C8.62454 6.77026 8.64288 6.7949 8.66539 6.81144C8.67697 6.81995 8.69582 6.83096 8.72044 6.83272C8.74858 6.83473 8.77352 6.82396 8.79155 6.80672L8.68792 6.69827C8.69743 6.68919 8.71302 6.68181 8.73114 6.6831C8.74574 6.68414 8.75389 6.69033 8.75423 6.69058C8.75425 6.69059 8.74794 6.68494 8.73583 6.66671C8.71316 6.63257 8.68742 6.58151 8.66081 6.52845L8.52673 6.59568ZM8.52413 6.58992L8.52413 6.58992L8.66341 6.53421L8.6634 6.53421L8.52413 6.58992ZM8.52668 6.5956L8.52669 6.5956L8.66085 6.52852L8.66085 6.52852L8.52668 6.5956ZM8.46737 6.4868C8.46721 6.48663 8.46927 6.48896 8.47367 6.49585C8.47774 6.50222 8.48259 6.51054 8.48824 6.52087C8.49962 6.54164 8.51244 6.56719 8.52672 6.59567L8.66081 6.52844C8.64689 6.50069 8.63276 6.47248 8.61982 6.44884C8.60805 6.42734 8.59317 6.40175 8.57703 6.38445L8.46737 6.4868ZM8.29195 5.82728C8.27488 5.84359 8.26741 5.86303 8.26388 5.87682C8.26022 5.89107 8.25924 5.90529 8.25924 5.9176C8.25924 5.94219 8.2633 5.96979 8.26891 5.99696C8.28027 6.05201 8.30082 6.11839 8.32382 6.18263C8.34697 6.24729 8.37346 6.31217 8.39762 6.36479C8.40968 6.39106 8.42147 6.41498 8.43227 6.43461C8.44195 6.45222 8.45409 6.47258 8.46737 6.4868L8.57703 6.38445C8.57779 6.38527 8.57332 6.37983 8.56372 6.36236C8.55523 6.34692 8.54508 6.32647 8.53394 6.30221C8.51171 6.25378 8.48683 6.19293 8.46504 6.13207C8.4431 6.07077 8.42514 6.01184 8.41581 5.96664C8.41107 5.94369 8.40924 5.92744 8.40924 5.91757C8.40924 5.91264 8.40972 5.91197 8.40918 5.91406C8.40876 5.9157 8.40605 5.92572 8.39558 5.93573L8.29195 5.82728ZM9.50404 5.57627C9.30726 5.58136 9.06609 5.58752 8.84679 5.61881C8.63182 5.64949 8.41829 5.70655 8.29195 5.82728L8.39558 5.93573C8.48453 5.85073 8.65448 5.79777 8.86798 5.76731C9.07716 5.73746 9.30946 5.73136 9.50793 5.72621L9.50404 5.57627ZM9.50312 5.57629L9.5031 5.5763L9.50887 5.72618L9.50889 5.72618L9.50312 5.57629ZM9.7395 5.56791C9.67345 5.57187 9.59365 5.57394 9.50406 5.57626L9.50795 5.72621C9.59671 5.72391 9.67934 5.72178 9.74847 5.71764L9.7395 5.56791ZM9.77894 5.56567L9.73973 5.5679L9.74825 5.71765L9.78746 5.71542L9.77894 5.56567ZM10.2127 5.44114C10.0598 5.54943 9.93688 5.55692 9.77905 5.56566L9.78734 5.71543C9.94829 5.70652 10.1092 5.69828 10.2994 5.56353L10.2127 5.44114ZM10.3295 5.35706C10.3264 5.35931 10.2375 5.42359 10.2127 5.44114L10.2994 5.56353C10.3249 5.54546 10.4147 5.4806 10.4174 5.47865L10.3295 5.35706ZM10.3297 5.35696L10.3296 5.35701L10.4173 5.47869L10.4174 5.47864L10.3297 5.35696ZM10.4358 5.28272C10.4026 5.30513 10.3698 5.32818 10.3298 5.35688L10.4173 5.47872C10.4565 5.45055 10.4881 5.42841 10.5197 5.40707L10.4358 5.28272ZM10.456 5.26909L10.4358 5.28275L10.5198 5.40703L10.54 5.39337L10.456 5.26909ZM11.4348 4.95793C11.2403 4.90785 11.0438 4.95496 10.8758 5.02683C10.7072 5.09892 10.5579 5.20015 10.456 5.2691L10.54 5.39335C10.643 5.32369 10.7812 5.23042 10.9348 5.16474C11.0888 5.09886 11.2488 5.06493 11.3974 5.10319L11.4348 4.95793ZM2.36544 5.61281C2.34516 5.58912 2.3474 5.55194 2.37217 5.53029L2.27344 5.41736C2.18761 5.49239 2.177 5.62333 2.25148 5.71035L2.36544 5.61281ZM3.23417 5.86688C3.10986 5.86488 2.94314 5.862 2.7797 5.82774C2.61574 5.79336 2.46519 5.72936 2.36544 5.61281L2.25148 5.71035C2.38204 5.8629 2.57006 5.93705 2.74892 5.97455C2.92832 6.01216 3.10869 6.01488 3.23175 6.01686L3.23417 5.86688ZM3.25867 5.86729C3.25072 5.86715 3.24253 5.86702 3.23417 5.86688L3.23175 6.01686C3.24013 6.017 3.24822 6.01713 3.25606 6.01727L3.25867 5.86729ZM3.38368 5.86735C3.33539 5.86793 3.29682 5.86795 3.25867 5.86729L3.25606 6.01727C3.29614 6.01797 3.33626 6.01793 3.38546 6.01734L3.38368 5.86735ZM3.52889 5.86549C3.51285 5.86558 3.4763 5.86605 3.44415 5.86649C3.42799 5.86671 3.41282 5.86693 3.40169 5.86709C3.39612 5.86717 3.39156 5.86724 3.3884 5.86728C3.38681 5.86731 3.38558 5.86733 3.38474 5.86734C3.38432 5.86734 3.384 5.86735 3.38378 5.86735C3.38368 5.86735 3.38359 5.86735 3.38354 5.86736C3.38351 5.86736 3.38349 5.86736 3.38347 5.86736C3.38346 5.86736 3.38346 5.86736 3.38345 5.86736C3.38345 5.86736 3.38344 5.86736 3.38343 5.86736C3.38342 5.86736 3.30958 5.94328 3.38525 6.01735L3.38389 5.86735C3.45957 5.94142 3.38573 6.01734 3.38571 6.01734C3.38571 6.01734 3.3857 6.01734 3.3857 6.01734C3.3857 6.01734 3.3857 6.01734 3.38571 6.01734C3.38572 6.01734 3.38574 6.01734 3.38577 6.01734C3.38582 6.01734 3.3859 6.01734 3.38601 6.01734C3.38622 6.01733 3.38654 6.01733 3.38696 6.01732C3.38779 6.01731 3.38902 6.01729 3.3906 6.01727C3.39375 6.01722 3.3983 6.01716 3.40385 6.01708C3.41496 6.01691 3.4301 6.0167 3.44621 6.01648C3.4786 6.01603 3.51444 6.01557 3.52972 6.01549L3.52889 5.86549ZM4.03547 6.03477C3.89852 5.94976 3.76196 5.86419 3.52889 5.86549L3.52972 6.01549C3.71703 6.01444 3.82206 6.07884 3.95635 6.16221L4.03547 6.03477ZM4.06858 6.05525C4.05748 6.04843 4.0465 6.04162 4.03547 6.03477L3.95636 6.16221C3.96735 6.16904 3.97861 6.17603 3.99004 6.18305L4.06858 6.05525ZM4.27054 6.1862C4.1965 6.13717 4.12759 6.09152 4.06858 6.05525L3.99004 6.18305C4.04642 6.2177 4.11299 6.26177 4.18771 6.31126L4.27054 6.1862ZM5.30189 6.6526C5.18027 6.67121 5.01068 6.6171 4.81832 6.5196C4.62985 6.42407 4.43606 6.29583 4.27054 6.1862L4.18771 6.31126C4.35183 6.41996 4.55292 6.55324 4.7505 6.65339C4.94419 6.75157 5.15183 6.8273 5.32458 6.80087L5.30189 6.6526ZM5.41064 6.18095C5.41048 6.17984 5.41102 6.18686 5.40886 6.20668C5.40696 6.2242 5.40355 6.24677 5.39876 6.27303C5.38919 6.32545 5.37466 6.38956 5.3576 6.45192C5.34042 6.51472 5.32133 6.5733 5.30305 6.61567C5.29377 6.63718 5.28595 6.65155 5.28029 6.65964C5.27746 6.66367 5.27668 6.66395 5.27832 6.66254C5.2796 6.66144 5.28757 6.65479 5.30189 6.6526L5.32458 6.80087C5.34791 6.7973 5.36519 6.78566 5.37599 6.77639C5.38715 6.76681 5.39612 6.75574 5.40318 6.74565C5.41728 6.7255 5.42979 6.70057 5.44078 6.67509C5.46304 6.62349 5.48428 6.55731 5.50229 6.49151C5.52041 6.42526 5.53593 6.35692 5.54632 6.29996C5.55151 6.27152 5.55556 6.24516 5.55798 6.22289C5.56016 6.20291 5.56188 6.17927 5.55917 6.16L5.41064 6.18095ZM5.42459 6.01494C5.42007 6.04565 5.41547 6.07686 5.41251 6.10366C5.40982 6.12802 5.40733 6.15752 5.41064 6.18095L5.55917 6.16C5.5592 6.16024 5.55885 6.15715 5.55919 6.14898C5.55951 6.14142 5.56031 6.13182 5.56161 6.12013C5.56421 6.09658 5.56836 6.0683 5.573 6.03677L5.42459 6.01494ZM5.4998 5.86027C5.4868 5.86226 5.46979 5.85937 5.45569 5.84792C5.44433 5.83869 5.4412 5.82894 5.44107 5.82855C5.44106 5.82852 5.44298 5.83678 5.44244 5.85865C5.44143 5.89962 5.43323 5.95621 5.42459 6.01494L5.573 6.03677C5.58116 5.98131 5.59111 5.91447 5.5924 5.86234C5.59301 5.83767 5.59211 5.80696 5.58316 5.7805C5.57856 5.76688 5.56943 5.74705 5.55027 5.73149C5.52838 5.7137 5.50177 5.70823 5.47711 5.712L5.4998 5.86027ZM4.06753 5.44038C4.38275 5.58033 4.65666 5.69725 4.89113 5.77307C5.12427 5.84847 5.3279 5.88658 5.4998 5.86027L5.47711 5.712C5.34077 5.73286 5.16461 5.70387 4.93729 5.63035C4.71129 5.55726 4.44408 5.44344 4.1284 5.30328L4.06753 5.44038ZM3.11228 5.52235C3.27149 5.47692 3.44083 5.42873 3.60805 5.40617C3.77522 5.38361 3.93321 5.38778 4.07059 5.44165L4.12535 5.30201C3.95461 5.23505 3.76777 5.23325 3.58799 5.25751C3.40826 5.28177 3.22853 5.33319 3.07112 5.37811L3.11228 5.52235ZM2.45173 5.53528C2.52349 5.61912 2.63833 5.62375 2.74158 5.61095C2.84939 5.59758 2.97908 5.56037 3.11228 5.52235L3.07112 5.37811C2.93389 5.41728 2.81683 5.45047 2.72312 5.46209C2.62485 5.47427 2.58342 5.45846 2.56569 5.43774L2.45173 5.53528ZM2.37217 5.53029C2.39649 5.50903 2.43187 5.51207 2.45173 5.53528L2.56569 5.43774C2.4908 5.35025 2.35972 5.34193 2.27344 5.41736L2.37217 5.53029Z" fill="#984111"/>
<path fill-rule="evenodd" clip-rule="evenodd" d="M4.75565 11.2454C4.68236 11.2503 4.61838 11.1954 4.61274 11.1228C4.58532 10.7696 4.89617 10.4486 5.06827 10.2709L5.08524 10.2533C5.11241 10.2252 5.14026 10.1974 5.17514 10.1633C5.17512 10.1633 5.25652 10.0843 5.27879 10.0623C5.42825 9.91449 5.46064 9.77606 5.49701 9.62063L5.50602 9.5824C5.52174 9.51654 5.53792 9.43692 5.55568 9.34949L5.55568 9.34948C5.6344 8.96201 5.74427 8.4212 5.98427 8.2449C6.04304 8.20173 6.45485 8.45823 6.49899 8.51685C6.51455 8.53753 6.56058 8.57175 6.61107 8.60929L6.61107 8.60929C6.70369 8.67815 6.81131 8.75816 6.77326 8.78611C6.52196 8.97072 6.33104 9.41811 6.083 10.0623C5.95057 10.3656 5.60379 10.5584 5.31603 10.7184C5.07023 10.855 4.86748 10.9678 4.87813 11.105C4.88377 11.1776 4.82894 11.2405 4.75565 11.2454ZM8.80295 11.146C8.76716 11.2101 8.68627 11.2339 8.62228 11.199C8.31117 11.0297 8.21123 10.5942 8.15589 10.353L8.15042 10.3292C8.14162 10.2911 8.13348 10.2526 8.12391 10.2048C8.12391 10.2048 8.10198 10.0935 8.09563 10.0629C8.05308 9.85702 7.95462 9.75446 7.84407 9.6393L7.81692 9.61093C7.77015 9.56177 7.71133 9.50403 7.64649 9.44038L7.64647 9.44036L7.64646 9.44035C7.35983 9.15898 6.95567 8.76225 6.95567 8.48138C6.95567 8.35381 7.39088 8.2029 7.46408 8.19782C7.48991 8.19602 7.54368 8.17606 7.60265 8.15416C7.71086 8.11398 7.83657 8.06731 7.83929 8.11443C7.85724 8.42574 8.12847 8.82952 8.53364 9.3884C8.71588 9.66465 8.68871 10.0605 8.66616 10.389C8.6469 10.6695 8.63101 10.901 8.75188 10.9668C8.81588 11.0016 8.83874 11.0818 8.80295 11.146ZM11.3892 8.79707C11.4598 8.77891 11.5027 8.70636 11.4852 8.63504C11.4676 8.56373 11.3962 8.52064 11.3256 8.53881C11.1923 8.57312 11.0461 8.39303 10.8688 8.1747C10.6613 7.91908 10.4112 7.61105 10.0895 7.5333C9.41207 7.40089 8.93832 7.29057 8.71288 7.07513C8.67876 7.04252 8.61865 7.16239 8.56691 7.26557L8.56691 7.26557L8.56691 7.26557C8.53871 7.32181 8.513 7.37308 8.49534 7.392C8.44528 7.44564 8.26418 7.89574 8.31691 7.94613C8.5322 8.15186 9.08388 8.16615 9.47913 8.17639L9.47915 8.17639C9.56833 8.1787 9.64954 8.18081 9.71713 8.18486L9.75634 8.18709C9.91573 8.19591 10.0577 8.20377 10.2292 8.32529C10.2543 8.34311 10.3437 8.40767 10.3466 8.40978L10.3467 8.40983C10.3863 8.43827 10.4185 8.46086 10.4509 8.48274L10.4711 8.4964C10.6761 8.63502 11.0462 8.8854 11.3892 8.79707ZM2.29595 8.35381C2.24065 8.30547 2.23423 8.2214 2.2816 8.16605C2.51192 7.89695 2.95873 7.88975 3.2061 7.88576C3.21447 7.88562 3.22261 7.88549 3.23051 7.88535C3.26962 7.88467 3.30897 7.8847 3.35772 7.88528C3.35769 7.88528 3.47112 7.88697 3.50245 7.88714C3.71264 7.88831 3.83343 7.81333 3.96905 7.72914C3.98007 7.7223 3.99119 7.7154 4.00245 7.70848C4.06015 7.67302 4.12789 7.62816 4.20227 7.5789C4.53191 7.36058 4.99202 7.05586 5.28638 7.1009C5.35847 7.11193 5.46829 7.5845 5.45805 7.65716C5.45443 7.68279 5.46278 7.73954 5.47194 7.80178C5.48874 7.91597 5.50826 8.04864 5.4616 8.0415C5.15336 7.99433 4.70201 8.17569 4.07111 8.4558C3.763 8.57663 3.38146 8.46775 3.06485 8.3774C2.79441 8.30022 2.57134 8.23657 2.48186 8.34112C2.43448 8.39647 2.35125 8.40215 2.29595 8.35381Z" fill="#FFC125"/>
<path d="M4.61274 11.1228L4.53797 11.1286V11.1286L4.61274 11.1228ZM4.75565 11.2454L4.75063 11.1706V11.1706L4.75565 11.2454ZM5.06827 10.2709L5.12217 10.323L5.12215 10.323L5.06827 10.2709ZM5.08524 10.2533L5.13919 10.3054L5.13914 10.3055L5.08524 10.2533ZM5.17514 10.1633L5.12274 10.1097L5.22783 10.2167L5.17514 10.1633ZM5.27879 10.0623L5.22606 10.009L5.22606 10.009L5.27879 10.0623ZM5.49701 9.62063L5.42398 9.60354L5.42401 9.60343L5.49701 9.62063ZM5.50602 9.5824L5.43301 9.5652L5.43307 9.56498L5.50602 9.5824ZM5.55568 9.34949L5.48205 9.33453L5.48321 9.33017L5.55568 9.34949ZM5.55568 9.34948L5.62931 9.36444L5.62815 9.36881L5.55568 9.34948ZM5.98427 8.2449L5.93986 8.18446H5.93986L5.98427 8.2449ZM6.49899 8.51685L6.5589 8.47174V8.47174L6.49899 8.51685ZM6.61107 8.60929L6.56941 8.67177L6.56632 8.66947L6.61107 8.60929ZM6.61107 8.60929L6.65273 8.5468L6.65582 8.5491L6.61107 8.60929ZM6.77326 8.78611L6.72886 8.72566V8.72566L6.77326 8.78611ZM6.083 10.0623L6.15306 10.0893L6.15173 10.0923L6.083 10.0623ZM5.31603 10.7184L5.27958 10.6528V10.6528L5.31603 10.7184ZM4.87813 11.105L4.80336 11.1108V11.1108L4.87813 11.105ZM8.62228 11.199L8.58642 11.2649V11.2649L8.62228 11.199ZM8.80295 11.146L8.86844 11.1825V11.1825L8.80295 11.146ZM8.15589 10.353L8.22899 10.3362L8.22899 10.3362L8.15589 10.353ZM8.15042 10.3292L8.2235 10.3124L8.22352 10.3124L8.15042 10.3292ZM8.12391 10.2048L8.05037 10.2195L8.19738 10.1898L8.12391 10.2048ZM8.09563 10.0629L8.16908 10.0477L8.16908 10.0477L8.09563 10.0629ZM7.84407 9.6393L7.78997 9.69124L7.78989 9.69116L7.84407 9.6393ZM7.81692 9.61093L7.76273 9.66279L7.76258 9.66262L7.81692 9.61093ZM7.64649 9.44038L7.59395 9.4939L7.59391 9.49386L7.64649 9.44038ZM7.64647 9.44036L7.69853 9.38637L7.69906 9.38688L7.64647 9.44036ZM7.64646 9.44035L7.5944 9.49434L7.59392 9.49387L7.64646 9.44035ZM7.46408 8.19782L7.45889 8.123V8.123L7.46408 8.19782ZM7.60265 8.15416L7.62876 8.22447V8.22447L7.60265 8.15416ZM7.83929 8.11443L7.76441 8.11875V8.11875L7.83929 8.11443ZM8.53364 9.3884L8.59442 9.34433L8.59624 9.3471L8.53364 9.3884ZM8.66616 10.389L8.74098 10.3941V10.3941L8.66616 10.389ZM8.75188 10.9668L8.71603 11.0326V11.0326L8.75188 10.9668ZM11.3892 8.79707L11.4079 8.8697V8.8697L11.3892 8.79707ZM11.3256 8.53881L11.3069 8.46618V8.46618L11.3256 8.53881ZM10.8688 8.1747L10.8106 8.22197V8.22197L10.8688 8.1747ZM10.0895 7.5333L10.1039 7.45962L10.1072 7.4604L10.0895 7.5333ZM8.71288 7.07513L8.66107 7.12936H8.66107L8.71288 7.07513ZM8.56691 7.26557L8.49703 7.23761L8.49987 7.23195L8.56691 7.26557ZM8.56691 7.26557L8.63679 7.29352L8.63399 7.29911L8.56691 7.26557ZM8.56691 7.26557L8.63399 7.29912L8.63395 7.29919L8.56691 7.26557ZM8.49534 7.392L8.44051 7.34083V7.34083L8.49534 7.392ZM8.31691 7.94613L8.36872 7.8919V7.8919L8.31691 7.94613ZM9.47913 8.17639L9.48107 8.10141L9.48201 8.10145L9.47913 8.17639ZM9.47915 8.17639L9.47721 8.25137L9.47627 8.25134L9.47915 8.17639ZM9.71713 8.18486L9.71287 8.25973L9.71265 8.25972L9.71713 8.18486ZM9.75634 8.18709L9.7522 8.26197L9.75208 8.26197L9.75634 8.18709ZM10.2292 8.32529L10.1858 8.38649V8.38649L10.2292 8.32529ZM10.3466 8.40978L10.3028 8.47062L10.3027 8.47057L10.3466 8.40978ZM10.3467 8.40983L10.3029 8.47075L10.3028 8.47068L10.3467 8.40983ZM10.4509 8.48274L10.4929 8.42056L10.4929 8.4206L10.4509 8.48274ZM10.4711 8.4964L10.5131 8.43426L10.5132 8.43428L10.4711 8.4964ZM2.2816 8.16605L2.33858 8.21482H2.33858L2.2816 8.16605ZM2.29595 8.35381L2.34531 8.29734L2.34531 8.29734L2.29595 8.35381ZM3.2061 7.88576L3.20489 7.81077H3.20489L3.2061 7.88576ZM3.23051 7.88535L3.23181 7.96034H3.23181L3.23051 7.88535ZM3.35772 7.88528L3.35861 7.81029L3.35703 7.96028L3.35772 7.88528ZM3.50245 7.88714L3.50287 7.81214H3.50287L3.50245 7.88714ZM3.96905 7.72914L3.9295 7.66542L3.9295 7.66542L3.96905 7.72914ZM4.00245 7.70848L4.04172 7.77238L4.04172 7.77238L4.00245 7.70848ZM4.20227 7.5789L4.16086 7.51637V7.51637L4.20227 7.5789ZM5.28638 7.1009L5.29772 7.02676H5.29772L5.28638 7.1009ZM5.45805 7.65716L5.53231 7.66763V7.66763L5.45805 7.65716ZM5.47194 7.80178L5.39774 7.81269V7.81269L5.47194 7.80178ZM5.4616 8.0415L5.47294 7.96736V7.96736L5.4616 8.0415ZM4.07111 8.4558L4.10157 8.52442L4.09849 8.52563L4.07111 8.4558ZM3.06485 8.3774L3.08543 8.30528H3.08543L3.06485 8.3774ZM2.48186 8.34112L2.53884 8.38989H2.53884L2.48186 8.34112ZM4.68752 11.117C4.68993 11.1481 4.7178 11.1728 4.75063 11.1706L4.76067 11.3202C4.64693 11.3279 4.54683 11.2428 4.53797 11.1286L4.68752 11.117ZM5.12215 10.323C5.03566 10.4124 4.91981 10.5323 4.82847 10.6721C4.73684 10.8123 4.67564 10.964 4.68752 11.117L4.53797 11.1286C4.52242 10.9284 4.60294 10.743 4.7029 10.59C4.80316 10.4366 4.92877 10.3071 5.01438 10.2187L5.12215 10.323ZM5.13914 10.3055L5.12217 10.323L5.01436 10.2187L5.03133 10.2012L5.13914 10.3055ZM5.22754 10.217C5.19298 10.2507 5.16569 10.278 5.13919 10.3054L5.03129 10.2012C5.05914 10.1724 5.08753 10.144 5.12274 10.1097L5.22754 10.217ZM5.33153 10.1156C5.32012 10.1269 5.29395 10.1524 5.27091 10.1748C5.25932 10.1861 5.24844 10.1967 5.24045 10.2044C5.23646 10.2083 5.23319 10.2115 5.23092 10.2137C5.22978 10.2148 5.2289 10.2157 5.2283 10.2162C5.228 10.2165 5.22776 10.2168 5.22761 10.2169C5.22753 10.217 5.22747 10.217 5.22743 10.2171C5.22741 10.2171 5.2274 10.2171 5.22738 10.2171C5.22738 10.2171 5.22737 10.2171 5.22737 10.2171C5.22736 10.2171 5.22735 10.2172 5.22735 10.2172C5.22733 10.2172 5.12151 10.2158 5.12245 10.1099L5.22783 10.2167C5.22876 10.1109 5.12294 10.1095 5.12293 10.1095C5.12292 10.1095 5.12291 10.1095 5.12291 10.1095C5.12291 10.1095 5.12291 10.1095 5.12292 10.1095C5.12292 10.1095 5.12294 10.1095 5.12296 10.1094C5.12299 10.1094 5.12305 10.1094 5.12313 10.1093C5.12328 10.1091 5.12351 10.1089 5.12381 10.1086C5.12441 10.108 5.12529 10.1072 5.12642 10.1061C5.12869 10.1039 5.13195 10.1007 5.13593 10.0968C5.1439 10.0891 5.15475 10.0786 5.1663 10.0673C5.18952 10.0447 5.21519 10.0197 5.22606 10.009L5.33153 10.1156ZM5.57004 9.63771C5.53331 9.79467 5.49726 9.95173 5.33153 10.1156L5.22606 10.009C5.35924 9.87725 5.38797 9.75745 5.42398 9.60354L5.57004 9.63771ZM5.57902 9.5996L5.57001 9.63783L5.42401 9.60343L5.43301 9.5652L5.57902 9.5996ZM5.62918 9.36442C5.6115 9.45145 5.59505 9.53245 5.57896 9.59982L5.43307 9.56498C5.44843 9.50062 5.46434 9.42239 5.48218 9.33456L5.62918 9.36442ZM5.62815 9.36881L5.62815 9.36881L5.48321 9.33017L5.48321 9.33016L5.62815 9.36881ZM6.02867 8.30535C5.92951 8.37819 5.84785 8.53636 5.78077 8.74133C5.71506 8.94215 5.6687 9.16986 5.62918 9.36442L5.48218 9.33455C5.52137 9.14164 5.56932 8.90521 5.63821 8.69468C5.70575 8.4883 5.79902 8.28792 5.93986 8.18446L6.02867 8.30535ZM6.43907 8.56196C6.43974 8.56285 6.43515 8.55751 6.41962 8.54502C6.40588 8.53398 6.38751 8.52043 6.36556 8.50525C6.32172 8.47495 6.26612 8.43988 6.20996 8.40785C6.15341 8.3756 6.09849 8.34768 6.0556 8.33064C6.03382 8.32199 6.01813 8.31736 6.00841 8.31565C6.00356 8.31479 6.00281 8.31515 6.00497 8.31498C6.00665 8.31485 6.01699 8.31393 6.02867 8.30535L5.93986 8.18446C5.95889 8.17048 5.97933 8.1665 5.99352 8.16542C6.00819 8.1643 6.02236 8.16579 6.03449 8.16793C6.0587 8.17221 6.08518 8.18099 6.11097 8.19123C6.1632 8.21198 6.22501 8.24375 6.28428 8.27756C6.34393 8.31158 6.40323 8.34894 6.45086 8.38186C6.47463 8.3983 6.49614 8.41407 6.5136 8.42811C6.52926 8.4407 6.5472 8.4562 6.5589 8.47174L6.43907 8.56196ZM6.56632 8.66947C6.5414 8.65095 6.51608 8.63214 6.49504 8.61528C6.47591 8.59996 6.45329 8.58086 6.43907 8.56196L6.5589 8.47174C6.55876 8.47155 6.5607 8.47399 6.56672 8.47952C6.57228 8.48464 6.57964 8.49086 6.58882 8.49821C6.60731 8.51302 6.63024 8.53009 6.65581 8.5491L6.56632 8.66947ZM6.56947 8.67169L6.56946 8.67169L6.65267 8.54688L6.65267 8.54689L6.56947 8.67169ZM6.72886 8.72566C6.71827 8.73345 6.70829 8.74752 6.70642 8.76559C6.70491 8.78015 6.70958 8.78925 6.70977 8.78963C6.70978 8.78965 6.7053 8.78245 6.68946 8.76737C6.65977 8.73911 6.61395 8.70489 6.56632 8.66948L6.65582 8.5491C6.70081 8.58255 6.75511 8.62277 6.79288 8.65872C6.81076 8.67574 6.83184 8.69809 6.84422 8.72312C6.8506 8.73601 6.85816 8.75648 6.85562 8.78104C6.85271 8.80909 6.83777 8.83179 6.81767 8.84655L6.72886 8.72566ZM6.01301 10.0353C6.13694 9.71349 6.24795 9.43713 6.36013 9.21772C6.47167 8.99955 6.58871 8.82862 6.72886 8.72566L6.81767 8.84655C6.70651 8.92821 6.60244 9.07327 6.49369 9.286C6.38557 9.49748 6.2771 9.76691 6.15299 10.0892L6.01301 10.0353ZM5.27958 10.6528C5.42428 10.5724 5.5781 10.4867 5.7123 10.3844C5.84646 10.2822 5.95522 10.1675 6.01427 10.0323L6.15173 10.0923C6.07835 10.2604 5.94751 10.3938 5.80323 10.5037C5.65899 10.6137 5.49554 10.7044 5.35247 10.7839L5.27958 10.6528ZM4.80336 11.1108C4.79482 11.0008 4.87275 10.9163 4.95481 10.8523C5.04049 10.7855 5.15852 10.7201 5.27958 10.6528L5.35247 10.7839C5.22774 10.8533 5.12149 10.9126 5.04702 10.9706C4.96891 11.0315 4.9508 11.072 4.95291 11.0992L4.80336 11.1108ZM4.75063 11.1706C4.78286 11.1684 4.80572 11.1412 4.80336 11.1108L4.95291 11.0992C4.96183 11.214 4.87501 11.3126 4.76067 11.3202L4.75063 11.1706ZM8.65813 11.1332C8.68552 11.1481 8.72142 11.1382 8.73745 11.1094L8.86844 11.1825C8.8129 11.2821 8.68702 11.3197 8.58642 11.2649L8.65813 11.1332ZM8.22899 10.3362C8.2568 10.4574 8.29428 10.6199 8.36177 10.7726C8.42948 10.9259 8.52339 11.0598 8.65813 11.1332L8.58642 11.2649C8.41006 11.1689 8.29844 11.0004 8.22457 10.8333C8.15048 10.6656 8.11032 10.4897 8.08279 10.3698L8.22899 10.3362ZM8.22352 10.3124L8.22899 10.3362L8.0828 10.3698L8.07733 10.346L8.22352 10.3124ZM8.19745 10.1901C8.20693 10.2375 8.21492 10.2752 8.2235 10.3124L8.07735 10.3461C8.06833 10.307 8.06002 10.2678 8.05037 10.2195L8.19745 10.1901ZM8.16908 10.0477C8.17233 10.0634 8.17947 10.0992 8.18572 10.1308C8.18886 10.1466 8.19181 10.1615 8.19396 10.1724C8.19504 10.1779 8.19592 10.1824 8.19654 10.1855C8.19684 10.187 8.19708 10.1882 8.19724 10.1891C8.19733 10.1895 8.19739 10.1898 8.19743 10.19C8.19745 10.1901 8.19747 10.1902 8.19748 10.1902C8.19748 10.1903 8.19749 10.1903 8.19749 10.1903C8.19749 10.1903 8.19749 10.1903 8.19749 10.1903C8.19749 10.1903 8.1975 10.1903 8.1975 10.1903C8.1975 10.1904 8.13864 10.2784 8.05043 10.2199L8.19738 10.1898C8.10917 10.1313 8.05031 10.2193 8.05032 10.2193C8.05032 10.2193 8.05032 10.2193 8.05032 10.2193C8.05032 10.2193 8.05032 10.2193 8.05032 10.2193C8.05032 10.2193 8.05031 10.2193 8.05031 10.2192C8.0503 10.2192 8.05028 10.2191 8.05026 10.219C8.05022 10.2188 8.05016 10.2185 8.05008 10.2181C8.04992 10.2173 8.04968 10.216 8.04937 10.2145C8.04876 10.2114 8.04788 10.2069 8.04681 10.2015C8.04465 10.1906 8.04172 10.1757 8.03858 10.1599C8.03228 10.1282 8.02528 10.093 8.02219 10.078L8.16908 10.0477ZM7.89818 9.58736C8.00981 9.70365 8.12189 9.81943 8.16908 10.0477L8.02219 10.078C7.98426 9.89461 7.89944 9.80527 7.78997 9.69124L7.89818 9.58736ZM7.8711 9.55907L7.89826 9.58745L7.78989 9.69116L7.76273 9.66279L7.8711 9.55907ZM7.69903 9.38686C7.76357 9.45021 7.82341 9.50895 7.87126 9.55924L7.76258 9.66262C7.71689 9.61459 7.65909 9.55785 7.59395 9.4939L7.69903 9.38686ZM7.69906 9.38688L7.69908 9.3869L7.59391 9.49386L7.59389 9.49384L7.69906 9.38688ZM7.69852 9.38636L7.69853 9.38637L7.59441 9.49435L7.5944 9.49434L7.69852 9.38636ZM7.03067 8.48138C7.03067 8.53458 7.05016 8.5996 7.08977 8.67541C7.129 8.75048 7.18519 8.83092 7.25193 8.91355C7.38559 9.07905 7.55506 9.24553 7.699 9.38683L7.59392 9.49387C7.45123 9.3538 7.27531 9.18123 7.13523 9.0078C7.06511 8.92097 7.00234 8.83198 6.95683 8.74488C6.9117 8.65851 6.88067 8.56862 6.88067 8.48138H7.03067ZM7.46928 8.27264C7.46942 8.27263 7.46877 8.27267 7.46714 8.27291C7.46557 8.27314 7.46346 8.2735 7.46077 8.27403C7.45534 8.2751 7.44837 8.27669 7.4399 8.27886C7.42298 8.28322 7.40162 8.28952 7.37726 8.29755C7.32851 8.31364 7.26991 8.33596 7.2138 8.36179C7.15702 8.38793 7.10604 8.4162 7.07046 8.44348C7.05265 8.45714 7.04126 8.46863 7.0349 8.47727C7.02836 8.48614 7.03067 8.48707 7.03067 8.48138H6.88067C6.88067 8.4438 6.89659 8.41211 6.91414 8.38829C6.93186 8.36424 6.95505 8.34296 6.97918 8.32446C7.02749 8.28741 7.08988 8.25371 7.15106 8.22554C7.2129 8.19707 7.27683 8.17273 7.33027 8.1551C7.38049 8.13853 7.4299 8.12501 7.45889 8.123L7.46928 8.27264ZM7.62876 8.22447C7.59966 8.23527 7.57009 8.24627 7.54449 8.25473C7.52122 8.26243 7.49288 8.271 7.46928 8.27264L7.45889 8.123C7.45865 8.12301 7.46175 8.12271 7.46966 8.12068C7.47699 8.1188 7.48621 8.11602 7.49738 8.11232C7.51988 8.10488 7.54668 8.09494 7.57655 8.08385L7.62876 8.22447ZM7.76441 8.11875C7.76517 8.13188 7.77154 8.14791 7.78567 8.15932C7.79706 8.16852 7.80724 8.16955 7.80765 8.1696C7.80768 8.1696 7.79921 8.16944 7.77792 8.17451C7.73806 8.18402 7.6844 8.20381 7.62876 8.22447L7.57655 8.08385C7.62911 8.06433 7.69241 8.0407 7.74313 8.0286C7.76714 8.02288 7.79737 8.01737 7.82511 8.02062C7.83939 8.02229 7.86068 8.0271 7.87989 8.04261C7.90183 8.06032 7.91272 8.08521 7.91416 8.11012L7.76441 8.11875ZM8.47292 9.43242C8.27048 9.15319 8.09917 8.90957 7.97625 8.69599C7.85403 8.48362 7.77442 8.29236 7.76441 8.11875L7.91416 8.11012C7.9221 8.24782 7.98709 8.4141 8.10626 8.62117C8.22474 8.82703 8.39163 9.06473 8.59436 9.34438L8.47292 9.43242ZM8.59134 10.3838C8.60267 10.2187 8.6146 10.043 8.60191 9.87474C8.58922 9.70654 8.55229 9.55287 8.47103 9.4297L8.59624 9.3471C8.69723 9.50018 8.73784 9.68256 8.75148 9.86346C8.76513 10.0443 8.75219 10.2308 8.74098 10.3941L8.59134 10.3838ZM8.71603 11.0326C8.61911 10.9799 8.59069 10.8685 8.58175 10.7649C8.57241 10.6566 8.58185 10.522 8.59134 10.3838L8.74098 10.3941C8.73121 10.5365 8.72307 10.6579 8.73119 10.752C8.73971 10.8506 8.76379 10.8879 8.78774 10.9009L8.71603 11.0326ZM8.73745 11.1094C8.7532 11.0812 8.74286 11.0472 8.71603 11.0326L8.78774 10.9009C8.88889 10.956 8.92428 11.0824 8.86844 11.1825L8.73745 11.1094ZM11.558 8.6171C11.5853 8.72779 11.5188 8.84114 11.4079 8.8697L11.3705 8.72444C11.4007 8.71667 11.4202 8.68493 11.4123 8.65298L11.558 8.6171ZM11.3069 8.46618C11.4184 8.43746 11.5306 8.50583 11.558 8.6171L11.4123 8.65298C11.4046 8.62162 11.3739 8.60382 11.3443 8.61144L11.3069 8.46618ZM10.9271 8.12742C11.017 8.23822 11.0939 8.33256 11.164 8.39582C11.2375 8.46217 11.2805 8.47298 11.3069 8.46618L11.3443 8.61144C11.2374 8.63895 11.1407 8.57688 11.0635 8.50717C10.9828 8.43439 10.8979 8.32951 10.8106 8.22197L10.9271 8.12742ZM10.1072 7.4604C10.2854 7.50349 10.4395 7.60918 10.5729 7.73217C10.7062 7.85513 10.8239 8.00034 10.9271 8.12742L10.8106 8.22197C10.7063 8.09344 10.5952 7.95683 10.4712 7.84243C10.3472 7.72807 10.2153 7.64087 10.0719 7.6062L10.1072 7.4604ZM8.7647 7.02091C8.86442 7.1162 9.02535 7.1935 9.25373 7.26366C9.48077 7.33341 9.76494 7.39344 10.1039 7.4597L10.0752 7.60691C9.73667 7.54075 9.44523 7.47942 9.20967 7.40705C8.97545 7.33509 8.78679 7.2495 8.66107 7.12936L8.7647 7.02091ZM8.49987 7.23195C8.525 7.18183 8.55518 7.12137 8.58402 7.07794C8.59768 7.05738 8.61603 7.03273 8.63853 7.01619C8.65012 7.00768 8.66896 6.99667 8.69359 6.99491C8.72172 6.9929 8.74666 7.00368 8.7647 7.02091L8.66107 7.12936C8.67057 7.13844 8.68617 7.14582 8.70428 7.14453C8.71888 7.14349 8.72703 7.1373 8.72737 7.13705C8.72739 7.13704 8.72108 7.1427 8.70898 7.16092C8.68631 7.19506 8.66056 7.24612 8.63396 7.29918L8.49987 7.23195ZM8.49728 7.23771L8.49728 7.23771L8.63655 7.29342L8.63655 7.29342L8.49728 7.23771ZM8.49983 7.23203L8.49983 7.23203L8.63399 7.29911L8.63399 7.29912L8.49983 7.23203ZM8.44051 7.34083C8.44035 7.341 8.44241 7.33867 8.44682 7.33178C8.45089 7.32541 8.45574 7.31709 8.46139 7.30677C8.47276 7.28599 8.48558 7.26044 8.49987 7.23196L8.63395 7.29919C8.62004 7.32694 8.60591 7.35515 8.59296 7.37879C8.58119 7.40029 8.56631 7.42589 8.55017 7.44318L8.44051 7.34083ZM8.26509 8.00035C8.24802 7.98404 8.24055 7.9646 8.23702 7.95081C8.23337 7.93656 8.23238 7.92235 8.23238 7.91003C8.23239 7.88544 8.23644 7.85784 8.24205 7.83067C8.25341 7.77563 8.27397 7.70924 8.29697 7.645C8.32012 7.58034 8.34661 7.51546 8.37076 7.46284C8.38282 7.43657 8.39462 7.41266 8.40541 7.39302C8.41509 7.37541 8.42724 7.35505 8.44051 7.34083L8.55017 7.44318C8.55093 7.44236 8.54647 7.4478 8.53686 7.46527C8.52838 7.48072 8.51822 7.50116 8.50709 7.52542C8.48485 7.57385 8.45998 7.6347 8.43819 7.69556C8.41624 7.75686 8.39828 7.81579 8.38895 7.86099C8.38422 7.88394 8.38238 7.90019 8.38238 7.91006C8.38238 7.91499 8.38286 7.91566 8.38232 7.91357C8.38191 7.91194 8.3792 7.90191 8.36872 7.8919L8.26509 8.00035ZM9.47719 8.25137C9.2804 8.24627 9.03923 8.24011 8.81994 8.20882C8.60497 8.17814 8.39143 8.12108 8.26509 8.00035L8.36872 7.8919C8.45767 7.9769 8.62762 8.02986 8.84113 8.06032C9.05031 8.09017 9.28261 8.09628 9.48107 8.10142L9.47719 8.25137ZM9.47627 8.25134L9.47625 8.25134L9.48201 8.10145L9.48203 8.10145L9.47627 8.25134ZM9.71265 8.25972C9.6466 8.25576 9.5668 8.25369 9.47721 8.25137L9.48109 8.10142C9.56986 8.10372 9.65248 8.10585 9.72162 8.10999L9.71265 8.25972ZM9.75208 8.26197L9.71287 8.25973L9.72139 8.10998L9.7606 8.11221L9.75208 8.26197ZM10.1858 8.38649C10.033 8.2782 9.91002 8.27071 9.7522 8.26197L9.76049 8.1122C9.92143 8.12111 10.0824 8.12935 10.2725 8.2641L10.1858 8.38649ZM10.3027 8.47057C10.2996 8.46832 10.2106 8.40404 10.1858 8.38649L10.2725 8.2641C10.2981 8.28217 10.3878 8.34703 10.3905 8.34899L10.3027 8.47057ZM10.3028 8.47068L10.3028 8.47062L10.3905 8.34894L10.3905 8.34899L10.3028 8.47068ZM10.409 8.54492C10.3757 8.5225 10.3429 8.49945 10.3029 8.47075L10.3904 8.34891C10.4297 8.37708 10.4612 8.39922 10.4929 8.42056L10.409 8.54492ZM10.4292 8.55855L10.4089 8.54488L10.4929 8.4206L10.5131 8.43426L10.4292 8.55855ZM11.4079 8.8697C11.2135 8.91978 11.0169 8.87268 10.8489 8.8008C10.6804 8.72871 10.5311 8.62748 10.4291 8.55853L10.5132 8.43428C10.6161 8.50394 10.7544 8.59721 10.9079 8.66289C11.0619 8.72877 11.222 8.7627 11.3705 8.72444L11.4079 8.8697ZM2.33858 8.21482C2.31831 8.23851 2.32054 8.27569 2.34531 8.29734L2.24658 8.41027C2.16076 8.33524 2.15015 8.2043 2.22462 8.11728L2.33858 8.21482ZM3.20731 7.96075C3.083 7.96275 2.91628 7.96563 2.75285 7.99989C2.58889 8.03427 2.43833 8.09827 2.33858 8.21482L2.22462 8.11728C2.35519 7.96473 2.5432 7.89058 2.72207 7.85308C2.90146 7.81547 3.08184 7.81275 3.20489 7.81077L3.20731 7.96075ZM3.23181 7.96034C3.22386 7.96048 3.21567 7.96061 3.20731 7.96075L3.20489 7.81077C3.21327 7.81063 3.22136 7.8105 3.2292 7.81036L3.23181 7.96034ZM3.35682 7.96028C3.30854 7.9597 3.26997 7.95968 3.23181 7.96034L3.2292 7.81036C3.26928 7.80967 3.3094 7.8097 3.35861 7.81029L3.35682 7.96028ZM3.50203 7.96214C3.48599 7.96205 3.44945 7.96158 3.4173 7.96114C3.40114 7.96092 3.38596 7.9607 3.37483 7.96054C3.36926 7.96046 3.36471 7.96039 3.36154 7.96035C3.35996 7.96032 3.35872 7.96031 3.35788 7.96029C3.35747 7.96029 3.35714 7.96028 3.35693 7.96028C3.35682 7.96028 3.35674 7.96028 3.35668 7.96028C3.35665 7.96027 3.35663 7.96027 3.35662 7.96027C3.35661 7.96027 3.3566 7.96027 3.35659 7.96027C3.35659 7.96027 3.35658 7.96027 3.35658 7.96027C3.35656 7.96027 3.28272 7.88436 3.3584 7.81029L3.35703 7.96028C3.43271 7.88621 3.35887 7.81029 3.35886 7.81029C3.35885 7.81029 3.35885 7.81029 3.35885 7.81029C3.35885 7.81029 3.35885 7.81029 3.35885 7.81029C3.35887 7.81029 3.35889 7.81029 3.35891 7.81029C3.35896 7.81029 3.35904 7.81029 3.35915 7.8103C3.35936 7.8103 3.35968 7.8103 3.3601 7.81031C3.36093 7.81032 3.36216 7.81034 3.36374 7.81036C3.3669 7.81041 3.37144 7.81048 3.377 7.81056C3.38811 7.81072 3.40324 7.81093 3.41935 7.81115C3.45175 7.8116 3.48758 7.81206 3.50287 7.81214L3.50203 7.96214ZM4.00861 7.79286C3.87166 7.87788 3.7351 7.96344 3.50203 7.96214L3.50287 7.81214C3.69018 7.81319 3.7952 7.74879 3.9295 7.66542L4.00861 7.79286ZM4.04172 7.77238C4.03062 7.7792 4.01965 7.78601 4.00861 7.79286L3.9295 7.66542C3.94049 7.65859 3.95175 7.65161 3.96319 7.64458L4.04172 7.77238ZM4.24368 7.64143C4.16964 7.69046 4.10073 7.73612 4.04172 7.77238L3.96319 7.64458C4.01956 7.60993 4.08613 7.56586 4.16086 7.51637L4.24368 7.64143ZM5.27504 7.17504C5.15342 7.15643 4.98383 7.21053 4.79146 7.30803C4.60299 7.40357 4.4092 7.53181 4.24368 7.64143L4.16086 7.51637C4.32498 7.40767 4.52606 7.27439 4.72365 7.17424C4.91733 7.07607 5.12498 7.00033 5.29772 7.02676L5.27504 7.17504ZM5.38378 7.64669C5.38363 7.64779 5.38416 7.64077 5.38201 7.62095C5.3801 7.60343 5.37669 7.58086 5.3719 7.55461C5.36234 7.50218 5.34781 7.43807 5.33075 7.37571C5.31357 7.31292 5.29448 7.25434 5.27619 7.21196C5.26691 7.19045 5.25909 7.17608 5.25343 7.16799C5.25061 7.16396 5.24983 7.16368 5.25147 7.16509C5.25275 7.16619 5.26071 7.17284 5.27503 7.17504L5.29772 7.02676C5.32106 7.03033 5.33833 7.04197 5.34913 7.05124C5.3603 7.06082 5.36926 7.0719 5.37632 7.08198C5.39042 7.10213 5.40293 7.12706 5.41392 7.15254C5.43619 7.20415 5.45743 7.27032 5.47543 7.33613C5.49356 7.40237 5.50907 7.47071 5.51947 7.52768C5.52465 7.55611 5.52871 7.58247 5.53113 7.60474C5.5333 7.62472 5.53503 7.64836 5.53231 7.66763L5.38378 7.64669ZM5.39774 7.81269C5.39322 7.78198 5.38862 7.75077 5.38566 7.72397C5.38297 7.69961 5.38048 7.67011 5.38378 7.64669L5.53231 7.66763C5.53235 7.66739 5.53199 7.67049 5.53234 7.67865C5.53266 7.68621 5.53346 7.69581 5.53475 7.7075C5.53735 7.73105 5.5415 7.75933 5.54614 7.79086L5.39774 7.81269ZM5.47294 7.96736C5.45995 7.96537 5.44293 7.96827 5.42884 7.97972C5.41748 7.98895 5.41435 7.99869 5.41421 7.99909C5.4142 7.99911 5.41613 7.99085 5.41559 7.96898C5.41458 7.92801 5.40638 7.87142 5.39774 7.81269L5.54614 7.79086C5.5543 7.84633 5.56426 7.91316 5.56554 7.96529C5.56615 7.98996 5.56526 8.02067 5.55631 8.04713C5.5517 8.06075 5.54258 8.08058 5.52342 8.09614C5.50152 8.11393 5.47491 8.11941 5.45025 8.11563L5.47294 7.96736ZM4.04068 8.38725C4.35589 8.2473 4.6298 8.13039 4.86427 8.05456C5.09741 7.97916 5.30104 7.94105 5.47294 7.96736L5.45025 8.11563C5.31391 8.09477 5.13775 8.12376 4.91043 8.19728C4.68444 8.27037 4.41723 8.38419 4.10155 8.52435L4.04068 8.38725ZM3.08543 8.30528C3.24463 8.35071 3.41398 8.3989 3.5812 8.42146C3.74837 8.44402 3.90636 8.43985 4.04373 8.38598L4.09849 8.52563C3.92775 8.59258 3.74092 8.59438 3.56114 8.57012C3.38141 8.54586 3.20168 8.49444 3.04427 8.44952L3.08543 8.30528ZM2.42488 8.29235C2.49663 8.20851 2.61148 8.20388 2.71472 8.21668C2.82253 8.23005 2.95223 8.26726 3.08543 8.30528L3.04427 8.44952C2.90703 8.41036 2.78997 8.37716 2.69627 8.36554C2.598 8.35336 2.55657 8.36917 2.53884 8.38989L2.42488 8.29235ZM2.34531 8.29734C2.36963 8.31861 2.40501 8.31556 2.42488 8.29235L2.53884 8.38989C2.46395 8.47738 2.33286 8.4857 2.24658 8.41027L2.34531 8.29734Z" fill="#984111"/>
<path fill-rule="evenodd" clip-rule="evenodd" d="M7.00002 2.05918C6.87258 2.05918 6.76459 2.15303 6.74683 2.27923L6.33336 5.21707H7.66669L7.25322 2.27923C7.23546 2.15303 7.12747 2.05918 7.00002 2.05918ZM10.4937 3.50631C10.4036 3.4162 10.2609 3.4062 10.1591 3.48288L7.78934 5.26788L8.73215 6.21069L10.5171 3.84095C10.5938 3.73915 10.5838 3.59643 10.4937 3.50631ZM11.7208 6.74681C11.847 6.76457 11.9408 6.87256 11.9408 7C11.9408 7.12744 11.847 7.23543 11.7208 7.25319L8.78295 7.66667V6.33333L11.7208 6.74681ZM10.4937 10.4937C10.5838 10.4036 10.5938 10.2608 10.5171 10.1591L8.73215 7.78931L7.78934 8.73212L10.1591 10.5171C10.2609 10.5938 10.4036 10.5838 10.4937 10.4937ZM7.25322 11.7208C7.23546 11.847 7.12747 11.9408 7.00002 11.9408C6.87258 11.9408 6.76459 11.847 6.74683 11.7208L6.33336 8.78293H7.66669L7.25322 11.7208ZM3.50634 10.4937C3.59645 10.5838 3.73918 10.5938 3.84097 10.5171L6.21071 8.73212L5.2679 7.78931L3.4829 10.1591C3.40623 10.2608 3.41622 10.4036 3.50634 10.4937ZM2.27926 7.25319C2.15306 7.23543 2.0592 7.12744 2.0592 7C2.0592 6.87256 2.15306 6.76457 2.27926 6.74681L5.2171 6.33333V7.66667L2.27926 7.25319ZM3.50634 3.50631C3.41622 3.59643 3.40623 3.73915 3.4829 3.84095L5.2679 6.21069L6.21071 5.26788L3.84097 3.48288C3.73918 3.4062 3.59645 3.4162 3.50634 3.50631Z" fill="#FFC125"/>
<path d="M6.74683 2.27923L6.67256 2.26878V2.26878L6.74683 2.27923ZM6.33336 5.21707L6.25909 5.20662L6.24706 5.29207H6.33336V5.21707ZM7.66669 5.21707V5.29207H7.75299L7.74096 5.20662L7.66669 5.21707ZM7.25322 2.27923L7.32749 2.26878V2.26878L7.25322 2.27923ZM10.1591 3.48288L10.114 3.42297V3.42297L10.1591 3.48288ZM7.78934 5.26788L7.74421 5.20797L7.67529 5.25989L7.73631 5.32091L7.78934 5.26788ZM8.73215 6.21069L8.67912 6.26372L8.74013 6.32474L8.79205 6.25581L8.73215 6.21069ZM10.5171 3.84095L10.4572 3.79582V3.79582L10.5171 3.84095ZM11.7208 6.74681L11.7103 6.82108V6.82108L11.7208 6.74681ZM11.7208 7.25319L11.7312 7.32746V7.32746L11.7208 7.25319ZM8.78295 7.66667H8.70795V7.75296L8.7934 7.74093L8.78295 7.66667ZM8.78295 6.33333L8.7934 6.25907L8.70795 6.24704V6.33333H8.78295ZM10.5171 10.1591L10.5771 10.1139V10.1139L10.5171 10.1591ZM10.4937 10.4937L10.5467 10.5467V10.5467L10.4937 10.4937ZM8.73215 7.78931L8.79206 7.74419L8.74014 7.67526L8.67912 7.73628L8.73215 7.78931ZM7.78934 8.73212L7.73631 8.67909L7.67529 8.74011L7.74422 8.79203L7.78934 8.73212ZM10.1591 10.5171L10.2042 10.4572L10.2042 10.4572L10.1591 10.5171ZM7.25322 11.7208L7.17895 11.7103V11.7103L7.25322 11.7208ZM6.74683 11.7208L6.67256 11.7312V11.7312L6.74683 11.7208ZM6.33336 8.78293V8.70793H6.24706L6.25909 8.79338L6.33336 8.78293ZM7.66669 8.78293L7.74096 8.79338L7.75299 8.70793H7.66669V8.78293ZM3.84097 10.5171L3.79585 10.4572V10.4572L3.84097 10.5171ZM3.50634 10.4937L3.4533 10.5467H3.4533L3.50634 10.4937ZM6.21071 8.73212L6.25584 8.79203L6.32476 8.74011L6.26374 8.67909L6.21071 8.73212ZM5.2679 7.78931L5.32093 7.73628L5.25991 7.67526L5.20799 7.74419L5.2679 7.78931ZM3.4829 10.1591L3.54281 10.2042L3.54281 10.2042L3.4829 10.1591ZM2.27926 7.25319L2.26881 7.32746H2.26881L2.27926 7.25319ZM2.27926 6.74681L2.26881 6.67254H2.26881L2.27926 6.74681ZM5.2171 6.33333H5.2921V6.24704L5.20665 6.25907L5.2171 6.33333ZM5.2171 7.66667L5.20665 7.74093L5.2921 7.75296V7.66667H5.2171ZM3.4829 3.84095L3.54281 3.79582V3.79582L3.4829 3.84095ZM3.50634 3.50631L3.4533 3.45328V3.45328L3.50634 3.50631ZM5.2679 6.21069L5.20799 6.25581L5.25991 6.32474L5.32093 6.26372L5.2679 6.21069ZM6.21071 5.26788L6.26374 5.32091L6.32476 5.25989L6.25584 5.20797L6.21071 5.26788ZM3.84097 3.48288L3.79585 3.54279V3.54279L3.84097 3.48288ZM6.8211 2.28969C6.83365 2.2005 6.90996 2.13418 7.00002 2.13418V1.98418C6.8352 1.98418 6.69554 2.10556 6.67256 2.26878L6.8211 2.28969ZM6.40763 5.22753L6.8211 2.28969L6.67256 2.26878L6.25909 5.20662L6.40763 5.22753ZM7.66669 5.14207H6.33336V5.29207H7.66669V5.14207ZM7.17895 2.28969L7.59242 5.22753L7.74096 5.20662L7.32749 2.26878L7.17895 2.28969ZM7.00002 2.13418C7.09009 2.13418 7.1664 2.2005 7.17895 2.28969L7.32749 2.26878C7.30451 2.10556 7.16485 1.98418 7.00002 1.98418V2.13418ZM10.2042 3.54279C10.2761 3.4886 10.377 3.49566 10.4407 3.55935L10.5467 3.45328C10.4302 3.33673 10.2456 3.3238 10.114 3.42297L10.2042 3.54279ZM7.83446 5.32778L10.2042 3.54279L10.114 3.42297L7.74421 5.20797L7.83446 5.32778ZM8.78518 6.15765L7.84237 5.21484L7.73631 5.32091L8.67912 6.26372L8.78518 6.15765ZM10.4572 3.79582L8.67224 6.16556L8.79205 6.25581L10.5771 3.88607L10.4572 3.79582ZM10.4407 3.55935C10.5044 3.62303 10.5114 3.72389 10.4572 3.79582L10.5771 3.88607C10.6762 3.75442 10.6633 3.56983 10.5467 3.45328L10.4407 3.55935ZM12.0158 7C12.0158 6.83517 11.8945 6.69551 11.7312 6.67254L11.7103 6.82108C11.7995 6.83363 11.8658 6.90994 11.8658 7H12.0158ZM11.7312 7.32746C11.8945 7.30449 12.0158 7.16483 12.0158 7H11.8658C11.8658 7.09006 11.7995 7.16637 11.7103 7.17893L11.7312 7.32746ZM8.7934 7.74093L11.7312 7.32746L11.7103 7.17893L8.7725 7.5924L8.7934 7.74093ZM8.70795 6.33333V7.66667H8.85795V6.33333H8.70795ZM11.7312 6.67254L8.7934 6.25907L8.7725 6.4076L11.7103 6.82108L11.7312 6.67254ZM10.4572 10.2042C10.5114 10.2761 10.5044 10.377 10.4407 10.4407L10.5467 10.5467C10.6633 10.4302 10.6762 10.2456 10.5771 10.1139L10.4572 10.2042ZM8.67224 7.83444L10.4572 10.2042L10.5771 10.1139L8.79206 7.74419L8.67224 7.83444ZM7.84237 8.78516L8.78518 7.84235L8.67912 7.73628L7.73631 8.67909L7.84237 8.78516ZM10.2042 10.4572L7.83446 8.67222L7.74422 8.79203L10.114 10.577L10.2042 10.4572ZM10.4407 10.4407C10.377 10.5043 10.2761 10.5114 10.2042 10.4572L10.114 10.577C10.2456 10.6762 10.4302 10.6633 10.5467 10.5467L10.4407 10.4407ZM7.00002 12.0158C7.16485 12.0158 7.30451 11.8944 7.32749 11.7312L7.17895 11.7103C7.1664 11.7995 7.09009 11.8658 7.00002 11.8658V12.0158ZM6.67256 11.7312C6.69554 11.8944 6.8352 12.0158 7.00002 12.0158V11.8658C6.90996 11.8658 6.83365 11.7995 6.8211 11.7103L6.67256 11.7312ZM6.25909 8.79338L6.67256 11.7312L6.8211 11.7103L6.40763 8.77247L6.25909 8.79338ZM7.66669 8.70793H6.33336V8.85793H7.66669V8.70793ZM7.32749 11.7312L7.74096 8.79338L7.59242 8.77247L7.17895 11.7103L7.32749 11.7312ZM3.79585 10.4572C3.72391 10.5114 3.62305 10.5043 3.55937 10.4407L3.4533 10.5467C3.56985 10.6633 3.75444 10.6762 3.8861 10.577L3.79585 10.4572ZM6.16559 8.67222L3.79585 10.4572L3.8861 10.577L6.25584 8.79203L6.16559 8.67222ZM5.21487 7.84235L6.15768 8.78516L6.26374 8.67909L5.32093 7.73628L5.21487 7.84235ZM3.54281 10.2042L5.32781 7.83444L5.20799 7.74419L3.423 10.1139L3.54281 10.2042ZM3.55937 10.4407C3.49569 10.377 3.48862 10.2761 3.54281 10.2042L3.423 10.1139C3.32383 10.2456 3.33675 10.4302 3.4533 10.5467L3.55937 10.4407ZM1.9842 7C1.9842 7.16483 2.10559 7.30449 2.26881 7.32746L2.28971 7.17892C2.20053 7.16637 2.1342 7.09006 2.1342 7H1.9842ZM2.26881 6.67254C2.10559 6.69551 1.9842 6.83517 1.9842 7H2.1342C2.1342 6.90994 2.20053 6.83363 2.28971 6.82107L2.26881 6.67254ZM5.20665 6.25907L2.26881 6.67254L2.28971 6.82107L5.22755 6.4076L5.20665 6.25907ZM5.2921 7.66667V6.33333H5.1421V7.66667H5.2921ZM2.26881 7.32746L5.20665 7.74093L5.22755 7.5924L2.28971 7.17892L2.26881 7.32746ZM3.54281 3.79582C3.48862 3.72389 3.49569 3.62303 3.55937 3.55935L3.4533 3.45328C3.33675 3.56983 3.32383 3.75442 3.423 3.88607L3.54281 3.79582ZM5.32781 6.16556L3.54281 3.79582L3.423 3.88607L5.20799 6.25581L5.32781 6.16556ZM6.15768 5.21484L5.21487 6.15765L5.32093 6.26372L6.26374 5.32091L6.15768 5.21484ZM3.79585 3.54279L6.16559 5.32778L6.25584 5.20797L3.8861 3.42297L3.79585 3.54279ZM3.55937 3.55935C3.62305 3.49566 3.72391 3.4886 3.79585 3.54279L3.8861 3.42297C3.75444 3.3238 3.56985 3.33673 3.4533 3.45328L3.55937 3.55935Z" fill="#984111"/>
<path fill-rule="evenodd" clip-rule="evenodd" d="M6.99998 8.84211C8.06773 8.84211 8.93332 7.98791 8.93332 6.93421C8.93332 5.88051 8.06773 5.02632 6.99998 5.02632C5.93223 5.02632 5.06665 5.88051 5.06665 6.93421C5.06665 7.98791 5.93223 8.84211 6.99998 8.84211Z" fill="#FFC125" stroke="#984111" stroke-width="0.15"/>
<path d="M6.81346 6.43647C6.79352 6.42412 6.70897 6.36832 6.6882 6.35517C6.61503 6.30886 6.55667 6.27867 6.50247 6.26176C6.47276 6.25249 6.44565 6.24781 6.42112 6.24781C6.30346 6.24781 6.13724 6.32125 5.927 6.47091L5.849 6.3642C6.07991 6.19982 6.26911 6.11623 6.42112 6.11623C6.46028 6.11623 6.50069 6.1232 6.54267 6.1363C6.61045 6.15746 6.67795 6.19237 6.76018 6.24441C6.78262 6.25861 6.86644 6.31393 6.88435 6.32503C6.91349 6.34309 6.93235 6.35177 6.93213 6.35177C7.09132 6.35177 7.10096 6.92132 6.98837 7.09596C6.95794 7.14317 6.92059 7.18132 6.87164 7.21973C6.85282 7.2345 6.79371 7.27707 6.785 7.28379C6.74577 7.31402 6.73334 7.33164 6.73334 7.35319C6.73334 7.35692 6.78125 7.3688 6.88809 7.36378C6.90926 7.36279 6.93028 7.36139 6.96124 7.35903C7.03717 7.35327 7.04699 7.35262 7.07148 7.35262V7.4842C7.05217 7.4842 7.04196 7.48487 6.97148 7.49023C6.93932 7.49267 6.91719 7.49414 6.89443 7.49521C6.70657 7.50403 6.6 7.47762 6.6 7.35319C6.6 7.28172 6.63456 7.23279 6.70292 7.18009C6.71408 7.17149 6.77257 7.12936 6.78866 7.11674C6.82693 7.08671 6.8544 7.05865 6.87588 7.02534C6.91036 6.97185 6.93177 6.83267 6.92927 6.68511C6.92812 6.61737 6.92194 6.55519 6.91217 6.51158C6.90924 6.49849 6.9061 6.48771 6.90314 6.47981C6.87785 6.47368 6.85063 6.4595 6.81346 6.43647Z" fill="#984111"/>
<path fill-rule="evenodd" clip-rule="evenodd" d="M7.35162 6.39031C7.32263 6.40926 7.29151 6.4296 7.28041 6.43647C7.24325 6.4595 7.21602 6.47368 7.19073 6.47981C7.18777 6.48771 7.18464 6.49849 7.1817 6.51158C7.17193 6.55519 7.16575 6.61737 7.1646 6.68511C7.1621 6.83267 7.18351 6.97185 7.21799 7.02534C7.23947 7.05865 7.26694 7.08671 7.30521 7.11674C7.31458 7.12408 7.3383 7.14143 7.3587 7.15634C7.37335 7.16704 7.38628 7.1765 7.39095 7.18009C7.45932 7.23279 7.49387 7.28172 7.49387 7.35319C7.49387 7.47762 7.3873 7.50403 7.19944 7.49521C7.17668 7.49414 7.15455 7.49267 7.1224 7.49023C7.05192 7.48487 7.04171 7.4842 7.02239 7.4842V7.35262C7.04688 7.35262 7.0567 7.35327 7.13263 7.35903C7.16359 7.36139 7.18461 7.36279 7.20578 7.36378C7.31262 7.3688 7.36054 7.35692 7.36054 7.35319C7.36054 7.33164 7.3481 7.31402 7.30887 7.28379C7.30565 7.2813 7.29553 7.27391 7.2831 7.26483C7.26194 7.24937 7.23409 7.22903 7.22223 7.21973C7.17328 7.18132 7.13593 7.14317 7.1055 7.09596C6.99291 6.92132 7.00255 6.35177 7.16175 6.35177C7.16171 6.35177 7.1621 6.35158 7.16287 6.35119C7.16732 6.349 7.18469 6.34042 7.20952 6.32503C7.21908 6.31911 7.24742 6.30059 7.27517 6.28245C7.29942 6.26659 7.32323 6.25103 7.3337 6.24441C7.41592 6.19237 7.48342 6.15746 7.5512 6.1363C7.59318 6.1232 7.63359 6.11623 7.67275 6.11623C7.82477 6.11623 8.01396 6.19982 8.24487 6.3642L8.16687 6.47091C7.95663 6.32125 7.79041 6.24781 7.67275 6.24781C7.64823 6.24781 7.62111 6.25249 7.59141 6.26176C7.53721 6.27867 7.47884 6.30886 7.40567 6.35517C7.39646 6.361 7.37471 6.37521 7.35162 6.39031ZM7.1949 6.47036L7.19332 6.47354L7.19429 6.47136L7.1949 6.47036Z" fill="#984111"/>
<path d="M6.66518 7.72274L6.69869 7.78984V7.78984L6.66518 7.72274ZM7.34201 7.72404L7.38063 7.65974V7.65974L7.34201 7.72404ZM7.41069 7.76529L7.47229 7.80807L7.51799 7.74226L7.44931 7.701L7.41069 7.76529ZM7.36499 7.8311L7.30339 7.78833V7.78833L7.36499 7.8311ZM6.64173 7.83863L6.69869 7.78984V7.78984L6.64173 7.83863ZM6.57923 7.76567L6.54572 7.69857L6.45977 7.7415L6.52227 7.81446L6.57923 7.76567ZM6.8307 7.81712L6.8084 7.74551L6.67893 7.78584L6.78191 7.87407L6.8307 7.81712ZM7.18515 7.81552L7.23909 7.86763L7.32084 7.78302L7.20963 7.74463L7.18515 7.81552ZM6.61122 7.77302L6.57247 7.7088L6.50108 7.75187L6.55144 7.81832L6.61122 7.77302ZM7.38239 7.77277L7.44645 7.81179L7.48184 7.75368L7.42744 7.71281L7.38239 7.77277ZM6.52351 7.65083L6.56297 7.71461V7.71461L6.52351 7.65083ZM7.48094 7.65929L7.43502 7.71859V7.71859L7.48094 7.65929ZM7.52686 7.69485L7.57278 7.63556L7.57278 7.63556L7.52686 7.69485ZM7.57942 7.73556L7.6438 7.77403L7.6779 7.71697L7.62534 7.67626L7.57942 7.73556ZM7.54531 7.79262L7.48093 7.75415L7.48093 7.75415L7.54531 7.79262ZM7.51567 7.84224L7.58005 7.88071L7.58005 7.88071L7.51567 7.84224ZM6.48452 7.85411L6.42437 7.8989H6.42437L6.48452 7.85411ZM6.44202 7.79703L6.50217 7.75224L6.50217 7.75224L6.44202 7.79703ZM6.39319 7.73147L6.35372 7.6677L6.28421 7.71071L6.33304 7.77627L6.39319 7.73147ZM6.4627 7.68846L6.42323 7.62468H6.42323L6.4627 7.68846ZM7.01594 7.56413C6.88173 7.56413 6.75333 7.59488 6.63167 7.65564L6.69869 7.78984C6.8 7.73924 6.90551 7.71413 7.01594 7.71413V7.56413ZM7.38063 7.65974C7.2719 7.59443 7.14912 7.56413 7.01594 7.56413V7.71413C7.12568 7.71413 7.22103 7.73885 7.30339 7.78833L7.38063 7.65974ZM7.44931 7.701L7.38063 7.65974L7.30339 7.78833L7.37207 7.82959L7.44931 7.701ZM7.42659 7.87388L7.47229 7.80807L7.34908 7.72252L7.30339 7.78833L7.42659 7.87388ZM7.01594 8.12377C7.18785 8.12377 7.32337 8.02253 7.42659 7.87388L7.30339 7.78833C7.21586 7.91437 7.12046 7.97377 7.01594 7.97377V8.12377ZM6.58477 7.88742C6.7054 8.02824 6.84906 8.12377 7.01594 8.12377V7.97377C6.91103 7.97377 6.80526 7.91424 6.69869 7.78984L6.58477 7.88742ZM6.52227 7.81446L6.58477 7.88742L6.69869 7.78984L6.63619 7.71688L6.52227 7.81446ZM6.63167 7.65564L6.54572 7.69857L6.61274 7.83277L6.69869 7.78984L6.63167 7.65564ZM7.01594 7.82377C6.98365 7.82377 6.93854 7.81075 6.8795 7.76016L6.78191 7.87407C6.86025 7.94119 6.93868 7.97377 7.01594 7.97377V7.82377ZM7.13122 7.76341C7.08364 7.81265 7.04577 7.82377 7.01594 7.82377V7.97377C7.09401 7.97377 7.16898 7.9402 7.23909 7.86763L7.13122 7.76341ZM7.01594 7.86413C7.07148 7.86413 7.11914 7.87207 7.16068 7.88641L7.20963 7.74463C7.15042 7.72418 7.08596 7.71413 7.01594 7.71413V7.86413ZM6.85301 7.88872C6.90583 7.87227 6.95991 7.86413 7.01594 7.86413V7.71413C6.94504 7.71413 6.87591 7.72448 6.8084 7.74551L6.85301 7.88872ZM7.01594 7.95535C6.91551 7.95535 6.79975 7.89762 6.67099 7.72772L6.55144 7.81832C6.69464 8.00726 6.84951 8.10535 7.01594 8.10535V7.95535ZM7.31834 7.73376C7.2168 7.90045 7.11384 7.95535 7.01594 7.95535V8.10535C7.18482 8.10535 7.32905 8.00453 7.44645 7.81179L7.31834 7.73376ZM7.01594 7.73255C7.14483 7.73255 7.25034 7.76736 7.33734 7.83273L7.42744 7.71281C7.31182 7.62594 7.17387 7.58255 7.01594 7.58255V7.73255ZM6.64996 7.83724C6.76685 7.76671 6.88845 7.73255 7.01594 7.73255V7.58255C6.8599 7.58255 6.71167 7.62482 6.57247 7.7088L6.64996 7.83724ZM7.01594 7.43255C6.82702 7.43255 6.64845 7.48532 6.48404 7.58705L6.56297 7.71461C6.70488 7.62679 6.8563 7.58255 7.01594 7.58255V7.43255ZM7.52687 7.6C7.38088 7.48693 7.2072 7.43255 7.01594 7.43255V7.58255C7.17743 7.58255 7.31794 7.62792 7.43502 7.71859L7.52687 7.6ZM7.57278 7.63556L7.52687 7.6L7.43502 7.71859L7.48093 7.75415L7.57278 7.63556ZM7.62534 7.67626L7.57278 7.63556L7.48093 7.75415L7.53349 7.79486L7.62534 7.67626ZM7.60969 7.8311L7.6438 7.77403L7.51504 7.69709L7.48093 7.75415L7.60969 7.8311ZM7.58005 7.88071L7.60969 7.8311L7.48093 7.75415L7.45129 7.80376L7.58005 7.88071ZM7.01594 8.25535C7.25987 8.25535 7.44672 8.10382 7.58005 7.88071L7.45129 7.80376C7.33303 8.00166 7.18727 8.10535 7.01594 8.10535V8.25535ZM6.42437 7.8989C6.58325 8.11223 6.77949 8.25535 7.01594 8.25535V8.10535C6.84686 8.10535 6.68979 8.00416 6.54467 7.80931L6.42437 7.8989ZM6.38187 7.84183L6.42437 7.8989L6.54467 7.80931L6.50217 7.75224L6.38187 7.84183ZM6.33304 7.77627L6.38187 7.84183L6.50217 7.75224L6.45334 7.68668L6.33304 7.77627ZM6.42323 7.62468L6.35372 7.6677L6.43265 7.79525L6.50217 7.75224L6.42323 7.62468ZM6.48404 7.58705L6.42323 7.62468L6.50217 7.75224L6.56297 7.71461L6.48404 7.58705Z" fill="#984111"/>
<path d="M6.06523 6.45293L6.09768 6.52055V6.52055L6.06523 6.45293ZM6.06523 6.81444L6.03277 6.88205L6.03277 6.88205L6.06523 6.81444ZM6.60154 6.81444L6.63399 6.88205V6.88205L6.60154 6.81444ZM6.60154 6.45293L6.56908 6.52055H6.56908L6.60154 6.45293ZM6.07581 6.63085L6.00682 6.60144L6.00682 6.60144L6.07581 6.63085ZM6.08251 6.62099L6.13879 6.67057L6.13879 6.67057L6.08251 6.62099ZM6.13013 6.58816L6.09768 6.52055L6.09768 6.52055L6.13013 6.58816ZM6.53663 6.58816L6.56908 6.52055L6.56908 6.52055L6.53663 6.58816ZM6.58425 6.62099L6.52798 6.67057L6.52798 6.67057L6.58425 6.62099ZM6.59095 6.63085L6.52196 6.66026L6.52196 6.66026L6.59095 6.63085ZM6.59095 6.63652L6.52196 6.6071L6.52196 6.60711L6.59095 6.63652ZM6.58425 6.64638L6.52798 6.59679L6.52798 6.5968L6.58425 6.64638ZM6.53663 6.67921L6.56908 6.74682H6.56908L6.53663 6.67921ZM6.13013 6.67921L6.09768 6.74682H6.09768L6.13013 6.67921ZM6.08251 6.64638L6.02624 6.69596H6.02624L6.08251 6.64638ZM6.07581 6.63652L6.00682 6.66593L6.00682 6.66593L6.07581 6.63652ZM7.39856 6.45293L7.3661 6.38532V6.38532L7.39856 6.45293ZM7.39856 6.81444L7.3661 6.88205V6.88205L7.39856 6.81444ZM7.93487 6.81444L7.90242 6.74682V6.74682L7.93487 6.81444ZM7.93487 6.45293L7.90242 6.52055V6.52055L7.93487 6.45293ZM7.40915 6.63085L7.34015 6.60144L7.34015 6.60144L7.40915 6.63085ZM7.41585 6.62099L7.35958 6.57141L7.35958 6.57141L7.41585 6.62099ZM7.46347 6.58816L7.49592 6.65578V6.65578L7.46347 6.58816ZM7.86996 6.58816L7.83751 6.65578V6.65578L7.86996 6.58816ZM7.91758 6.62099L7.86131 6.67057L7.86131 6.67057L7.91758 6.62099ZM7.92428 6.63085L7.85529 6.66026L7.85529 6.66026L7.92428 6.63085ZM7.92428 6.63652L7.85529 6.6071L7.85529 6.60711L7.92428 6.63652ZM7.91758 6.64638L7.86131 6.59679L7.86131 6.5968L7.91758 6.64638ZM7.86996 6.67921L7.83751 6.61159V6.61159L7.86996 6.67921ZM7.46347 6.67921L7.49592 6.61159V6.61159L7.46347 6.67921ZM7.41585 6.64638L7.35958 6.69596L7.35958 6.69596L7.41585 6.64638ZM7.40915 6.63652L7.34015 6.66593L7.34015 6.66593L7.40915 6.63652ZM6.09768 6.52055C6.158 6.49159 6.24133 6.47368 6.33338 6.47368V6.32368C6.22393 6.32368 6.11747 6.34467 6.03277 6.38532L6.09768 6.52055ZM6.00005 6.63368C6.00005 6.5899 6.03675 6.54979 6.09768 6.52055L6.03277 6.38532C5.95949 6.42049 5.85005 6.49845 5.85005 6.63368H6.00005ZM6.09768 6.74682C6.03675 6.71758 6.00005 6.67747 6.00005 6.63368H5.85005C5.85005 6.76892 5.95949 6.84688 6.03277 6.88205L6.09768 6.74682ZM6.33338 6.79368C6.24133 6.79368 6.158 6.77577 6.09768 6.74682L6.03277 6.88205C6.11747 6.9227 6.22393 6.94368 6.33338 6.94368V6.79368ZM6.56908 6.74682C6.50877 6.77577 6.42543 6.79368 6.33338 6.79368V6.94368C6.44284 6.94368 6.5493 6.9227 6.63399 6.88205L6.56908 6.74682ZM6.66672 6.63368C6.66672 6.67747 6.63001 6.71758 6.56908 6.74682L6.63399 6.88205C6.70727 6.84688 6.81672 6.76892 6.81672 6.63368H6.66672ZM6.56908 6.52055C6.63001 6.54979 6.66672 6.5899 6.66672 6.63368H6.81672C6.81672 6.49845 6.70727 6.42049 6.63399 6.38532L6.56908 6.52055ZM6.33338 6.47368C6.42543 6.47368 6.50877 6.49159 6.56908 6.52055L6.63399 6.38532C6.5493 6.34467 6.44284 6.32368 6.33338 6.32368V6.47368ZM6.00682 6.60144C6.00233 6.61196 6.00005 6.62275 6.00005 6.63368H6.15005C6.15005 6.63451 6.15004 6.63695 6.14977 6.64003C6.14951 6.64293 6.14909 6.64569 6.14854 6.64829C6.14746 6.65341 6.146 6.65746 6.14481 6.66026L6.00682 6.60144ZM6.02624 6.57141C6.0178 6.58099 6.01126 6.59104 6.00682 6.60144L6.14481 6.66026C6.14204 6.66676 6.13923 6.67007 6.13879 6.67057L6.02624 6.57141ZM6.09768 6.52055C6.06751 6.53503 6.04311 6.55227 6.02624 6.57141L6.13879 6.67057C6.13858 6.67081 6.14459 6.66442 6.16259 6.65578L6.09768 6.52055ZM6.33338 6.47368C6.24133 6.47368 6.158 6.4916 6.09768 6.52055L6.16259 6.65578C6.19854 6.63852 6.25875 6.62368 6.33338 6.62368V6.47368ZM6.56908 6.52055C6.50877 6.4916 6.42544 6.47368 6.33338 6.47368V6.62368C6.40801 6.62368 6.46822 6.63852 6.50417 6.65578L6.56908 6.52055ZM6.64052 6.57141C6.62366 6.55227 6.59925 6.53503 6.56908 6.52055L6.50417 6.65578C6.52218 6.66442 6.52819 6.67081 6.52798 6.67057L6.64052 6.57141ZM6.65994 6.60144C6.65551 6.59104 6.64897 6.58099 6.64052 6.57141L6.52798 6.67057C6.52753 6.67007 6.52473 6.66676 6.52196 6.66026L6.65994 6.60144ZM6.66672 6.63368C6.66672 6.62275 6.66443 6.61196 6.65994 6.60144L6.52196 6.66026C6.52076 6.65746 6.5193 6.65341 6.51823 6.64829C6.51768 6.64569 6.51725 6.64293 6.517 6.64003C6.51672 6.63695 6.51672 6.63451 6.51672 6.63368H6.66672ZM6.65994 6.66593C6.66443 6.65541 6.66672 6.64462 6.66672 6.63368H6.51672C6.51672 6.63285 6.51672 6.63042 6.517 6.62734C6.51725 6.62444 6.51768 6.62168 6.51823 6.61908C6.5193 6.61396 6.52076 6.60991 6.52196 6.6071L6.65994 6.66593ZM6.64052 6.69596C6.64897 6.68638 6.65551 6.67633 6.65994 6.66593L6.52196 6.60711C6.52473 6.60061 6.52753 6.5973 6.52798 6.59679L6.64052 6.69596ZM6.56908 6.74682C6.59925 6.73234 6.62366 6.7151 6.64052 6.69596L6.52798 6.5968C6.52819 6.59656 6.52218 6.60295 6.50417 6.61159L6.56908 6.74682ZM6.33338 6.79368C6.42544 6.79368 6.50877 6.77577 6.56908 6.74682L6.50417 6.61159C6.46822 6.62885 6.40801 6.64368 6.33338 6.64368V6.79368ZM6.09768 6.74682C6.158 6.77577 6.24133 6.79368 6.33338 6.79368V6.64368C6.25875 6.64368 6.19854 6.62885 6.16259 6.61159L6.09768 6.74682ZM6.02624 6.69596C6.04311 6.7151 6.06751 6.73234 6.09768 6.74682L6.16259 6.61159C6.14459 6.60295 6.13858 6.59656 6.13879 6.59679L6.02624 6.69596ZM6.00682 6.66593C6.01126 6.67633 6.0178 6.68638 6.02624 6.69596L6.13879 6.59679C6.13923 6.5973 6.14204 6.60061 6.14481 6.60711L6.00682 6.66593ZM6.00005 6.63368C6.00005 6.64462 6.00233 6.65541 6.00682 6.66593L6.14481 6.60711C6.146 6.60991 6.14746 6.61396 6.14854 6.61908C6.14909 6.62168 6.14951 6.62444 6.14977 6.62734C6.15004 6.63042 6.15005 6.63285 6.15005 6.63368H6.00005ZM7.43101 6.52055C7.49133 6.49159 7.57466 6.47368 7.66672 6.47368V6.32368C7.55726 6.32368 7.4508 6.34467 7.3661 6.38532L7.43101 6.52055ZM7.33338 6.63368C7.33338 6.5899 7.37008 6.54979 7.43101 6.52055L7.3661 6.38532C7.29283 6.42049 7.18338 6.49845 7.18338 6.63368H7.33338ZM7.43101 6.74682C7.37008 6.71758 7.33338 6.67747 7.33338 6.63368H7.18338C7.18338 6.76892 7.29283 6.84688 7.3661 6.88205L7.43101 6.74682ZM7.66672 6.79368C7.57466 6.79368 7.49133 6.77577 7.43101 6.74682L7.3661 6.88205C7.4508 6.9227 7.55726 6.94368 7.66672 6.94368V6.79368ZM7.90242 6.74682C7.8421 6.77577 7.75877 6.79368 7.66672 6.79368V6.94368C7.77617 6.94368 7.88263 6.9227 7.96733 6.88205L7.90242 6.74682ZM8.00005 6.63368C8.00005 6.67747 7.96335 6.71758 7.90242 6.74682L7.96733 6.88205C8.04061 6.84688 8.15005 6.76892 8.15005 6.63368H8.00005ZM7.90242 6.52055C7.96335 6.54979 8.00005 6.5899 8.00005 6.63368H8.15005C8.15005 6.49845 8.04061 6.42049 7.96733 6.38532L7.90242 6.52055ZM7.66672 6.47368C7.75877 6.47368 7.8421 6.49159 7.90242 6.52055L7.96733 6.38532C7.88263 6.34467 7.77617 6.32368 7.66672 6.32368V6.47368ZM7.34015 6.60144C7.33567 6.61197 7.33338 6.62275 7.33338 6.63368H7.48338C7.48338 6.63451 7.48337 6.63695 7.4831 6.64003C7.48284 6.64292 7.48242 6.64569 7.48187 6.64829C7.4808 6.65341 7.47933 6.65746 7.47814 6.66026L7.34015 6.60144ZM7.35958 6.57141C7.35113 6.58099 7.34459 6.59104 7.34015 6.60144L7.47814 6.66026C7.47537 6.66676 7.47256 6.67007 7.47212 6.67057L7.35958 6.57141ZM7.43101 6.52055C7.40085 6.53503 7.37644 6.55227 7.35958 6.57141L7.47212 6.67057C7.47191 6.67081 7.47792 6.66442 7.49592 6.65578L7.43101 6.52055ZM7.66672 6.47368C7.57466 6.47368 7.49133 6.4916 7.43101 6.52055L7.49592 6.65578C7.53188 6.63852 7.59208 6.62368 7.66672 6.62368V6.47368ZM7.90242 6.52055C7.8421 6.4916 7.75877 6.47368 7.66672 6.47368V6.62368C7.74135 6.62368 7.80155 6.63852 7.83751 6.65578L7.90242 6.52055ZM7.97385 6.57141C7.95699 6.55227 7.93258 6.53503 7.90242 6.52055L7.83751 6.65578C7.85551 6.66442 7.86152 6.67081 7.86131 6.67057L7.97385 6.57141ZM7.99328 6.60144C7.98884 6.59104 7.9823 6.58099 7.97385 6.57141L7.86131 6.67057C7.86087 6.67007 7.85806 6.66676 7.85529 6.66026L7.99328 6.60144ZM8.00005 6.63368C8.00005 6.62276 7.99777 6.61197 7.99328 6.60144L7.85529 6.66026C7.8541 6.65746 7.85264 6.65341 7.85156 6.64829C7.85101 6.64568 7.85059 6.64292 7.85033 6.64002C7.85006 6.63694 7.85005 6.63451 7.85005 6.63368H8.00005ZM7.99328 6.66593C7.99777 6.6554 8.00005 6.64461 8.00005 6.63368H7.85005C7.85005 6.63286 7.85006 6.63043 7.85033 6.62734C7.85059 6.62445 7.85101 6.62169 7.85156 6.61908C7.85264 6.61396 7.8541 6.60991 7.85529 6.6071L7.99328 6.66593ZM7.97385 6.69596C7.9823 6.68638 7.98884 6.67633 7.99328 6.66593L7.85529 6.60711C7.85806 6.60061 7.86087 6.5973 7.86131 6.59679L7.97385 6.69596ZM7.90242 6.74682C7.93258 6.73234 7.95699 6.7151 7.97385 6.69596L7.86131 6.5968C7.86152 6.59656 7.85551 6.60295 7.83751 6.61159L7.90242 6.74682ZM7.66672 6.79368C7.75877 6.79368 7.8421 6.77577 7.90242 6.74682L7.83751 6.61159C7.80155 6.62885 7.74135 6.64368 7.66672 6.64368V6.79368ZM7.43101 6.74682C7.49133 6.77577 7.57466 6.79368 7.66672 6.79368V6.64368C7.59208 6.64368 7.53188 6.62885 7.49592 6.61159L7.43101 6.74682ZM7.35958 6.69596C7.37644 6.7151 7.40085 6.73234 7.43101 6.74682L7.49592 6.61159C7.47792 6.60295 7.47191 6.59656 7.47212 6.59679L7.35958 6.69596ZM7.34015 6.66593C7.34459 6.67633 7.35113 6.68638 7.35958 6.69596L7.47212 6.59679C7.47256 6.5973 7.47537 6.60061 7.47814 6.60711L7.34015 6.66593ZM7.33338 6.63368C7.33338 6.64462 7.33567 6.6554 7.34015 6.66593L7.47814 6.60711C7.47933 6.60991 7.4808 6.61396 7.48187 6.61908C7.48242 6.62168 7.48284 6.62444 7.4831 6.62734C7.48337 6.63042 7.48338 6.63285 7.48338 6.63368H7.33338Z" fill="#984111"/>
</g>
</g>
</svg>
